<?xml version="1.0" encoding="UTF-8"?>
<svg width="631px" height="537px" viewBox="0 0 631 537" version="1.1" xmlns="http://www.w3.org/2000/svg" xmlns:xlink="http://www.w3.org/1999/xlink">
    <!-- Generator: Sketch 48.2 (47327) - http://www.bohemiancoding.com/sketch -->
    <title>Group 7 Copy</title>
    <desc>Created with Sketch.</desc>
    <defs>
        <path d="M576.142857,281.5 L503,239.7 L503,177 L631,250.15 L631,312.85 L503,386 L503,323.3 L576.142857,281.5 Z M0,250.301449 L0,250.06845 L128,177 L128,239.6301 L54.6530612,281.5 L128,323.3699 L128,386 L0,312.93155 L0,250.301449 Z M363.813664,7.58066275e-15 L458,-5.23536507e-14 L267.186336,537 L173,537 L363.813664,7.58066275e-15 Z" id="path-1"></path>
        <polygon id="path-3" points="0 0.4908 15.5096 0.4908 15.5096 15.9998 0 15.9998"></polygon>
        <polygon id="path-5" points="0.1649 0.493 15.6749 0.493 15.6749 16.0017 0.1649 16.0017"></polygon>
        <polygon id="path-7" points="0.2117 0.493 15.7217 0.493 15.7217 16.0017 0.2117 16.0017"></polygon>
        <polygon id="path-9" points="0.2584 0.493 15.7684 0.493 15.7684 16.0017 0.2584 16.0017"></polygon>
        <polygon id="path-11" points="0.3051 0.493 15.8151 0.493 15.8151 16.0017 0.3051 16.0017"></polygon>
        <polygon id="path-13" points="0.3519 0.493 15.861 0.493 15.861 16.0017 0.3519 16.0017"></polygon>
        <polygon id="path-15" points="0 0.4908 15.5096 0.4908 15.5096 15.9998 0 15.9998"></polygon>
        <polygon id="path-17" points="0 0.6575 15.5096 0.6575 15.5096 16.1665 0 16.1665"></polygon>
        <polygon id="path-19" points="0 0.8243 15.5096 0.8243 15.5096 16.3333 0 16.3333"></polygon>
        <polygon id="path-21" points="0.2224 0.7949 15.732 0.7949 15.732 16.3039 0.2224 16.3039"></polygon>
        <polygon id="path-23" points="0.2224 0.9617 15.732 0.9617 15.732 16.4707 0.2224 16.4707"></polygon>
        <polygon id="path-25" points="0.2224 0.1284 15.732 0.1284 15.732 15.6374 0.2224 15.6374"></polygon>
        <polygon id="path-27" points="0 0.4312 15.5096 0.4312 15.5096 15.9402 0 15.9402"></polygon>
        <polygon id="path-29" points="0 0.2645 15.5096 0.2645 15.5096 15.7735 0 15.7735"></polygon>
        <polygon id="path-31" points="0 0.0977 15.5096 0.0977 15.5096 15.6067 0 15.6067"></polygon>
        <polygon id="path-33" points="0.2224 0.1286 15.732 0.1286 15.732 15.6376 0.2224 15.6376"></polygon>
        <polygon id="path-35" points="0.2224 0.9619 15.732 0.9619 15.732 16.4709 0.2224 16.4709"></polygon>
        <polygon id="path-37" points="0.2224 0.7952 15.732 0.7952 15.732 16.3042 0.2224 16.3042"></polygon>
        <polygon id="path-39" points="0 0.4908 15.5096 0.4908 15.5096 15.9998 0 15.9998"></polygon>
        <polygon id="path-41" points="0 0.6575 15.5096 0.6575 15.5096 16.1665 0 16.1665"></polygon>
        <polygon id="path-43" points="0 0.8243 15.5096 0.8243 15.5096 16.3333 0 16.3333"></polygon>
        <polygon id="path-45" points="0.2224 0.7949 15.732 0.7949 15.732 16.3039 0.2224 16.3039"></polygon>
        <polygon id="path-47" points="0.2224 0.9617 15.732 0.9617 15.732 16.4707 0.2224 16.4707"></polygon>
        <polygon id="path-49" points="0.2224 0.1284 15.732 0.1284 15.732 15.6374 0.2224 15.6374"></polygon>
        <polygon id="path-51" points="0 0.4312 15.5096 0.4312 15.5096 15.9402 0 15.9402"></polygon>
        <polygon id="path-53" points="0 0.2645 15.5096 0.2645 15.5096 15.7735 0 15.7735"></polygon>
        <polygon id="path-55" points="0 0.0977 15.5096 0.0977 15.5096 15.6067 0 15.6067"></polygon>
        <polygon id="path-57" points="0.2224 0.1286 15.732 0.1286 15.732 15.6376 0.2224 15.6376"></polygon>
        <polygon id="path-59" points="0.2224 0.9619 15.732 0.9619 15.732 16.4709 0.2224 16.4709"></polygon>
        <polygon id="path-61" points="0.2224 0.7952 15.732 0.7952 15.732 16.3042 0.2224 16.3042"></polygon>
    </defs>
    <g id="Code-Peter" stroke="none" stroke-width="1" fill="none" fill-rule="evenodd">
        <g id="Group-7-Copy" transform="translate(-405.000000, -182.000000)">
            <g id="wallpaper_yourfoundry">
                <rect id="bg-copy" fill="#FFFFFF" opacity="0" x="0" y="0" width="1440" height="900"></rect>
                <g id="code-yourfoundry" transform="translate(405.000000, 182.000000)">
                    <mask id="mask-2" fill="white">
                        <use xlink:href="#path-1"></use>
                    </mask>
                    <use id="Mask" fill="#FFFFFF" xlink:href="#path-1"></use>
                    <g id="Page-1" mask="url(#mask-2)">
                        <g transform="translate(178.000000, 0.000000)">
                            <g id="Group-3" stroke-width="1" fill="none" transform="translate(0.000000, 521.507000)">
                                <mask id="mask-4" fill="white">
                                    <use xlink:href="#path-3"></use>
                                </mask>
                                <g id="Clip-2"></g>
                                <path d="M7.7546,0.4908 C3.4716,0.4908 -0.0004,3.9628 -0.0004,8.2458 C-0.0004,12.5278 3.4716,15.9998 7.7546,15.9998 C12.0376,15.9998 15.5096,12.5278 15.5096,8.2458 C15.5096,3.9628 12.0376,0.4908 7.7546,0.4908" id="Fill-1" fill="#FED136" mask="url(#mask-4)"></path>
                            </g>
                            <path d="M26.8013,521.9978 C22.5183,521.9978 19.0463,525.4698 19.0463,529.7528 C19.0463,534.0348 22.5183,537.5068 26.8013,537.5068 C31.0843,537.5068 34.5563,534.0348 34.5563,529.7528 C34.5563,525.4698 31.0843,521.9978 26.8013,521.9978" id="Fill-4" fill="#FED136"></path>
                            <path d="M45.8481,521.9978 C41.5651,521.9978 38.0931,525.4698 38.0931,529.7528 C38.0931,534.0348 41.5651,537.5068 45.8481,537.5068 C50.1311,537.5068 53.6031,534.0348 53.6031,529.7528 C53.6031,525.4698 50.1311,521.9978 45.8481,521.9978" id="Fill-6" fill="#FED136"></path>
                            <path d="M64.8948,521.9978 C60.6118,521.9978 57.1398,525.4698 57.1398,529.7528 C57.1398,534.0348 60.6118,537.5068 64.8948,537.5068 C69.1778,537.5068 72.6498,534.0348 72.6498,529.7528 C72.6498,525.4698 69.1778,521.9978 64.8948,521.9978" id="Fill-8" fill="#FED136"></path>
                            <path d="M83.9416,521.9978 C79.6586,521.9978 76.1866,525.4698 76.1866,529.7528 C76.1866,534.0348 79.6586,537.5068 83.9416,537.5068 C88.2246,537.5068 91.6966,534.0348 91.6966,529.7528 C91.6966,525.4698 88.2246,521.9978 83.9416,521.9978" id="Fill-10" fill="#FED136"></path>
                            <path d="M14.332,503.3907 C10.049,503.3907 6.577,506.8627 6.577,511.1457 C6.577,515.4277 10.049,518.8997 14.332,518.8997 C18.615,518.8997 22.087,515.4277 22.087,511.1457 C22.087,506.8627 18.615,503.3907 14.332,503.3907" id="Fill-12" fill="#FED136"></path>
                            <path d="M33.3787,503.3907 C29.0957,503.3907 25.6237,506.8627 25.6237,511.1457 C25.6237,515.4277 29.0957,518.8997 33.3787,518.8997 C37.6617,518.8997 41.1337,515.4277 41.1337,511.1457 C41.1337,506.8627 37.6617,503.3907 33.3787,503.3907" id="Fill-14" fill="#FED136"></path>
                            <path d="M52.4254,503.3907 C48.1424,503.3907 44.6704,506.8627 44.6704,511.1457 C44.6704,515.4277 48.1424,518.8997 52.4254,518.8997 C56.7084,518.8997 60.1804,515.4277 60.1804,511.1457 C60.1804,506.8627 56.7084,503.3907 52.4254,503.3907" id="Fill-16" fill="#FED136"></path>
                            <path d="M71.4722,503.3907 C67.1892,503.3907 63.7172,506.8627 63.7172,511.1457 C63.7172,515.4277 67.1892,518.8997 71.4722,518.8997 C75.7552,518.8997 79.2272,515.4277 79.2272,511.1457 C79.2272,506.8627 75.7552,503.3907 71.4722,503.3907" id="Fill-18" fill="#FED136"></path>
                            <path d="M90.5189,503.3907 C86.2359,503.3907 82.7639,506.8627 82.7639,511.1457 C82.7639,515.4277 86.2359,518.8997 90.5189,518.8997 C94.8019,518.8997 98.2739,515.4277 98.2739,511.1457 C98.2739,506.8627 94.8019,503.3907 90.5189,503.3907" id="Fill-20" fill="#FED136"></path>
                            <path d="M20.9093,484.7836 C16.6263,484.7836 13.1543,488.2556 13.1543,492.5386 C13.1543,496.8206 16.6263,500.2926 20.9093,500.2926 C25.1923,500.2926 28.6643,496.8206 28.6643,492.5386 C28.6643,488.2556 25.1923,484.7836 20.9093,484.7836" id="Fill-22" fill="#FED136"></path>
                            <path d="M39.956,484.7836 C35.673,484.7836 32.201,488.2556 32.201,492.5386 C32.201,496.8206 35.673,500.2926 39.956,500.2926 C44.239,500.2926 47.711,496.8206 47.711,492.5386 C47.711,488.2556 44.239,484.7836 39.956,484.7836" id="Fill-24" fill="#FED136"></path>
                            <path d="M59.0027,484.7836 C54.7197,484.7836 51.2477,488.2556 51.2477,492.5386 C51.2477,496.8206 54.7197,500.2926 59.0027,500.2926 C63.2857,500.2926 66.7577,496.8206 66.7577,492.5386 C66.7577,488.2556 63.2857,484.7836 59.0027,484.7836" id="Fill-26" fill="#FED136"></path>
                            <path d="M78.0495,484.7836 C73.7665,484.7836 70.2945,488.2556 70.2945,492.5386 C70.2945,496.8206 73.7665,500.2926 78.0495,500.2926 C82.3325,500.2926 85.8045,496.8206 85.8045,492.5386 C85.8045,488.2556 82.3325,484.7836 78.0495,484.7836" id="Fill-28" fill="#FED136"></path>
                            <path d="M97.0963,484.7836 C92.8133,484.7836 89.3413,488.2556 89.3413,492.5386 C89.3413,496.8206 92.8133,500.2926 97.0963,500.2926 C101.3793,500.2926 104.8513,496.8206 104.8513,492.5386 C104.8513,488.2556 101.3793,484.7836 97.0963,484.7836" id="Fill-30" fill="#FED136"></path>
                            <path d="M27.4866,466.1766 C23.2036,466.1766 19.7316,469.6486 19.7316,473.9316 C19.7316,478.2136 23.2036,481.6856 27.4866,481.6856 C31.7696,481.6856 35.2416,478.2136 35.2416,473.9316 C35.2416,469.6486 31.7696,466.1766 27.4866,466.1766" id="Fill-32" fill="#FED136"></path>
                            <path d="M46.5333,466.1766 C42.2503,466.1766 38.7783,469.6486 38.7783,473.9316 C38.7783,478.2136 42.2503,481.6856 46.5333,481.6856 C50.8163,481.6856 54.2883,478.2136 54.2883,473.9316 C54.2883,469.6486 50.8163,466.1766 46.5333,466.1766" id="Fill-34" fill="#FED136"></path>
                            <path d="M65.5801,466.1766 C61.2971,466.1766 57.8251,469.6486 57.8251,473.9316 C57.8251,478.2136 61.2971,481.6856 65.5801,481.6856 C69.8631,481.6856 73.3351,478.2136 73.3351,473.9316 C73.3351,469.6486 69.8631,466.1766 65.5801,466.1766" id="Fill-36" fill="#FED136"></path>
                            <path d="M84.6268,466.1766 C80.3438,466.1766 76.8718,469.6486 76.8718,473.9316 C76.8718,478.2136 80.3438,481.6856 84.6268,481.6856 C88.9098,481.6856 92.3818,478.2136 92.3818,473.9316 C92.3818,469.6486 88.9098,466.1766 84.6268,466.1766" id="Fill-38" fill="#FED136"></path>
                            <path d="M103.6736,466.1766 C99.3906,466.1766 95.9186,469.6486 95.9186,473.9316 C95.9186,478.2136 99.3906,481.6856 103.6736,481.6856 C107.9566,481.6856 111.4286,478.2136 111.4286,473.9316 C111.4286,469.6486 107.9566,466.1766 103.6736,466.1766" id="Fill-40" fill="#FED136"></path>
                            <path d="M34.064,447.5695 C29.781,447.5695 26.309,451.0415 26.309,455.3245 C26.309,459.6065 29.781,463.0785 34.064,463.0785 C38.347,463.0785 41.819,459.6065 41.819,455.3245 C41.819,451.0415 38.347,447.5695 34.064,447.5695" id="Fill-42" fill="#FED136"></path>
                            <path d="M53.1107,447.5695 C48.8277,447.5695 45.3557,451.0415 45.3557,455.3245 C45.3557,459.6065 48.8277,463.0785 53.1107,463.0785 C57.3937,463.0785 60.8657,459.6065 60.8657,455.3245 C60.8657,451.0415 57.3937,447.5695 53.1107,447.5695" id="Fill-44" fill="#FED136"></path>
                            <path d="M72.1574,447.5695 C67.8744,447.5695 64.4024,451.0415 64.4024,455.3245 C64.4024,459.6065 67.8744,463.0785 72.1574,463.0785 C76.4404,463.0785 79.9124,459.6065 79.9124,455.3245 C79.9124,451.0415 76.4404,447.5695 72.1574,447.5695" id="Fill-46" fill="#FED136"></path>
                            <path d="M91.2042,447.5695 C86.9212,447.5695 83.4492,451.0415 83.4492,455.3245 C83.4492,459.6065 86.9212,463.0785 91.2042,463.0785 C95.4872,463.0785 98.9592,459.6065 98.9592,455.3245 C98.9592,451.0415 95.4872,447.5695 91.2042,447.5695" id="Fill-48" fill="#FED136"></path>
                            <path d="M110.2509,447.5695 C105.9679,447.5695 102.4959,451.0415 102.4959,455.3245 C102.4959,459.6065 105.9679,463.0785 110.2509,463.0785 C114.5339,463.0785 118.0059,459.6065 118.0059,455.3245 C118.0059,451.0415 114.5339,447.5695 110.2509,447.5695" id="Fill-50" fill="#FED136"></path>
                            <path d="M40.6413,428.9624 C36.3583,428.9624 32.8863,432.4344 32.8863,436.7174 C32.8863,440.9994 36.3583,444.4714 40.6413,444.4714 C44.9243,444.4714 48.3963,440.9994 48.3963,436.7174 C48.3963,432.4344 44.9243,428.9624 40.6413,428.9624" id="Fill-52" fill="#FED136"></path>
                            <path d="M59.688,428.9624 C55.405,428.9624 51.933,432.4344 51.933,436.7174 C51.933,440.9994 55.405,444.4714 59.688,444.4714 C63.971,444.4714 67.443,440.9994 67.443,436.7174 C67.443,432.4344 63.971,428.9624 59.688,428.9624" id="Fill-54" fill="#FED136"></path>
                            <path d="M78.7347,428.9624 C74.4517,428.9624 70.9797,432.4344 70.9797,436.7174 C70.9797,440.9994 74.4517,444.4714 78.7347,444.4714 C83.0177,444.4714 86.4897,440.9994 86.4897,436.7174 C86.4897,432.4344 83.0177,428.9624 78.7347,428.9624" id="Fill-56" fill="#FED136"></path>
                            <path d="M97.7815,428.9624 C93.4985,428.9624 90.0265,432.4344 90.0265,436.7174 C90.0265,440.9994 93.4985,444.4714 97.7815,444.4714 C102.0645,444.4714 105.5365,440.9994 105.5365,436.7174 C105.5365,432.4344 102.0645,428.9624 97.7815,428.9624" id="Fill-58" fill="#FED136"></path>
                            <path d="M116.8282,428.9624 C112.5452,428.9624 109.0732,432.4344 109.0732,436.7174 C109.0732,440.9994 112.5452,444.4714 116.8282,444.4714 C121.1112,444.4714 124.5832,440.9994 124.5832,436.7174 C124.5832,432.4344 121.1112,428.9624 116.8282,428.9624" id="Fill-60" fill="#FED136"></path>
                            <path d="M47.2186,410.3553 C42.9356,410.3553 39.4636,413.8273 39.4636,418.1103 C39.4636,422.3923 42.9356,425.8643 47.2186,425.8643 C51.5016,425.8643 54.9736,422.3923 54.9736,418.1103 C54.9736,413.8273 51.5016,410.3553 47.2186,410.3553" id="Fill-62" fill="#FED136"></path>
                            <path d="M66.2653,410.3553 C61.9823,410.3553 58.5103,413.8273 58.5103,418.1103 C58.5103,422.3923 61.9823,425.8643 66.2653,425.8643 C70.5483,425.8643 74.0203,422.3923 74.0203,418.1103 C74.0203,413.8273 70.5483,410.3553 66.2653,410.3553" id="Fill-64" fill="#FED136"></path>
                            <path d="M85.3121,410.3553 C81.0291,410.3553 77.5571,413.8273 77.5571,418.1103 C77.5571,422.3923 81.0291,425.8643 85.3121,425.8643 C89.5951,425.8643 93.0671,422.3923 93.0671,418.1103 C93.0671,413.8273 89.5951,410.3553 85.3121,410.3553" id="Fill-66" fill="#FED136"></path>
                            <path d="M104.3588,410.3553 C100.0758,410.3553 96.6038,413.8273 96.6038,418.1103 C96.6038,422.3923 100.0758,425.8643 104.3588,425.8643 C108.6418,425.8643 112.1138,422.3923 112.1138,418.1103 C112.1138,413.8273 108.6418,410.3553 104.3588,410.3553" id="Fill-68" fill="#FED136"></path>
                            <path d="M123.4056,410.3553 C119.1226,410.3553 115.6506,413.8273 115.6506,418.1103 C115.6506,422.3923 119.1226,425.8643 123.4056,425.8643 C127.6886,425.8643 131.1606,422.3923 131.1606,418.1103 C131.1606,413.8273 127.6886,410.3553 123.4056,410.3553" id="Fill-70" fill="#FED136"></path>
                            <path d="M53.796,391.7483 C49.513,391.7483 46.041,395.2203 46.041,399.5033 C46.041,403.7853 49.513,407.2573 53.796,407.2573 C58.079,407.2573 61.551,403.7853 61.551,399.5033 C61.551,395.2203 58.079,391.7483 53.796,391.7483" id="Fill-72" fill="#FED136"></path>
                            <path d="M72.8427,391.7483 C68.5597,391.7483 65.0877,395.2203 65.0877,399.5033 C65.0877,403.7853 68.5597,407.2573 72.8427,407.2573 C77.1257,407.2573 80.5977,403.7853 80.5977,399.5033 C80.5977,395.2203 77.1257,391.7483 72.8427,391.7483" id="Fill-74" fill="#FED136"></path>
                            <path d="M91.8894,391.7483 C87.6064,391.7483 84.1344,395.2203 84.1344,399.5033 C84.1344,403.7853 87.6064,407.2573 91.8894,407.2573 C96.1724,407.2573 99.6444,403.7853 99.6444,399.5033 C99.6444,395.2203 96.1724,391.7483 91.8894,391.7483" id="Fill-76" fill="#FED136"></path>
                            <path d="M110.9362,391.7483 C106.6532,391.7483 103.1812,395.2203 103.1812,399.5033 C103.1812,403.7853 106.6532,407.2573 110.9362,407.2573 C115.2192,407.2573 118.6912,403.7853 118.6912,399.5033 C118.6912,395.2203 115.2192,391.7483 110.9362,391.7483" id="Fill-78" fill="#FED136"></path>
                            <path d="M129.9829,391.7483 C125.6999,391.7483 122.2279,395.2203 122.2279,399.5033 C122.2279,403.7853 125.6999,407.2573 129.9829,407.2573 C134.2659,407.2573 137.7379,403.7853 137.7379,399.5033 C137.7379,395.2203 134.2659,391.7483 129.9829,391.7483" id="Fill-80" fill="#FED136"></path>
                            <path d="M60.3733,373.1412 C56.0903,373.1412 52.6183,376.6132 52.6183,380.8962 C52.6183,385.1782 56.0903,388.6502 60.3733,388.6502 C64.6563,388.6502 68.1283,385.1782 68.1283,380.8962 C68.1283,376.6132 64.6563,373.1412 60.3733,373.1412" id="Fill-82" fill="#FED136"></path>
                            <path d="M79.42,373.1412 C75.137,373.1412 71.665,376.6132 71.665,380.8962 C71.665,385.1782 75.137,388.6502 79.42,388.6502 C83.703,388.6502 87.175,385.1782 87.175,380.8962 C87.175,376.6132 83.703,373.1412 79.42,373.1412" id="Fill-84" fill="#FED136"></path>
                            <path d="M98.4667,373.1412 C94.1837,373.1412 90.7117,376.6132 90.7117,380.8962 C90.7117,385.1782 94.1837,388.6502 98.4667,388.6502 C102.7497,388.6502 106.2217,385.1782 106.2217,380.8962 C106.2217,376.6132 102.7497,373.1412 98.4667,373.1412" id="Fill-86" fill="#FED136"></path>
                            <path d="M117.5135,373.1412 C113.2305,373.1412 109.7585,376.6132 109.7585,380.8962 C109.7585,385.1782 113.2305,388.6502 117.5135,388.6502 C121.7965,388.6502 125.2685,385.1782 125.2685,380.8962 C125.2685,376.6132 121.7965,373.1412 117.5135,373.1412" id="Fill-88" fill="#FED136"></path>
                            <path d="M136.5602,373.1412 C132.2772,373.1412 128.8052,376.6132 128.8052,380.8962 C128.8052,385.1782 132.2772,388.6502 136.5602,388.6502 C140.8432,388.6502 144.3152,385.1782 144.3152,380.8962 C144.3152,376.6132 140.8432,373.1412 136.5602,373.1412" id="Fill-90" fill="#FED136"></path>
                            <path d="M66.9506,354.5341 C62.6676,354.5341 59.1956,358.0061 59.1956,362.2891 C59.1956,366.5711 62.6676,370.0431 66.9506,370.0431 C71.2336,370.0431 74.7056,366.5711 74.7056,362.2891 C74.7056,358.0061 71.2336,354.5341 66.9506,354.5341" id="Fill-92" fill="#FED136"></path>
                            <path d="M85.9973,354.5341 C81.7143,354.5341 78.2423,358.0061 78.2423,362.2891 C78.2423,366.5711 81.7143,370.0431 85.9973,370.0431 C90.2803,370.0431 93.7523,366.5711 93.7523,362.2891 C93.7523,358.0061 90.2803,354.5341 85.9973,354.5341" id="Fill-94" fill="#FED136"></path>
                            <path d="M105.0441,354.5341 C100.7611,354.5341 97.2891,358.0061 97.2891,362.2891 C97.2891,366.5711 100.7611,370.0431 105.0441,370.0431 C109.3271,370.0431 112.7991,366.5711 112.7991,362.2891 C112.7991,358.0061 109.3271,354.5341 105.0441,354.5341" id="Fill-96" fill="#FED136"></path>
                            <path d="M124.0908,354.5341 C119.8078,354.5341 116.3358,358.0061 116.3358,362.2891 C116.3358,366.5711 119.8078,370.0431 124.0908,370.0431 C128.3738,370.0431 131.8458,366.5711 131.8458,362.2891 C131.8458,358.0061 128.3738,354.5341 124.0908,354.5341" id="Fill-98" fill="#FED136"></path>
                            <path d="M143.1376,354.5341 C138.8546,354.5341 135.3826,358.0061 135.3826,362.2891 C135.3826,366.5711 138.8546,370.0431 143.1376,370.0431 C147.4206,370.0431 150.8926,366.5711 150.8926,362.2891 C150.8926,358.0061 147.4206,354.5341 143.1376,354.5341" id="Fill-100" fill="#FED136"></path>
                            <path d="M73.528,335.9271 C69.245,335.9271 65.773,339.3991 65.773,343.6821 C65.773,347.9641 69.245,351.4361 73.528,351.4361 C77.811,351.4361 81.283,347.9641 81.283,343.6821 C81.283,339.3991 77.811,335.9271 73.528,335.9271" id="Fill-102" fill="#FED136"></path>
                            <path d="M92.5747,335.9271 C88.2917,335.9271 84.8197,339.3991 84.8197,343.6821 C84.8197,347.9641 88.2917,351.4361 92.5747,351.4361 C96.8577,351.4361 100.3297,347.9641 100.3297,343.6821 C100.3297,339.3991 96.8577,335.9271 92.5747,335.9271" id="Fill-104" fill="#FED136"></path>
                            <path d="M111.6214,335.9271 C107.3384,335.9271 103.8664,339.3991 103.8664,343.6821 C103.8664,347.9641 107.3384,351.4361 111.6214,351.4361 C115.9044,351.4361 119.3764,347.9641 119.3764,343.6821 C119.3764,339.3991 115.9044,335.9271 111.6214,335.9271" id="Fill-106" fill="#FED136"></path>
                            <path d="M130.6682,335.9271 C126.3852,335.9271 122.9132,339.3991 122.9132,343.6821 C122.9132,347.9641 126.3852,351.4361 130.6682,351.4361 C134.9512,351.4361 138.4232,347.9641 138.4232,343.6821 C138.4232,339.3991 134.9512,335.9271 130.6682,335.9271" id="Fill-108" fill="#FED136"></path>
                            <path d="M149.7149,335.9271 C145.4319,335.9271 141.9599,339.3991 141.9599,343.6821 C141.9599,347.9641 145.4319,351.4361 149.7149,351.4361 C153.9979,351.4361 157.4699,347.9641 157.4699,343.6821 C157.4699,339.3991 153.9979,335.9271 149.7149,335.9271" id="Fill-110" fill="#FED136"></path>
                            <path d="M80.1053,317.32 C75.8223,317.32 72.3503,320.792 72.3503,325.075 C72.3503,329.357 75.8223,332.829 80.1053,332.829 C84.3883,332.829 87.8603,329.357 87.8603,325.075 C87.8603,320.792 84.3883,317.32 80.1053,317.32" id="Fill-112" fill="#FED136"></path>
                            <path d="M99.152,317.32 C94.869,317.32 91.397,320.792 91.397,325.075 C91.397,329.357 94.869,332.829 99.152,332.829 C103.435,332.829 106.907,329.357 106.907,325.075 C106.907,320.792 103.435,317.32 99.152,317.32" id="Fill-114" fill="#FED136"></path>
                            <path d="M118.1987,317.32 C113.9157,317.32 110.4437,320.792 110.4437,325.075 C110.4437,329.357 113.9157,332.829 118.1987,332.829 C122.4817,332.829 125.9537,329.357 125.9537,325.075 C125.9537,320.792 122.4817,317.32 118.1987,317.32" id="Fill-116" fill="#FED136"></path>
                            <path d="M137.2455,317.32 C132.9625,317.32 129.4905,320.792 129.4905,325.075 C129.4905,329.357 132.9625,332.829 137.2455,332.829 C141.5285,332.829 145.0005,329.357 145.0005,325.075 C145.0005,320.792 141.5285,317.32 137.2455,317.32" id="Fill-118" fill="#FED136"></path>
                            <path d="M156.2922,317.32 C152.0092,317.32 148.5372,320.792 148.5372,325.075 C148.5372,329.357 152.0092,332.829 156.2922,332.829 C160.5752,332.829 164.0472,329.357 164.0472,325.075 C164.0472,320.792 160.5752,317.32 156.2922,317.32" id="Fill-120" fill="#FED136"></path>
                            <path d="M86.6826,298.7129 C82.3996,298.7129 78.9276,302.1849 78.9276,306.4679 C78.9276,310.7499 82.3996,314.2219 86.6826,314.2219 C90.9656,314.2219 94.4376,310.7499 94.4376,306.4679 C94.4376,302.1849 90.9656,298.7129 86.6826,298.7129" id="Fill-122" fill="#FED136"></path>
                            <path d="M105.7293,298.7129 C101.4463,298.7129 97.9743,302.1849 97.9743,306.4679 C97.9743,310.7499 101.4463,314.2219 105.7293,314.2219 C110.0123,314.2219 113.4843,310.7499 113.4843,306.4679 C113.4843,302.1849 110.0123,298.7129 105.7293,298.7129" id="Fill-124" fill="#FED136"></path>
                            <path d="M124.7761,298.7129 C120.4931,298.7129 117.0211,302.1849 117.0211,306.4679 C117.0211,310.7499 120.4931,314.2219 124.7761,314.2219 C129.0591,314.2219 132.5311,310.7499 132.5311,306.4679 C132.5311,302.1849 129.0591,298.7129 124.7761,298.7129" id="Fill-126" fill="#FED136"></path>
                            <path d="M143.8228,298.7129 C139.5398,298.7129 136.0678,302.1849 136.0678,306.4679 C136.0678,310.7499 139.5398,314.2219 143.8228,314.2219 C148.1058,314.2219 151.5778,310.7499 151.5778,306.4679 C151.5778,302.1849 148.1058,298.7129 143.8228,298.7129" id="Fill-128" fill="#FED136"></path>
                            <path d="M162.8696,298.7129 C158.5866,298.7129 155.1146,302.1849 155.1146,306.4679 C155.1146,310.7499 158.5866,314.2219 162.8696,314.2219 C167.1526,314.2219 170.6246,310.7499 170.6246,306.4679 C170.6246,302.1849 167.1526,298.7129 162.8696,298.7129" id="Fill-130" fill="#FED136"></path>
                            <path d="M93.2599,280.1058 C88.9769,280.1058 85.5049,283.5778 85.5049,287.8608 C85.5049,292.1428 88.9769,295.6148 93.2599,295.6148 C97.5429,295.6148 101.0149,292.1428 101.0149,287.8608 C101.0149,283.5778 97.5429,280.1058 93.2599,280.1058" id="Fill-132" fill="#FED136"></path>
                            <path d="M112.3067,280.1058 C108.0237,280.1058 104.5517,283.5778 104.5517,287.8608 C104.5517,292.1428 108.0237,295.6148 112.3067,295.6148 C116.5897,295.6148 120.0617,292.1428 120.0617,287.8608 C120.0617,283.5778 116.5897,280.1058 112.3067,280.1058" id="Fill-134" fill="#FED136"></path>
                            <path d="M131.3534,280.1058 C127.0704,280.1058 123.5984,283.5778 123.5984,287.8608 C123.5984,292.1428 127.0704,295.6148 131.3534,295.6148 C135.6364,295.6148 139.1084,292.1428 139.1084,287.8608 C139.1084,283.5778 135.6364,280.1058 131.3534,280.1058" id="Fill-136" fill="#FED136"></path>
                            <path d="M150.4001,280.1058 C146.1171,280.1058 142.6451,283.5778 142.6451,287.8608 C142.6451,292.1428 146.1171,295.6148 150.4001,295.6148 C154.6831,295.6148 158.1551,292.1428 158.1551,287.8608 C158.1551,283.5778 154.6831,280.1058 150.4001,280.1058" id="Fill-138" fill="#FED136"></path>
                            <path d="M169.4469,280.1058 C165.1639,280.1058 161.6919,283.5778 161.6919,287.8608 C161.6919,292.1428 165.1639,295.6148 169.4469,295.6148 C173.7299,295.6148 177.2019,292.1428 177.2019,287.8608 C177.2019,283.5778 173.7299,280.1058 169.4469,280.1058" id="Fill-140" fill="#FED136"></path>
                            <path d="M99.8373,261.4988 C95.5543,261.4988 92.0823,264.9708 92.0823,269.2538 C92.0823,273.5358 95.5543,277.0078 99.8373,277.0078 C104.1203,277.0078 107.5923,273.5358 107.5923,269.2538 C107.5923,264.9708 104.1203,261.4988 99.8373,261.4988" id="Fill-142" fill="#FED136"></path>
                            <path d="M118.884,261.4988 C114.601,261.4988 111.129,264.9708 111.129,269.2538 C111.129,273.5358 114.601,277.0078 118.884,277.0078 C123.167,277.0078 126.639,273.5358 126.639,269.2538 C126.639,264.9708 123.167,261.4988 118.884,261.4988" id="Fill-144" fill="#FED136"></path>
                            <path d="M137.9307,261.4988 C133.6477,261.4988 130.1757,264.9708 130.1757,269.2538 C130.1757,273.5358 133.6477,277.0078 137.9307,277.0078 C142.2137,277.0078 145.6857,273.5358 145.6857,269.2538 C145.6857,264.9708 142.2137,261.4988 137.9307,261.4988" id="Fill-146" fill="#FED136"></path>
                            <path d="M156.9775,261.4988 C152.6945,261.4988 149.2225,264.9708 149.2225,269.2538 C149.2225,273.5358 152.6945,277.0078 156.9775,277.0078 C161.2605,277.0078 164.7325,273.5358 164.7325,269.2538 C164.7325,264.9708 161.2605,261.4988 156.9775,261.4988" id="Fill-148" fill="#FED136"></path>
                            <path d="M176.0242,261.4988 C171.7412,261.4988 168.2692,264.9708 168.2692,269.2538 C168.2692,273.5358 171.7412,277.0078 176.0242,277.0078 C180.3072,277.0078 183.7792,273.5358 183.7792,269.2538 C183.7792,264.9708 180.3072,261.4988 176.0242,261.4988" id="Fill-150" fill="#FED136"></path>
                            <path d="M106.4146,242.8917 C102.1316,242.8917 98.6596,246.3637 98.6596,250.6467 C98.6596,254.9287 102.1316,258.4007 106.4146,258.4007 C110.6976,258.4007 114.1696,254.9287 114.1696,250.6467 C114.1696,246.3637 110.6976,242.8917 106.4146,242.8917" id="Fill-152" fill="#FED136"></path>
                            <path d="M125.4613,242.8917 C121.1783,242.8917 117.7063,246.3637 117.7063,250.6467 C117.7063,254.9287 121.1783,258.4007 125.4613,258.4007 C129.7443,258.4007 133.2163,254.9287 133.2163,250.6467 C133.2163,246.3637 129.7443,242.8917 125.4613,242.8917" id="Fill-154" fill="#FED136"></path>
                            <path d="M144.5081,242.8917 C140.2251,242.8917 136.7531,246.3637 136.7531,250.6467 C136.7531,254.9287 140.2251,258.4007 144.5081,258.4007 C148.7911,258.4007 152.2631,254.9287 152.2631,250.6467 C152.2631,246.3637 148.7911,242.8917 144.5081,242.8917" id="Fill-156" fill="#FED136"></path>
                            <path d="M163.5548,242.8917 C159.2718,242.8917 155.7998,246.3637 155.7998,250.6467 C155.7998,254.9287 159.2718,258.4007 163.5548,258.4007 C167.8378,258.4007 171.3098,254.9287 171.3098,250.6467 C171.3098,246.3637 167.8378,242.8917 163.5548,242.8917" id="Fill-158" fill="#FED136"></path>
                            <path d="M182.6016,242.8917 C178.3186,242.8917 174.8466,246.3637 174.8466,250.6467 C174.8466,254.9287 178.3186,258.4007 182.6016,258.4007 C186.8846,258.4007 190.3566,254.9287 190.3566,250.6467 C190.3566,246.3637 186.8846,242.8917 182.6016,242.8917" id="Fill-160" fill="#FED136"></path>
                            <path d="M112.9919,224.2846 C108.7089,224.2846 105.2369,227.7566 105.2369,232.0396 C105.2369,236.3216 108.7089,239.7936 112.9919,239.7936 C117.2749,239.7936 120.7469,236.3216 120.7469,232.0396 C120.7469,227.7566 117.2749,224.2846 112.9919,224.2846" id="Fill-162" fill="#FED136"></path>
                            <path d="M132.0387,224.2846 C127.7557,224.2846 124.2837,227.7566 124.2837,232.0396 C124.2837,236.3216 127.7557,239.7936 132.0387,239.7936 C136.3217,239.7936 139.7937,236.3216 139.7937,232.0396 C139.7937,227.7566 136.3217,224.2846 132.0387,224.2846" id="Fill-164" fill="#FED136"></path>
                            <path d="M151.0854,224.2846 C146.8024,224.2846 143.3304,227.7566 143.3304,232.0396 C143.3304,236.3216 146.8024,239.7936 151.0854,239.7936 C155.3684,239.7936 158.8404,236.3216 158.8404,232.0396 C158.8404,227.7566 155.3684,224.2846 151.0854,224.2846" id="Fill-166" fill="#FED136"></path>
                            <path d="M170.1321,224.2846 C165.8491,224.2846 162.3771,227.7566 162.3771,232.0396 C162.3771,236.3216 165.8491,239.7936 170.1321,239.7936 C174.4151,239.7936 177.8871,236.3216 177.8871,232.0396 C177.8871,227.7566 174.4151,224.2846 170.1321,224.2846" id="Fill-168" fill="#FED136"></path>
                            <path d="M189.1789,224.2846 C184.8959,224.2846 181.4239,227.7566 181.4239,232.0396 C181.4239,236.3216 184.8959,239.7936 189.1789,239.7936 C193.4619,239.7936 196.9339,236.3216 196.9339,232.0396 C196.9339,227.7566 193.4619,224.2846 189.1789,224.2846" id="Fill-170" fill="#FED136"></path>
                            <path d="M119.5693,205.6775 C115.2863,205.6775 111.8143,209.1495 111.8143,213.4325 C111.8143,217.7145 115.2863,221.1865 119.5693,221.1865 C123.8523,221.1865 127.3243,217.7145 127.3243,213.4325 C127.3243,209.1495 123.8523,205.6775 119.5693,205.6775" id="Fill-172" fill="#FED136"></path>
                            <path d="M138.616,205.6775 C134.333,205.6775 130.861,209.1495 130.861,213.4325 C130.861,217.7145 134.333,221.1865 138.616,221.1865 C142.899,221.1865 146.371,217.7145 146.371,213.4325 C146.371,209.1495 142.899,205.6775 138.616,205.6775" id="Fill-174" fill="#FED136"></path>
                            <path d="M157.6627,205.6775 C153.3797,205.6775 149.9077,209.1495 149.9077,213.4325 C149.9077,217.7145 153.3797,221.1865 157.6627,221.1865 C161.9457,221.1865 165.4177,217.7145 165.4177,213.4325 C165.4177,209.1495 161.9457,205.6775 157.6627,205.6775" id="Fill-176" fill="#FED136"></path>
                            <path d="M176.7095,205.6775 C172.4265,205.6775 168.9545,209.1495 168.9545,213.4325 C168.9545,217.7145 172.4265,221.1865 176.7095,221.1865 C180.9925,221.1865 184.4645,217.7145 184.4645,213.4325 C184.4645,209.1495 180.9925,205.6775 176.7095,205.6775" id="Fill-178" fill="#FED136"></path>
                            <path d="M195.7562,205.6775 C191.4732,205.6775 188.0012,209.1495 188.0012,213.4325 C188.0012,217.7145 191.4732,221.1865 195.7562,221.1865 C200.0392,221.1865 203.5112,217.7145 203.5112,213.4325 C203.5112,209.1495 200.0392,205.6775 195.7562,205.6775" id="Fill-180" fill="#FED136"></path>
                            <path d="M126.1466,187.0705 C121.8636,187.0705 118.3916,190.5425 118.3916,194.8255 C118.3916,199.1075 121.8636,202.5795 126.1466,202.5795 C130.4296,202.5795 133.9016,199.1075 133.9016,194.8255 C133.9016,190.5425 130.4296,187.0705 126.1466,187.0705" id="Fill-182" fill="#FED136"></path>
                            <path d="M145.1933,187.0705 C140.9103,187.0705 137.4383,190.5425 137.4383,194.8255 C137.4383,199.1075 140.9103,202.5795 145.1933,202.5795 C149.4763,202.5795 152.9483,199.1075 152.9483,194.8255 C152.9483,190.5425 149.4763,187.0705 145.1933,187.0705" id="Fill-184" fill="#FED136"></path>
                            <path d="M164.2401,187.0705 C159.9571,187.0705 156.4851,190.5425 156.4851,194.8255 C156.4851,199.1075 159.9571,202.5795 164.2401,202.5795 C168.5231,202.5795 171.9951,199.1075 171.9951,194.8255 C171.9951,190.5425 168.5231,187.0705 164.2401,187.0705" id="Fill-186" fill="#FED136"></path>
                            <path d="M183.2868,187.0705 C179.0038,187.0705 175.5318,190.5425 175.5318,194.8255 C175.5318,199.1075 179.0038,202.5795 183.2868,202.5795 C187.5698,202.5795 191.0418,199.1075 191.0418,194.8255 C191.0418,190.5425 187.5698,187.0705 183.2868,187.0705" id="Fill-188" fill="#FED136"></path>
                            <path d="M202.3336,187.0705 C198.0506,187.0705 194.5786,190.5425 194.5786,194.8255 C194.5786,199.1075 198.0506,202.5795 202.3336,202.5795 C206.6166,202.5795 210.0886,199.1075 210.0886,194.8255 C210.0886,190.5425 206.6166,187.0705 202.3336,187.0705" id="Fill-190" fill="#FED136"></path>
                            <path d="M132.7239,168.4634 C128.4409,168.4634 124.9689,171.9354 124.9689,176.2184 C124.9689,180.5004 128.4409,183.9724 132.7239,183.9724 C137.0069,183.9724 140.4789,180.5004 140.4789,176.2184 C140.4789,171.9354 137.0069,168.4634 132.7239,168.4634" id="Fill-192" fill="#FED136"></path>
                            <path d="M151.7707,168.4634 C147.4877,168.4634 144.0157,171.9354 144.0157,176.2184 C144.0157,180.5004 147.4877,183.9724 151.7707,183.9724 C156.0537,183.9724 159.5257,180.5004 159.5257,176.2184 C159.5257,171.9354 156.0537,168.4634 151.7707,168.4634" id="Fill-194" fill="#FED136"></path>
                            <path d="M170.8174,168.4634 C166.5344,168.4634 163.0624,171.9354 163.0624,176.2184 C163.0624,180.5004 166.5344,183.9724 170.8174,183.9724 C175.1004,183.9724 178.5724,180.5004 178.5724,176.2184 C178.5724,171.9354 175.1004,168.4634 170.8174,168.4634" id="Fill-196" fill="#FED136"></path>
                            <path d="M189.8641,168.4634 C185.5811,168.4634 182.1091,171.9354 182.1091,176.2184 C182.1091,180.5004 185.5811,183.9724 189.8641,183.9724 C194.1471,183.9724 197.6191,180.5004 197.6191,176.2184 C197.6191,171.9354 194.1471,168.4634 189.8641,168.4634" id="Fill-198" fill="#FED136"></path>
                            <path d="M208.9109,168.4634 C204.6279,168.4634 201.1559,171.9354 201.1559,176.2184 C201.1559,180.5004 204.6279,183.9724 208.9109,183.9724 C213.1939,183.9724 216.6659,180.5004 216.6659,176.2184 C216.6659,171.9354 213.1939,168.4634 208.9109,168.4634" id="Fill-200" fill="#FED136"></path>
                            <path d="M139.3013,149.8563 C135.0183,149.8563 131.5463,153.3283 131.5463,157.6113 C131.5463,161.8933 135.0183,165.3653 139.3013,165.3653 C143.5843,165.3653 147.0563,161.8933 147.0563,157.6113 C147.0563,153.3283 143.5843,149.8563 139.3013,149.8563" id="Fill-202" fill="#FED136"></path>
                            <path d="M158.348,149.8563 C154.065,149.8563 150.593,153.3283 150.593,157.6113 C150.593,161.8933 154.065,165.3653 158.348,165.3653 C162.631,165.3653 166.103,161.8933 166.103,157.6113 C166.103,153.3283 162.631,149.8563 158.348,149.8563" id="Fill-204" fill="#FED136"></path>
                            <path d="M177.3947,149.8563 C173.1117,149.8563 169.6397,153.3283 169.6397,157.6113 C169.6397,161.8933 173.1117,165.3653 177.3947,165.3653 C181.6777,165.3653 185.1497,161.8933 185.1497,157.6113 C185.1497,153.3283 181.6777,149.8563 177.3947,149.8563" id="Fill-206" fill="#FED136"></path>
                            <path d="M196.4415,149.8563 C192.1585,149.8563 188.6865,153.3283 188.6865,157.6113 C188.6865,161.8933 192.1585,165.3653 196.4415,165.3653 C200.7245,165.3653 204.1965,161.8933 204.1965,157.6113 C204.1965,153.3283 200.7245,149.8563 196.4415,149.8563" id="Fill-208" fill="#FED136"></path>
                            <path d="M215.4882,149.8563 C211.2052,149.8563 207.7332,153.3283 207.7332,157.6113 C207.7332,161.8933 211.2052,165.3653 215.4882,165.3653 C219.7712,165.3653 223.2432,161.8933 223.2432,157.6113 C223.2432,153.3283 219.7712,149.8563 215.4882,149.8563" id="Fill-210" fill="#FED136"></path>
                            <path d="M145.8786,131.2492 C141.5956,131.2492 138.1236,134.7212 138.1236,139.0042 C138.1236,143.2862 141.5956,146.7582 145.8786,146.7582 C150.1616,146.7582 153.6336,143.2862 153.6336,139.0042 C153.6336,134.7212 150.1616,131.2492 145.8786,131.2492" id="Fill-212" fill="#FED136"></path>
                            <path d="M164.9253,131.2492 C160.6423,131.2492 157.1703,134.7212 157.1703,139.0042 C157.1703,143.2862 160.6423,146.7582 164.9253,146.7582 C169.2083,146.7582 172.6803,143.2862 172.6803,139.0042 C172.6803,134.7212 169.2083,131.2492 164.9253,131.2492" id="Fill-214" fill="#FED136"></path>
                            <path d="M183.972,131.2492 C179.689,131.2492 176.217,134.7212 176.217,139.0042 C176.217,143.2862 179.689,146.7582 183.972,146.7582 C188.255,146.7582 191.727,143.2862 191.727,139.0042 C191.727,134.7212 188.255,131.2492 183.972,131.2492" id="Fill-216" fill="#FED136"></path>
                            <path d="M203.0188,131.2492 C198.7358,131.2492 195.2638,134.7212 195.2638,139.0042 C195.2638,143.2862 198.7358,146.7582 203.0188,146.7582 C207.3018,146.7582 210.7738,143.2862 210.7738,139.0042 C210.7738,134.7212 207.3018,131.2492 203.0188,131.2492" id="Fill-218" fill="#FED136"></path>
                            <path d="M222.0656,131.2492 C217.7826,131.2492 214.3106,134.7212 214.3106,139.0042 C214.3106,143.2862 217.7826,146.7582 222.0656,146.7582 C226.3486,146.7582 229.8206,143.2862 229.8206,139.0042 C229.8206,134.7212 226.3486,131.2492 222.0656,131.2492" id="Fill-220" fill="#FED136"></path>
                            <path d="M152.4559,112.6422 C148.1729,112.6422 144.7009,116.1142 144.7009,120.3972 C144.7009,124.6792 148.1729,128.1512 152.4559,128.1512 C156.7389,128.1512 160.2109,124.6792 160.2109,120.3972 C160.2109,116.1142 156.7389,112.6422 152.4559,112.6422" id="Fill-222" fill="#FED136"></path>
                            <path d="M171.5027,112.6422 C167.2197,112.6422 163.7477,116.1142 163.7477,120.3972 C163.7477,124.6792 167.2197,128.1512 171.5027,128.1512 C175.7857,128.1512 179.2577,124.6792 179.2577,120.3972 C179.2577,116.1142 175.7857,112.6422 171.5027,112.6422" id="Fill-224" fill="#FED136"></path>
                            <path d="M190.5494,112.6422 C186.2664,112.6422 182.7944,116.1142 182.7944,120.3972 C182.7944,124.6792 186.2664,128.1512 190.5494,128.1512 C194.8324,128.1512 198.3044,124.6792 198.3044,120.3972 C198.3044,116.1142 194.8324,112.6422 190.5494,112.6422" id="Fill-226" fill="#FED136"></path>
                            <path d="M209.5961,112.6422 C205.3131,112.6422 201.8411,116.1142 201.8411,120.3972 C201.8411,124.6792 205.3131,128.1512 209.5961,128.1512 C213.8791,128.1512 217.3511,124.6792 217.3511,120.3972 C217.3511,116.1142 213.8791,112.6422 209.5961,112.6422" id="Fill-228" fill="#FED136"></path>
                            <path d="M228.6429,112.6422 C224.3599,112.6422 220.8879,116.1142 220.8879,120.3972 C220.8879,124.6792 224.3599,128.1512 228.6429,128.1512 C232.9259,128.1512 236.3979,124.6792 236.3979,120.3972 C236.3979,116.1142 232.9259,112.6422 228.6429,112.6422" id="Fill-230" fill="#FED136"></path>
                            <path d="M159.0333,94.0351 C154.7503,94.0351 151.2783,97.5071 151.2783,101.7901 C151.2783,106.0721 154.7503,109.5441 159.0333,109.5441 C163.3163,109.5441 166.7883,106.0721 166.7883,101.7901 C166.7883,97.5071 163.3163,94.0351 159.0333,94.0351" id="Fill-232" fill="#FED136"></path>
                            <path d="M178.08,94.0351 C173.797,94.0351 170.325,97.5071 170.325,101.7901 C170.325,106.0721 173.797,109.5441 178.08,109.5441 C182.363,109.5441 185.835,106.0721 185.835,101.7901 C185.835,97.5071 182.363,94.0351 178.08,94.0351" id="Fill-234" fill="#FED136"></path>
                            <path d="M197.1267,94.0351 C192.8437,94.0351 189.3717,97.5071 189.3717,101.7901 C189.3717,106.0721 192.8437,109.5441 197.1267,109.5441 C201.4097,109.5441 204.8817,106.0721 204.8817,101.7901 C204.8817,97.5071 201.4097,94.0351 197.1267,94.0351" id="Fill-236" fill="#FED136"></path>
                            <path d="M216.1735,94.0351 C211.8905,94.0351 208.4185,97.5071 208.4185,101.7901 C208.4185,106.0721 211.8905,109.5441 216.1735,109.5441 C220.4565,109.5441 223.9285,106.0721 223.9285,101.7901 C223.9285,97.5071 220.4565,94.0351 216.1735,94.0351" id="Fill-238" fill="#FED136"></path>
                            <path d="M235.2202,94.0351 C230.9372,94.0351 227.4652,97.5071 227.4652,101.7901 C227.4652,106.0721 230.9372,109.5441 235.2202,109.5441 C239.5032,109.5441 242.9752,106.0721 242.9752,101.7901 C242.9752,97.5071 239.5032,94.0351 235.2202,94.0351" id="Fill-240" fill="#FED136"></path>
                            <path d="M165.6106,75.428 C161.3276,75.428 157.8556,78.9 157.8556,83.183 C157.8556,87.465 161.3276,90.937 165.6106,90.937 C169.8936,90.937 173.3656,87.465 173.3656,83.183 C173.3656,78.9 169.8936,75.428 165.6106,75.428" id="Fill-242" fill="#FED136"></path>
                            <path d="M184.6573,75.428 C180.3743,75.428 176.9023,78.9 176.9023,83.183 C176.9023,87.465 180.3743,90.937 184.6573,90.937 C188.9403,90.937 192.4123,87.465 192.4123,83.183 C192.4123,78.9 188.9403,75.428 184.6573,75.428" id="Fill-244" fill="#FED136"></path>
                            <path d="M203.704,75.428 C199.421,75.428 195.949,78.9 195.949,83.183 C195.949,87.465 199.421,90.937 203.704,90.937 C207.987,90.937 211.459,87.465 211.459,83.183 C211.459,78.9 207.987,75.428 203.704,75.428" id="Fill-246" fill="#FED136"></path>
                            <path d="M222.7508,75.428 C218.4678,75.428 214.9958,78.9 214.9958,83.183 C214.9958,87.465 218.4678,90.937 222.7508,90.937 C227.0338,90.937 230.5058,87.465 230.5058,83.183 C230.5058,78.9 227.0338,75.428 222.7508,75.428" id="Fill-248" fill="#FED136"></path>
                            <path d="M241.7975,75.428 C237.5145,75.428 234.0425,78.9 234.0425,83.183 C234.0425,87.465 237.5145,90.937 241.7975,90.937 C246.0805,90.937 249.5525,87.465 249.5525,83.183 C249.5525,78.9 246.0805,75.428 241.7975,75.428" id="Fill-250" fill="#FED136"></path>
                            <path d="M172.1879,56.821 C167.9049,56.821 164.4329,60.293 164.4329,64.576 C164.4329,68.858 167.9049,72.33 172.1879,72.33 C176.4709,72.33 179.9429,68.858 179.9429,64.576 C179.9429,60.293 176.4709,56.821 172.1879,56.821" id="Fill-252" fill="#FED136"></path>
                            <path d="M191.2347,56.821 C186.9517,56.821 183.4797,60.293 183.4797,64.576 C183.4797,68.858 186.9517,72.33 191.2347,72.33 C195.5177,72.33 198.9897,68.858 198.9897,64.576 C198.9897,60.293 195.5177,56.821 191.2347,56.821" id="Fill-254" fill="#FED136"></path>
                            <path d="M210.2814,56.821 C205.9984,56.821 202.5264,60.293 202.5264,64.576 C202.5264,68.858 205.9984,72.33 210.2814,72.33 C214.5644,72.33 218.0364,68.858 218.0364,64.576 C218.0364,60.293 214.5644,56.821 210.2814,56.821" id="Fill-256" fill="#FED136"></path>
                            <path d="M229.3281,56.821 C225.0451,56.821 221.5731,60.293 221.5731,64.576 C221.5731,68.858 225.0451,72.33 229.3281,72.33 C233.6111,72.33 237.0831,68.858 237.0831,64.576 C237.0831,60.293 233.6111,56.821 229.3281,56.821" id="Fill-258" fill="#FED136"></path>
                            <path d="M248.3749,56.821 C244.0919,56.821 240.6199,60.293 240.6199,64.576 C240.6199,68.858 244.0919,72.33 248.3749,72.33 C252.6579,72.33 256.1299,68.858 256.1299,64.576 C256.1299,60.293 252.6579,56.821 248.3749,56.821" id="Fill-260" fill="#FED136"></path>
                            <path d="M178.7653,38.2139 C174.4823,38.2139 171.0103,41.6859 171.0103,45.9689 C171.0103,50.2509 174.4823,53.7229 178.7653,53.7229 C183.0483,53.7229 186.5203,50.2509 186.5203,45.9689 C186.5203,41.6859 183.0483,38.2139 178.7653,38.2139" id="Fill-262" fill="#FED136"></path>
                            <path d="M197.812,38.2139 C193.529,38.2139 190.057,41.6859 190.057,45.9689 C190.057,50.2509 193.529,53.7229 197.812,53.7229 C202.095,53.7229 205.567,50.2509 205.567,45.9689 C205.567,41.6859 202.095,38.2139 197.812,38.2139" id="Fill-264" fill="#FED136"></path>
                            <path d="M216.8587,38.2139 C212.5757,38.2139 209.1037,41.6859 209.1037,45.9689 C209.1037,50.2509 212.5757,53.7229 216.8587,53.7229 C221.1417,53.7229 224.6137,50.2509 224.6137,45.9689 C224.6137,41.6859 221.1417,38.2139 216.8587,38.2139" id="Fill-266" fill="#FED136"></path>
                            <path d="M235.9055,38.2139 C231.6225,38.2139 228.1505,41.6859 228.1505,45.9689 C228.1505,50.2509 231.6225,53.7229 235.9055,53.7229 C240.1885,53.7229 243.6605,50.2509 243.6605,45.9689 C243.6605,41.6859 240.1885,38.2139 235.9055,38.2139" id="Fill-268" fill="#FED136"></path>
                            <path d="M254.9522,38.2139 C250.6692,38.2139 247.1972,41.6859 247.1972,45.9689 C247.1972,50.2509 250.6692,53.7229 254.9522,53.7229 C259.2352,53.7229 262.7072,50.2509 262.7072,45.9689 C262.7072,41.6859 259.2352,38.2139 254.9522,38.2139" id="Fill-270" fill="#FED136"></path>
                            <path d="M185.3426,19.6068 C181.0596,19.6068 177.5876,23.0788 177.5876,27.3618 C177.5876,31.6438 181.0596,35.1158 185.3426,35.1158 C189.6256,35.1158 193.0976,31.6438 193.0976,27.3618 C193.0976,23.0788 189.6256,19.6068 185.3426,19.6068" id="Fill-272" fill="#FED136"></path>
                            <path d="M204.3893,19.6068 C200.1063,19.6068 196.6343,23.0788 196.6343,27.3618 C196.6343,31.6438 200.1063,35.1158 204.3893,35.1158 C208.6723,35.1158 212.1443,31.6438 212.1443,27.3618 C212.1443,23.0788 208.6723,19.6068 204.3893,19.6068" id="Fill-274" fill="#FED136"></path>
                            <path d="M223.436,19.6068 C219.153,19.6068 215.681,23.0788 215.681,27.3618 C215.681,31.6438 219.153,35.1158 223.436,35.1158 C227.719,35.1158 231.191,31.6438 231.191,27.3618 C231.191,23.0788 227.719,19.6068 223.436,19.6068" id="Fill-276" fill="#FED136"></path>
                            <path d="M242.4828,19.6068 C238.1998,19.6068 234.7278,23.0788 234.7278,27.3618 C234.7278,31.6438 238.1998,35.1158 242.4828,35.1158 C246.7658,35.1158 250.2378,31.6438 250.2378,27.3618 C250.2378,23.0788 246.7658,19.6068 242.4828,19.6068" id="Fill-278" fill="#FED136"></path>
                            <path d="M261.5295,19.6068 C257.2465,19.6068 253.7745,23.0788 253.7745,27.3618 C253.7745,31.6438 257.2465,35.1158 261.5295,35.1158 C265.8125,35.1158 269.2845,31.6438 269.2845,27.3618 C269.2845,23.0788 265.8125,19.6068 261.5295,19.6068" id="Fill-280" fill="#FED136"></path>
                            <g id="Group-284" stroke-width="1" fill="none" transform="translate(184.000000, 0.507000)">
                                <mask id="mask-6" fill="white">
                                    <use xlink:href="#path-5"></use>
                                </mask>
                                <g id="Clip-283"></g>
                                <path d="M7.9199,0.4927 C3.6369,0.4927 0.1649,3.9647 0.1649,8.2477 C0.1649,12.5297 3.6369,16.0017 7.9199,16.0017 C12.2029,16.0017 15.6749,12.5297 15.6749,8.2477 C15.6749,3.9647 12.2029,0.4927 7.9199,0.4927" id="Fill-282" fill="#FED136" mask="url(#mask-6)"></path>
                            </g>
                            <g id="Group-287" stroke-width="1" fill="none" transform="translate(203.000000, 0.507000)">
                                <mask id="mask-8" fill="white">
                                    <use xlink:href="#path-7"></use>
                                </mask>
                                <g id="Clip-286"></g>
                                <path d="M7.9667,0.4927 C3.6837,0.4927 0.2117,3.9647 0.2117,8.2477 C0.2117,12.5297 3.6837,16.0017 7.9667,16.0017 C12.2497,16.0017 15.7217,12.5297 15.7217,8.2477 C15.7217,3.9647 12.2497,0.4927 7.9667,0.4927" id="Fill-285" fill="#FED136" mask="url(#mask-8)"></path>
                            </g>
                            <g id="Group-290" stroke-width="1" fill="none" transform="translate(222.000000, 0.507000)">
                                <mask id="mask-10" fill="white">
                                    <use xlink:href="#path-9"></use>
                                </mask>
                                <g id="Clip-289"></g>
                                <path d="M8.0134,0.4927 C3.7304,0.4927 0.2584,3.9647 0.2584,8.2477 C0.2584,12.5297 3.7304,16.0017 8.0134,16.0017 C12.2964,16.0017 15.7684,12.5297 15.7684,8.2477 C15.7684,3.9647 12.2964,0.4927 8.0134,0.4927" id="Fill-288" fill="#FED136" mask="url(#mask-10)"></path>
                            </g>
                            <g id="Group-293" stroke-width="1" fill="none" transform="translate(241.000000, 0.507000)">
                                <mask id="mask-12" fill="white">
                                    <use xlink:href="#path-11"></use>
                                </mask>
                                <g id="Clip-292"></g>
                                <path d="M8.0601,0.4927 C3.7771,0.4927 0.3051,3.9647 0.3051,8.2477 C0.3051,12.5297 3.7771,16.0017 8.0601,16.0017 C12.3431,16.0017 15.8151,12.5297 15.8151,8.2477 C15.8151,3.9647 12.3431,0.4927 8.0601,0.4927" id="Fill-291" fill="#FED136" mask="url(#mask-12)"></path>
                            </g>
                            <g id="Group-296" stroke-width="1" fill="none" transform="translate(260.000000, 0.507000)">
                                <mask id="mask-14" fill="white">
                                    <use xlink:href="#path-13"></use>
                                </mask>
                                <g id="Clip-295"></g>
                                <path d="M8.1069,0.4927 C3.8239,0.4927 0.3519,3.9647 0.3519,8.2477 C0.3519,12.5297 3.8239,16.0017 8.1069,16.0017 C12.3899,16.0017 15.8619,12.5297 15.8619,8.2477 C15.8619,3.9647 12.3899,0.4927 8.1069,0.4927" id="Fill-294" fill="#FED136" mask="url(#mask-14)"></path>
                            </g>
                        </g>
                    </g>
                    <g id="Page-1" mask="url(#mask-2)">
                        <g transform="translate(505.000000, 183.000000)">
                            <g id="Group-3" stroke-width="1" fill="none" transform="translate(0.000000, 181.569000)">
                                <mask id="mask-16" fill="white">
                                    <use xlink:href="#path-15"></use>
                                </mask>
                                <g id="Clip-2"></g>
                                <path d="M7.7546,0.4908 C3.4716,0.4908 -0.0004,3.9628 -0.0004,8.2458 C-0.0004,12.5278 3.4716,15.9998 7.7546,15.9998 C12.0376,15.9998 15.5096,12.5278 15.5096,8.2458 C15.5096,3.9628 12.0376,0.4908 7.7546,0.4908" id="Fill-1" fill="#FED136" mask="url(#mask-16)"></path>
                            </g>
                            <g id="Group-6" stroke-width="1" fill="none" transform="translate(0.000000, 159.569000)">
                                <mask id="mask-18" fill="white">
                                    <use xlink:href="#path-17"></use>
                                </mask>
                                <g id="Clip-5"></g>
                                <path d="M7.7546,0.6575 C3.4716,0.6575 -0.0004,4.1295 -0.0004,8.4125 C-0.0004,12.6945 3.4716,16.1665 7.7546,16.1665 C12.0376,16.1665 15.5096,12.6945 15.5096,8.4125 C15.5096,4.1295 12.0376,0.6575 7.7546,0.6575" id="Fill-4" fill="#FED136" mask="url(#mask-18)"></path>
                            </g>
                            <g id="Group-9" stroke-width="1" fill="none" transform="translate(0.000000, 137.569000)">
                                <mask id="mask-20" fill="white">
                                    <use xlink:href="#path-19"></use>
                                </mask>
                                <g id="Clip-8"></g>
                                <path d="M7.7546,0.8243 C3.4716,0.8243 -0.0004,4.2963 -0.0004,8.5793 C-0.0004,12.8613 3.4716,16.3333 7.7546,16.3333 C12.0376,16.3333 15.5096,12.8613 15.5096,8.5793 C15.5096,4.2963 12.0376,0.8243 7.7546,0.8243" id="Fill-7" fill="#FED136" mask="url(#mask-20)"></path>
                            </g>
                            <path d="M26.1251,170.7771 C21.8421,170.7771 18.3701,174.2491 18.3701,178.5321 C18.3701,182.8141 21.8421,186.2861 26.1251,186.2861 C30.4081,186.2861 33.8801,182.8141 33.8801,178.5321 C33.8801,174.2491 30.4081,170.7771 26.1251,170.7771" id="Fill-10" fill="#FED136"></path>
                            <path d="M26.1251,148.9439 C21.8421,148.9439 18.3701,152.4159 18.3701,156.6989 C18.3701,160.9809 21.8421,164.4529 26.1251,164.4529 C30.4081,164.4529 33.8801,160.9809 33.8801,156.6989 C33.8801,152.4159 30.4081,148.9439 26.1251,148.9439" id="Fill-12" fill="#FED136"></path>
                            <path d="M26.1251,127.1106 C21.8421,127.1106 18.3701,130.5826 18.3701,134.8656 C18.3701,139.1476 21.8421,142.6196 26.1251,142.6196 C30.4081,142.6196 33.8801,139.1476 33.8801,134.8656 C33.8801,130.5826 30.4081,127.1106 26.1251,127.1106" id="Fill-14" fill="#FED136"></path>
                            <path d="M44.4955,159.4945 C40.2125,159.4945 36.7405,162.9665 36.7405,167.2495 C36.7405,171.5315 40.2125,175.0035 44.4955,175.0035 C48.7785,175.0035 52.2505,171.5315 52.2505,167.2495 C52.2505,162.9665 48.7785,159.4945 44.4955,159.4945" id="Fill-16" fill="#FED136"></path>
                            <path d="M44.4955,137.6613 C40.2125,137.6613 36.7405,141.1333 36.7405,145.4163 C36.7405,149.6983 40.2125,153.1703 44.4955,153.1703 C48.7785,153.1703 52.2505,149.6983 52.2505,145.4163 C52.2505,141.1333 48.7785,137.6613 44.4955,137.6613" id="Fill-18" fill="#FED136"></path>
                            <path d="M44.4955,115.828 C40.2125,115.828 36.7405,119.3 36.7405,123.583 C36.7405,127.865 40.2125,131.337 44.4955,131.337 C48.7785,131.337 52.2505,127.865 52.2505,123.583 C52.2505,119.3 48.7785,115.828 44.4955,115.828" id="Fill-20" fill="#FED136"></path>
                            <path d="M62.866,148.2119 C58.583,148.2119 55.111,151.6839 55.111,155.9669 C55.111,160.2489 58.583,163.7209 62.866,163.7209 C67.149,163.7209 70.621,160.2489 70.621,155.9669 C70.621,151.6839 67.149,148.2119 62.866,148.2119" id="Fill-22" fill="#FED136"></path>
                            <path d="M62.866,126.3786 C58.583,126.3786 55.111,129.8506 55.111,134.1336 C55.111,138.4156 58.583,141.8876 62.866,141.8876 C67.149,141.8876 70.621,138.4156 70.621,134.1336 C70.621,129.8506 67.149,126.3786 62.866,126.3786" id="Fill-24" fill="#FED136"></path>
                            <path d="M62.866,104.5453 C58.583,104.5453 55.111,108.0173 55.111,112.3003 C55.111,116.5823 58.583,120.0543 62.866,120.0543 C67.149,120.0543 70.621,116.5823 70.621,112.3003 C70.621,108.0173 67.149,104.5453 62.866,104.5453" id="Fill-26" fill="#FED136"></path>
                            <path d="M81.2365,136.9292 C76.9535,136.9292 73.4815,140.4012 73.4815,144.6842 C73.4815,148.9662 76.9535,152.4382 81.2365,152.4382 C85.5195,152.4382 88.9915,148.9662 88.9915,144.6842 C88.9915,140.4012 85.5195,136.9292 81.2365,136.9292" id="Fill-28" fill="#FED136"></path>
                            <path d="M81.2365,115.096 C76.9535,115.096 73.4815,118.568 73.4815,122.851 C73.4815,127.133 76.9535,130.605 81.2365,130.605 C85.5195,130.605 88.9915,127.133 88.9915,122.851 C88.9915,118.568 85.5195,115.096 81.2365,115.096" id="Fill-30" fill="#FED136"></path>
                            <path d="M81.2365,92.2619 C76.9535,92.2619 73.4815,95.7339 73.4815,100.0169 C73.4815,104.2989 76.9535,107.7709 81.2365,107.7709 C85.5195,107.7709 88.9915,104.2989 88.9915,100.0169 C88.9915,95.7339 85.5195,92.2619 81.2365,92.2619" id="Fill-32" fill="#FED136"></path>
                            <path d="M99.6069,125.6466 C95.3239,125.6466 91.8519,129.1186 91.8519,133.4016 C91.8519,137.6836 95.3239,141.1556 99.6069,141.1556 C103.8899,141.1556 107.3619,137.6836 107.3619,133.4016 C107.3619,129.1186 103.8899,125.6466 99.6069,125.6466" id="Fill-34" fill="#FED136"></path>
                            <path d="M99.6069,81.9801 C95.3239,81.9801 91.8519,85.4521 91.8519,89.7351 C91.8519,94.0171 95.3239,97.4891 99.6069,97.4891 C103.8899,97.4891 107.3619,94.0171 107.3619,89.7351 C107.3619,85.4521 103.8899,81.9801 99.6069,81.9801" id="Fill-36" fill="#FED136"></path>
                            <g id="Group-40" stroke-width="1" fill="none" transform="translate(110.000000, 113.569000)">
                                <mask id="mask-22" fill="white">
                                    <use xlink:href="#path-21"></use>
                                </mask>
                                <g id="Clip-39"></g>
                                <path d="M7.9774,0.7949 C3.6944,0.7949 0.2224,4.2669 0.2224,8.5499 C0.2224,12.8319 3.6944,16.3039 7.9774,16.3039 C12.2604,16.3039 15.7324,12.8319 15.7324,8.5499 C15.7324,4.2669 12.2604,0.7949 7.9774,0.7949" id="Fill-38" fill="#FED136" mask="url(#mask-22)"></path>
                            </g>
                            <g id="Group-43" stroke-width="1" fill="none" transform="translate(110.000000, 91.569000)">
                                <mask id="mask-24" fill="white">
                                    <use xlink:href="#path-23"></use>
                                </mask>
                                <g id="Clip-42"></g>
                                <path d="M7.9774,0.9617 C3.6944,0.9617 0.2224,4.4337 0.2224,8.7167 C0.2224,12.9987 3.6944,16.4707 7.9774,16.4707 C12.2604,16.4707 15.7324,12.9987 15.7324,8.7167 C15.7324,4.4337 12.2604,0.9617 7.9774,0.9617" id="Fill-41" fill="#FED136" mask="url(#mask-24)"></path>
                            </g>
                            <g id="Group-46" stroke-width="1" fill="none" transform="translate(110.000000, 70.569000)">
                                <mask id="mask-26" fill="white">
                                    <use xlink:href="#path-25"></use>
                                </mask>
                                <g id="Clip-45"></g>
                                <path d="M7.9774,0.1284 C3.6944,0.1284 0.2224,3.6004 0.2224,7.8834 C0.2224,12.1654 3.6944,15.6374 7.9774,15.6374 C12.2604,15.6374 15.7324,12.1654 15.7324,7.8834 C15.7324,3.6004 12.2604,0.1284 7.9774,0.1284" id="Fill-44" fill="#FED136" mask="url(#mask-26)"></path>
                            </g>
                            <g id="Group-49" stroke-width="1" fill="none" transform="translate(0.000000, 0.569000)">
                                <mask id="mask-28" fill="white">
                                    <use xlink:href="#path-27"></use>
                                </mask>
                                <g id="Clip-48"></g>
                                <path d="M7.7546,15.9402 C3.4716,15.9402 -0.0004,12.4682 -0.0004,8.1852 C-0.0004,3.9032 3.4716,0.4312 7.7546,0.4312 C12.0376,0.4312 15.5096,3.9032 15.5096,8.1852 C15.5096,12.4682 12.0376,15.9402 7.7546,15.9402" id="Fill-47" fill="#FED136" mask="url(#mask-28)"></path>
                            </g>
                            <g id="Group-52" stroke-width="1" fill="none" transform="translate(0.000000, 22.569000)">
                                <mask id="mask-30" fill="white">
                                    <use xlink:href="#path-29"></use>
                                </mask>
                                <g id="Clip-51"></g>
                                <path d="M7.7546,15.7735 C3.4716,15.7735 -0.0004,12.3015 -0.0004,8.0185 C-0.0004,3.7365 3.4716,0.2645 7.7546,0.2645 C12.0376,0.2645 15.5096,3.7365 15.5096,8.0185 C15.5096,12.3015 12.0376,15.7735 7.7546,15.7735" id="Fill-50" fill="#FED136" mask="url(#mask-30)"></path>
                            </g>
                            <g id="Group-55" stroke-width="1" fill="none" transform="translate(0.000000, 44.569000)">
                                <mask id="mask-32" fill="white">
                                    <use xlink:href="#path-31"></use>
                                </mask>
                                <g id="Clip-54"></g>
                                <path d="M7.7546,15.6067 C3.4716,15.6067 -0.0004,12.1347 -0.0004,7.8517 C-0.0004,3.5697 3.4716,0.0977 7.7546,0.0977 C12.0376,0.0977 15.5096,3.5697 15.5096,7.8517 C15.5096,12.1347 12.0376,15.6067 7.7546,15.6067" id="Fill-53" fill="#FED136" mask="url(#mask-32)"></path>
                            </g>
                            <path d="M26.1251,28.1255 C21.8421,28.1255 18.3701,24.6535 18.3701,20.3705 C18.3701,16.0885 21.8421,12.6165 26.1251,12.6165 C30.4081,12.6165 33.8801,16.0885 33.8801,20.3705 C33.8801,24.6535 30.4081,28.1255 26.1251,28.1255" id="Fill-56" fill="#FED136"></path>
                            <path d="M26.1251,49.9587 C21.8421,49.9587 18.3701,46.4867 18.3701,42.2037 C18.3701,37.9217 21.8421,34.4497 26.1251,34.4497 C30.4081,34.4497 33.8801,37.9217 33.8801,42.2037 C33.8801,46.4867 30.4081,49.9587 26.1251,49.9587" id="Fill-58" fill="#FED136"></path>
                            <path d="M26.1251,71.792 C21.8421,71.792 18.3701,68.32 18.3701,64.037 C18.3701,59.755 21.8421,56.283 26.1251,56.283 C30.4081,56.283 33.8801,59.755 33.8801,64.037 C33.8801,68.32 30.4081,71.792 26.1251,71.792" id="Fill-60" fill="#FED136"></path>
                            <path d="M44.4955,39.7417 C40.2125,39.7417 36.7405,36.2697 36.7405,31.9867 C36.7405,27.7047 40.2125,24.2327 44.4955,24.2327 C48.7785,24.2327 52.2505,27.7047 52.2505,31.9867 C52.2505,36.2697 48.7785,39.7417 44.4955,39.7417" id="Fill-62" fill="#FED136"></path>
                            <path d="M44.4955,61.575 C40.2125,61.575 36.7405,58.103 36.7405,53.82 C36.7405,49.538 40.2125,46.066 44.4955,46.066 C48.7785,46.066 52.2505,49.538 52.2505,53.82 C52.2505,58.103 48.7785,61.575 44.4955,61.575" id="Fill-64" fill="#FED136"></path>
                            <path d="M44.4955,83.4082 C40.2125,83.4082 36.7405,79.9362 36.7405,75.6532 C36.7405,71.3712 40.2125,67.8992 44.4955,67.8992 C48.7785,67.8992 52.2505,71.3712 52.2505,75.6532 C52.2505,79.9362 48.7785,83.4082 44.4955,83.4082" id="Fill-66" fill="#FED136"></path>
                            <path d="M62.866,51.3579 C58.583,51.3579 55.111,47.8859 55.111,43.6029 C55.111,39.3209 58.583,35.8489 62.866,35.8489 C67.149,35.8489 70.621,39.3209 70.621,43.6029 C70.621,47.8859 67.149,51.3579 62.866,51.3579" id="Fill-68" fill="#FED136"></path>
                            <path d="M62.866,73.1912 C58.583,73.1912 55.111,69.7192 55.111,65.4362 C55.111,61.1542 58.583,57.6822 62.866,57.6822 C67.149,57.6822 70.621,61.1542 70.621,65.4362 C70.621,69.7192 67.149,73.1912 62.866,73.1912" id="Fill-70" fill="#FED136"></path>
                            <path d="M62.866,95.0244 C58.583,95.0244 55.111,91.5524 55.111,87.2694 C55.111,82.9874 58.583,79.5154 62.866,79.5154 C67.149,79.5154 70.621,82.9874 70.621,87.2694 C70.621,91.5524 67.149,95.0244 62.866,95.0244" id="Fill-72" fill="#FED136"></path>
                            <path d="M81.2365,62.9742 C76.9535,62.9742 73.4815,59.5022 73.4815,55.2192 C73.4815,50.9372 76.9535,47.4652 81.2365,47.4652 C85.5195,47.4652 88.9915,50.9372 88.9915,55.2192 C88.9915,59.5022 85.5195,62.9742 81.2365,62.9742" id="Fill-74" fill="#FED136"></path>
                            <path d="M81.2365,84.8074 C76.9535,84.8074 73.4815,81.3354 73.4815,77.0524 C73.4815,72.7704 76.9535,69.2984 81.2365,69.2984 C85.5195,69.2984 88.9915,72.7704 88.9915,77.0524 C88.9915,81.3354 85.5195,84.8074 81.2365,84.8074" id="Fill-76" fill="#FED136"></path>
                            <path d="M99.6069,74.5904 C95.3239,74.5904 91.8519,71.1184 91.8519,66.8354 C91.8519,62.5534 95.3239,59.0814 99.6069,59.0814 C103.8899,59.0814 107.3619,62.5534 107.3619,66.8354 C107.3619,71.1184 103.8899,74.5904 99.6069,74.5904" id="Fill-78" fill="#FED136"></path>
                            <path d="M99.6069,118.2569 C95.3239,118.2569 91.8519,114.7849 91.8519,110.5019 C91.8519,106.2199 95.3239,102.7479 99.6069,102.7479 C103.8899,102.7479 107.3619,106.2199 107.3619,110.5019 C107.3619,114.7849 103.8899,118.2569 99.6069,118.2569" id="Fill-80" fill="#FED136"></path>
                            <g id="Group-84" stroke-width="1" fill="none" transform="translate(110.000000, 70.569000)">
                                <mask id="mask-34" fill="white">
                                    <use xlink:href="#path-33"></use>
                                </mask>
                                <g id="Clip-83"></g>
                                <path d="M7.9774,15.6376 C3.6944,15.6376 0.2224,12.1656 0.2224,7.8826 C0.2224,3.6006 3.6944,0.1286 7.9774,0.1286 C12.2604,0.1286 15.7324,3.6006 15.7324,7.8826 C15.7324,12.1656 12.2604,15.6376 7.9774,15.6376" id="Fill-82" fill="#FED136" mask="url(#mask-34)"></path>
                            </g>
                            <g id="Group-87" stroke-width="1" fill="none" transform="translate(110.000000, 91.569000)">
                                <mask id="mask-36" fill="white">
                                    <use xlink:href="#path-35"></use>
                                </mask>
                                <g id="Clip-86"></g>
                                <path d="M7.9774,16.4709 C3.6944,16.4709 0.2224,12.9989 0.2224,8.7159 C0.2224,4.4339 3.6944,0.9619 7.9774,0.9619 C12.2604,0.9619 15.7324,4.4339 15.7324,8.7159 C15.7324,12.9989 12.2604,16.4709 7.9774,16.4709" id="Fill-85" fill="#FED136" mask="url(#mask-36)"></path>
                            </g>
                            <g id="Group-90" stroke-width="1" fill="none" transform="translate(110.000000, 113.569000)">
                                <mask id="mask-38" fill="white">
                                    <use xlink:href="#path-37"></use>
                                </mask>
                                <g id="Clip-89"></g>
                                <path d="M7.9774,16.3042 C3.6944,16.3042 0.2224,12.8322 0.2224,8.5492 C0.2224,4.2672 3.6944,0.7952 7.9774,0.7952 C12.2604,0.7952 15.7324,4.2672 15.7324,8.5492 C15.7324,12.8322 12.2604,16.3042 7.9774,16.3042" id="Fill-88" fill="#FED136" mask="url(#mask-38)"></path>
                            </g>
                        </g>
                    </g>
                    <g id="Page-1-Copy" mask="url(#mask-2)">
                        <g transform="translate(63.000000, 282.000000) scale(-1, 1) translate(-63.000000, -282.000000) translate(0.000000, 183.000000)">
                            <g id="Group-3" stroke-width="1" fill="none" transform="translate(0.000000, 181.569000)">
                                <mask id="mask-40" fill="white">
                                    <use xlink:href="#path-39"></use>
                                </mask>
                                <g id="Clip-2"></g>
                                <path d="M7.7546,0.4908 C3.4716,0.4908 -0.0004,3.9628 -0.0004,8.2458 C-0.0004,12.5278 3.4716,15.9998 7.7546,15.9998 C12.0376,15.9998 15.5096,12.5278 15.5096,8.2458 C15.5096,3.9628 12.0376,0.4908 7.7546,0.4908" id="Fill-1" fill="#FED136" mask="url(#mask-40)"></path>
                            </g>
                            <g id="Group-6" stroke-width="1" fill="none" transform="translate(0.000000, 159.569000)">
                                <mask id="mask-42" fill="white">
                                    <use xlink:href="#path-41"></use>
                                </mask>
                                <g id="Clip-5"></g>
                                <path d="M7.7546,0.6575 C3.4716,0.6575 -0.0004,4.1295 -0.0004,8.4125 C-0.0004,12.6945 3.4716,16.1665 7.7546,16.1665 C12.0376,16.1665 15.5096,12.6945 15.5096,8.4125 C15.5096,4.1295 12.0376,0.6575 7.7546,0.6575" id="Fill-4" fill="#FED136" mask="url(#mask-42)"></path>
                            </g>
                            <g id="Group-9" stroke-width="1" fill="none" transform="translate(0.000000, 137.569000)">
                                <mask id="mask-44" fill="white">
                                    <use xlink:href="#path-43"></use>
                                </mask>
                                <g id="Clip-8"></g>
                                <path d="M7.7546,0.8243 C3.4716,0.8243 -0.0004,4.2963 -0.0004,8.5793 C-0.0004,12.8613 3.4716,16.3333 7.7546,16.3333 C12.0376,16.3333 15.5096,12.8613 15.5096,8.5793 C15.5096,4.2963 12.0376,0.8243 7.7546,0.8243" id="Fill-7" fill="#FED136" mask="url(#mask-44)"></path>
                            </g>
                            <path d="M26.1251,170.7771 C21.8421,170.7771 18.3701,174.2491 18.3701,178.5321 C18.3701,182.8141 21.8421,186.2861 26.1251,186.2861 C30.4081,186.2861 33.8801,182.8141 33.8801,178.5321 C33.8801,174.2491 30.4081,170.7771 26.1251,170.7771" id="Fill-10" fill="#FED136"></path>
                            <path d="M26.1251,148.9439 C21.8421,148.9439 18.3701,152.4159 18.3701,156.6989 C18.3701,160.9809 21.8421,164.4529 26.1251,164.4529 C30.4081,164.4529 33.8801,160.9809 33.8801,156.6989 C33.8801,152.4159 30.4081,148.9439 26.1251,148.9439" id="Fill-12" fill="#FED136"></path>
                            <path d="M26.1251,127.1106 C21.8421,127.1106 18.3701,130.5826 18.3701,134.8656 C18.3701,139.1476 21.8421,142.6196 26.1251,142.6196 C30.4081,142.6196 33.8801,139.1476 33.8801,134.8656 C33.8801,130.5826 30.4081,127.1106 26.1251,127.1106" id="Fill-14" fill="#FED136"></path>
                            <path d="M44.4955,159.4945 C40.2125,159.4945 36.7405,162.9665 36.7405,167.2495 C36.7405,171.5315 40.2125,175.0035 44.4955,175.0035 C48.7785,175.0035 52.2505,171.5315 52.2505,167.2495 C52.2505,162.9665 48.7785,159.4945 44.4955,159.4945" id="Fill-16" fill="#FED136"></path>
                            <path d="M44.4955,137.6613 C40.2125,137.6613 36.7405,141.1333 36.7405,145.4163 C36.7405,149.6983 40.2125,153.1703 44.4955,153.1703 C48.7785,153.1703 52.2505,149.6983 52.2505,145.4163 C52.2505,141.1333 48.7785,137.6613 44.4955,137.6613" id="Fill-18" fill="#FED136"></path>
                            <path d="M44.4955,115.828 C40.2125,115.828 36.7405,119.3 36.7405,123.583 C36.7405,127.865 40.2125,131.337 44.4955,131.337 C48.7785,131.337 52.2505,127.865 52.2505,123.583 C52.2505,119.3 48.7785,115.828 44.4955,115.828" id="Fill-20" fill="#FED136"></path>
                            <path d="M62.866,148.2119 C58.583,148.2119 55.111,151.6839 55.111,155.9669 C55.111,160.2489 58.583,163.7209 62.866,163.7209 C67.149,163.7209 70.621,160.2489 70.621,155.9669 C70.621,151.6839 67.149,148.2119 62.866,148.2119" id="Fill-22" fill="#FED136"></path>
                            <path d="M62.866,126.3786 C58.583,126.3786 55.111,129.8506 55.111,134.1336 C55.111,138.4156 58.583,141.8876 62.866,141.8876 C67.149,141.8876 70.621,138.4156 70.621,134.1336 C70.621,129.8506 67.149,126.3786 62.866,126.3786" id="Fill-24" fill="#FED136"></path>
                            <path d="M62.866,104.5453 C58.583,104.5453 55.111,108.0173 55.111,112.3003 C55.111,116.5823 58.583,120.0543 62.866,120.0543 C67.149,120.0543 70.621,116.5823 70.621,112.3003 C70.621,108.0173 67.149,104.5453 62.866,104.5453" id="Fill-26" fill="#FED136"></path>
                            <path d="M81.2365,136.9292 C76.9535,136.9292 73.4815,140.4012 73.4815,144.6842 C73.4815,148.9662 76.9535,152.4382 81.2365,152.4382 C85.5195,152.4382 88.9915,148.9662 88.9915,144.6842 C88.9915,140.4012 85.5195,136.9292 81.2365,136.9292" id="Fill-28" fill="#FED136"></path>
                            <path d="M81.2365,115.096 C76.9535,115.096 73.4815,118.568 73.4815,122.851 C73.4815,127.133 76.9535,130.605 81.2365,130.605 C85.5195,130.605 88.9915,127.133 88.9915,122.851 C88.9915,118.568 85.5195,115.096 81.2365,115.096" id="Fill-30" fill="#FED136"></path>
                            <path d="M81.2365,92.2619 C76.9535,92.2619 73.4815,95.7339 73.4815,100.0169 C73.4815,104.2989 76.9535,107.7709 81.2365,107.7709 C85.5195,107.7709 88.9915,104.2989 88.9915,100.0169 C88.9915,95.7339 85.5195,92.2619 81.2365,92.2619" id="Fill-32" fill="#FED136"></path>
                            <path d="M99.6069,125.6466 C95.3239,125.6466 91.8519,129.1186 91.8519,133.4016 C91.8519,137.6836 95.3239,141.1556 99.6069,141.1556 C103.8899,141.1556 107.3619,137.6836 107.3619,133.4016 C107.3619,129.1186 103.8899,125.6466 99.6069,125.6466" id="Fill-34" fill="#FED136"></path>
                            <path d="M99.6069,81.9801 C95.3239,81.9801 91.8519,85.4521 91.8519,89.7351 C91.8519,94.0171 95.3239,97.4891 99.6069,97.4891 C103.8899,97.4891 107.3619,94.0171 107.3619,89.7351 C107.3619,85.4521 103.8899,81.9801 99.6069,81.9801" id="Fill-36" fill="#FED136"></path>
                            <g id="Group-40" stroke-width="1" fill="none" transform="translate(110.000000, 113.569000)">
                                <mask id="mask-46" fill="white">
                                    <use xlink:href="#path-45"></use>
                                </mask>
                                <g id="Clip-39"></g>
                                <path d="M7.9774,0.7949 C3.6944,0.7949 0.2224,4.2669 0.2224,8.5499 C0.2224,12.8319 3.6944,16.3039 7.9774,16.3039 C12.2604,16.3039 15.7324,12.8319 15.7324,8.5499 C15.7324,4.2669 12.2604,0.7949 7.9774,0.7949" id="Fill-38" fill="#FED136" mask="url(#mask-46)"></path>
                            </g>
                            <g id="Group-43" stroke-width="1" fill="none" transform="translate(110.000000, 91.569000)">
                                <mask id="mask-48" fill="white">
                                    <use xlink:href="#path-47"></use>
                                </mask>
                                <g id="Clip-42"></g>
                                <path d="M7.9774,0.9617 C3.6944,0.9617 0.2224,4.4337 0.2224,8.7167 C0.2224,12.9987 3.6944,16.4707 7.9774,16.4707 C12.2604,16.4707 15.7324,12.9987 15.7324,8.7167 C15.7324,4.4337 12.2604,0.9617 7.9774,0.9617" id="Fill-41" fill="#FED136" mask="url(#mask-48)"></path>
                            </g>
                            <g id="Group-46" stroke-width="1" fill="none" transform="translate(110.000000, 70.569000)">
                                <mask id="mask-50" fill="white">
                                    <use xlink:href="#path-49"></use>
                                </mask>
                                <g id="Clip-45"></g>
                                <path d="M7.9774,0.1284 C3.6944,0.1284 0.2224,3.6004 0.2224,7.8834 C0.2224,12.1654 3.6944,15.6374 7.9774,15.6374 C12.2604,15.6374 15.7324,12.1654 15.7324,7.8834 C15.7324,3.6004 12.2604,0.1284 7.9774,0.1284" id="Fill-44" fill="#FED136" mask="url(#mask-50)"></path>
                            </g>
                            <g id="Group-49" stroke-width="1" fill="none" transform="translate(0.000000, 0.569000)">
                                <mask id="mask-52" fill="white">
                                    <use xlink:href="#path-51"></use>
                                </mask>
                                <g id="Clip-48"></g>
                                <path d="M7.7546,15.9402 C3.4716,15.9402 -0.0004,12.4682 -0.0004,8.1852 C-0.0004,3.9032 3.4716,0.4312 7.7546,0.4312 C12.0376,0.4312 15.5096,3.9032 15.5096,8.1852 C15.5096,12.4682 12.0376,15.9402 7.7546,15.9402" id="Fill-47" fill="#FED136" mask="url(#mask-52)"></path>
                            </g>
                            <g id="Group-52" stroke-width="1" fill="none" transform="translate(0.000000, 22.569000)">
                                <mask id="mask-54" fill="white">
                                    <use xlink:href="#path-53"></use>
                                </mask>
                                <g id="Clip-51"></g>
                                <path d="M7.7546,15.7735 C3.4716,15.7735 -0.0004,12.3015 -0.0004,8.0185 C-0.0004,3.7365 3.4716,0.2645 7.7546,0.2645 C12.0376,0.2645 15.5096,3.7365 15.5096,8.0185 C15.5096,12.3015 12.0376,15.7735 7.7546,15.7735" id="Fill-50" fill="#FED136" mask="url(#mask-54)"></path>
                            </g>
                            <g id="Group-55" stroke-width="1" fill="none" transform="translate(0.000000, 44.569000)">
                                <mask id="mask-56" fill="white">
                                    <use xlink:href="#path-55"></use>
                                </mask>
                                <g id="Clip-54"></g>
                                <path d="M7.7546,15.6067 C3.4716,15.6067 -0.0004,12.1347 -0.0004,7.8517 C-0.0004,3.5697 3.4716,0.0977 7.7546,0.0977 C12.0376,0.0977 15.5096,3.5697 15.5096,7.8517 C15.5096,12.1347 12.0376,15.6067 7.7546,15.6067" id="Fill-53" fill="#FED136" mask="url(#mask-56)"></path>
                            </g>
                            <path d="M26.1251,28.1255 C21.8421,28.1255 18.3701,24.6535 18.3701,20.3705 C18.3701,16.0885 21.8421,12.6165 26.1251,12.6165 C30.4081,12.6165 33.8801,16.0885 33.8801,20.3705 C33.8801,24.6535 30.4081,28.1255 26.1251,28.1255" id="Fill-56" fill="#FED136"></path>
                            <path d="M26.1251,49.9587 C21.8421,49.9587 18.3701,46.4867 18.3701,42.2037 C18.3701,37.9217 21.8421,34.4497 26.1251,34.4497 C30.4081,34.4497 33.8801,37.9217 33.8801,42.2037 C33.8801,46.4867 30.4081,49.9587 26.1251,49.9587" id="Fill-58" fill="#FED136"></path>
                            <path d="M26.1251,71.792 C21.8421,71.792 18.3701,68.32 18.3701,64.037 C18.3701,59.755 21.8421,56.283 26.1251,56.283 C30.4081,56.283 33.8801,59.755 33.8801,64.037 C33.8801,68.32 30.4081,71.792 26.1251,71.792" id="Fill-60" fill="#FED136"></path>
                            <path d="M44.4955,39.7417 C40.2125,39.7417 36.7405,36.2697 36.7405,31.9867 C36.7405,27.7047 40.2125,24.2327 44.4955,24.2327 C48.7785,24.2327 52.2505,27.7047 52.2505,31.9867 C52.2505,36.2697 48.7785,39.7417 44.4955,39.7417" id="Fill-62" fill="#FED136"></path>
                            <path d="M44.4955,61.575 C40.2125,61.575 36.7405,58.103 36.7405,53.82 C36.7405,49.538 40.2125,46.066 44.4955,46.066 C48.7785,46.066 52.2505,49.538 52.2505,53.82 C52.2505,58.103 48.7785,61.575 44.4955,61.575" id="Fill-64" fill="#FED136"></path>
                            <path d="M44.4955,83.4082 C40.2125,83.4082 36.7405,79.9362 36.7405,75.6532 C36.7405,71.3712 40.2125,67.8992 44.4955,67.8992 C48.7785,67.8992 52.2505,71.3712 52.2505,75.6532 C52.2505,79.9362 48.7785,83.4082 44.4955,83.4082" id="Fill-66" fill="#FED136"></path>
                            <path d="M62.866,51.3579 C58.583,51.3579 55.111,47.8859 55.111,43.6029 C55.111,39.3209 58.583,35.8489 62.866,35.8489 C67.149,35.8489 70.621,39.3209 70.621,43.6029 C70.621,47.8859 67.149,51.3579 62.866,51.3579" id="Fill-68" fill="#FED136"></path>
                            <path d="M62.866,73.1912 C58.583,73.1912 55.111,69.7192 55.111,65.4362 C55.111,61.1542 58.583,57.6822 62.866,57.6822 C67.149,57.6822 70.621,61.1542 70.621,65.4362 C70.621,69.7192 67.149,73.1912 62.866,73.1912" id="Fill-70" fill="#FED136"></path>
                            <path d="M62.866,95.0244 C58.583,95.0244 55.111,91.5524 55.111,87.2694 C55.111,82.9874 58.583,79.5154 62.866,79.5154 C67.149,79.5154 70.621,82.9874 70.621,87.2694 C70.621,91.5524 67.149,95.0244 62.866,95.0244" id="Fill-72" fill="#FED136"></path>
                            <path d="M81.2365,62.9742 C76.9535,62.9742 73.4815,59.5022 73.4815,55.2192 C73.4815,50.9372 76.9535,47.4652 81.2365,47.4652 C85.5195,47.4652 88.9915,50.9372 88.9915,55.2192 C88.9915,59.5022 85.5195,62.9742 81.2365,62.9742" id="Fill-74" fill="#FED136"></path>
                            <path d="M81.2365,84.8074 C76.9535,84.8074 73.4815,81.3354 73.4815,77.0524 C73.4815,72.7704 76.9535,69.2984 81.2365,69.2984 C85.5195,69.2984 88.9915,72.7704 88.9915,77.0524 C88.9915,81.3354 85.5195,84.8074 81.2365,84.8074" id="Fill-76" fill="#FED136"></path>
                            <path d="M99.6069,74.5904 C95.3239,74.5904 91.8519,71.1184 91.8519,66.8354 C91.8519,62.5534 95.3239,59.0814 99.6069,59.0814 C103.8899,59.0814 107.3619,62.5534 107.3619,66.8354 C107.3619,71.1184 103.8899,74.5904 99.6069,74.5904" id="Fill-78" fill="#FED136"></path>
                            <path d="M99.6069,118.2569 C95.3239,118.2569 91.8519,114.7849 91.8519,110.5019 C91.8519,106.2199 95.3239,102.7479 99.6069,102.7479 C103.8899,102.7479 107.3619,106.2199 107.3619,110.5019 C107.3619,114.7849 103.8899,118.2569 99.6069,118.2569" id="Fill-80" fill="#FED136"></path>
                            <g id="Group-84" stroke-width="1" fill="none" transform="translate(110.000000, 70.569000)">
                                <mask id="mask-58" fill="white">
                                    <use xlink:href="#path-57"></use>
                                </mask>
                                <g id="Clip-83"></g>
                                <path d="M7.9774,15.6376 C3.6944,15.6376 0.2224,12.1656 0.2224,7.8826 C0.2224,3.6006 3.6944,0.1286 7.9774,0.1286 C12.2604,0.1286 15.7324,3.6006 15.7324,7.8826 C15.7324,12.1656 12.2604,15.6376 7.9774,15.6376" id="Fill-82" fill="#FED136" mask="url(#mask-58)"></path>
                            </g>
                            <g id="Group-87" stroke-width="1" fill="none" transform="translate(110.000000, 91.569000)">
                                <mask id="mask-60" fill="white">
                                    <use xlink:href="#path-59"></use>
                                </mask>
                                <g id="Clip-86"></g>
                                <path d="M7.9774,16.4709 C3.6944,16.4709 0.2224,12.9989 0.2224,8.7159 C0.2224,4.4339 3.6944,0.9619 7.9774,0.9619 C12.2604,0.9619 15.7324,4.4339 15.7324,8.7159 C15.7324,12.9989 12.2604,16.4709 7.9774,16.4709" id="Fill-85" fill="#FED136" mask="url(#mask-60)"></path>
                            </g>
                            <g id="Group-90" stroke-width="1" fill="none" transform="translate(110.000000, 113.569000)">
                                <mask id="mask-62" fill="white">
                                    <use xlink:href="#path-61"></use>
                                </mask>
                                <g id="Clip-89"></g>
                                <path d="M7.9774,16.3042 C3.6944,16.3042 0.2224,12.8322 0.2224,8.5492 C0.2224,4.2672 3.6944,0.7952 7.9774,0.7952 C12.2604,0.7952 15.7324,4.2672 15.7324,8.5492 C15.7324,12.8322 12.2604,16.3042 7.9774,16.3042" id="Fill-88" fill="#FED136" mask="url(#mask-62)"></path>
                            </g>
                        </g>
                    </g>
                </g>
            </g>
        </g>
    </g>
</svg>