<?xml version="1.0" encoding="UTF-8"?>
<svg width="631px" height="537px" viewBox="0 0 631 537" version="1.1" xmlns="http://www.w3.org/2000/svg" xmlns:xlink="http://www.w3.org/1999/xlink">
    <!-- Generator: Sketch 48.2 (47327) - http://www.bohemiancoding.com/sketch -->
    <title>wallpaper_codepeter</title>
    <desc>Created with Sketch.</desc>
    <defs>
        <path d="M576.142857,281.5 L503,239.7 L503,177 L631,250.15 L631,312.85 L503,386 L503,323.3 L576.142857,281.5 Z M0,250.301449 L0,250.06845 L128,177 L128,239.6301 L54.6530612,281.5 L128,323.3699 L128,386 L0,312.93155 L0,250.301449 Z M363.813664,7.58066275e-15 L458,-5.23536507e-14 L267.186336,537 L173,537 L363.813664,7.58066275e-15 Z" id="path-1"></path>
        <filter x="-1.0%" y="-1.2%" width="102.1%" height="102.4%" filterUnits="objectBoundingBox" id="filter-3">
            <feGaussianBlur stdDeviation="3" in="SourceAlpha" result="shadowBlurInner1"></feGaussianBlur>
            <feOffset dx="6" dy="7" in="shadowBlurInner1" result="shadowOffsetInner1"></feOffset>
            <feComposite in="shadowOffsetInner1" in2="SourceAlpha" operator="arithmetic" k2="-1" k3="1" result="shadowInnerInner1"></feComposite>
            <feColorMatrix values="0 0 0 0 0   0 0 0 0 0   0 0 0 0 0  0 0 0 0.314764493 0" type="matrix" in="shadowInnerInner1"></feColorMatrix>
        </filter>
    </defs>
    <g id="Code-Peter" stroke="none" stroke-width="1" fill="none" fill-rule="evenodd">
        <g id="wallpaper_codepeter" transform="translate(-405.000000, -182.000000)">
            <rect id="bg-copy" fill="#FFFFFF" opacity="0" x="0" y="0" width="1440" height="900"></rect>
            <g id="Code-Instalytics" transform="translate(405.000000, 182.000000)">
                <mask id="mask-2" fill="white">
                    <use xlink:href="#path-1"></use>
                </mask>
                <g id="Mask">
                    <use fill="#FFFFFF" fill-rule="evenodd" xlink:href="#path-1"></use>
                    <use fill="black" fill-opacity="1" filter="url(#filter-3)" xlink:href="#path-1"></use>
                </g>
            </g>
        </g>
    </g>
</svg>