<?xml version="1.0" encoding="UTF-8"?>
<svg width="184px" height="56px" viewBox="0 0 184 56" version="1.1" xmlns="http://www.w3.org/2000/svg" xmlns:xlink="http://www.w3.org/1999/xlink">
    <!-- Generator: Sketch 41.2 (35397) - http://www.bohemiancoding.com/sketch -->
    <title>button_backend_hovered</title>
    <desc>Created with Sketch.</desc>
    <defs></defs>
    <g id="Page-1" stroke="none" stroke-width="1" fill="none" fill-rule="evenodd">
        <g id="button_backend_hovered" transform="translate(1.000000, 1.000000)" fill="#FFFFFF">
            <rect id="Rectangle-5-Copy" stroke="#FFFFFF" stroke-width="2" fill-opacity="0.600000024" x="0" y="0" width="182" height="54" rx="27"></rect>
            <text id="Back-End" font-family="AvenirNext-DemiBold, Avenir Next" font-size="24" font-weight="500" letter-spacing="-0.556799948">
                <tspan x="25" y="35">Back-End</tspan>
            </text>
            <path d="M156.639271,21.9753075 C155.745968,20.444738 154.53426,19.2329841 153.003827,18.3397722 C151.473166,17.4465148 149.802141,17 147.989567,17 C146.177221,17 144.505649,17.4466515 142.975308,18.3397722 C141.444738,19.2329385 140.233075,20.444738 139.339772,21.9753075 C138.446606,23.5058314 138,25.1771754 138,26.9892938 C138,29.1660592 138.63508,31.1234624 139.905558,32.8620046 C141.1759,34.6006834 142.816993,35.8037813 144.828702,36.4714351 C145.06287,36.5148975 145.236219,36.484328 145.348929,36.3805011 C145.461686,36.2765376 145.517995,36.1463326 145.517995,35.9904328 C145.517995,35.9644191 145.515763,35.7303872 145.511435,35.2880638 C145.50697,34.8457403 145.504875,34.4598633 145.504875,34.130615 L145.205695,34.182369 C145.014943,34.2173121 144.774305,34.2321185 144.483781,34.2279271 C144.193394,34.2238724 143.891936,34.1934396 143.579818,34.1368565 C143.267563,34.0807745 142.97713,33.9507062 142.708292,33.7469248 C142.43959,33.5431435 142.248838,33.2764009 142.136082,32.9471071 L142.006014,32.6477904 C141.919317,32.4485194 141.782825,32.2271526 141.596355,31.9845103 C141.409886,31.7416401 141.221321,31.5769932 141.030569,31.4902961 L140.939499,31.4251025 C140.878815,31.3817768 140.822506,31.3295216 140.770433,31.2688838 C140.718405,31.208246 140.679453,31.1475626 140.65344,31.0867882 C140.62738,31.0259681 140.648975,30.976082 140.718451,30.9369476 C140.787927,30.8978132 140.913485,30.8788155 141.095672,30.8788155 L141.355718,30.9176765 C141.529157,30.9524374 141.74369,31.0562642 141.99959,31.229795 C142.255353,31.4031891 142.465604,31.6286105 142.630387,31.9059681 C142.829932,32.2615945 143.070342,32.532574 143.352301,32.7190433 C143.634032,32.9055125 143.918087,32.9985877 144.204191,32.9985877 C144.490296,32.9985877 144.737403,32.9769021 144.945604,32.9337585 C145.153576,32.8903872 145.348702,32.8251936 145.530888,32.7385421 C145.608929,32.1573121 145.821412,31.7107973 146.168155,31.3986788 C145.673941,31.3467426 145.229613,31.2685194 144.834943,31.1645103 C144.440501,31.0603645 144.032893,30.891344 143.612392,30.6569932 C143.191663,30.4229613 142.842642,30.1323462 142.565239,29.7856492 C142.28779,29.4387699 142.060091,28.9833713 141.88246,28.4198633 C141.704738,27.8561276 141.615854,27.2058314 141.615854,26.4687927 C141.615854,25.4193622 141.958451,24.5263326 142.643508,23.7892027 C142.322597,23.0002278 142.352893,22.1157631 142.734487,21.1358998 C142.985968,21.0577677 143.358907,21.1164009 143.853121,21.3114351 C144.347426,21.5065604 144.709339,21.673713 144.939226,21.8123007 C145.169112,21.9508428 145.353303,22.068246 145.492073,22.1634624 C146.298679,21.9380866 147.131071,21.8253759 147.989476,21.8253759 C148.847882,21.8253759 149.680456,21.9380866 150.487107,22.1634624 L150.981367,21.8514351 C151.319362,21.6432346 151.718497,21.4524374 152.177813,21.2789977 C152.637403,21.1056492 152.988838,21.0579043 153.231754,21.1360364 C153.621822,22.1159453 153.656583,23.0003645 153.335581,23.7893394 C154.020592,24.5264692 154.363326,25.4197267 154.363326,26.4689294 C154.363326,27.2059681 154.274123,27.8583144 154.096674,28.4263781 C153.918998,28.994533 153.689339,29.4494761 153.407608,29.792164 C153.125558,30.1348064 152.774305,30.4231435 152.353804,30.6571298 C151.933212,30.8912984 151.525467,31.0603189 151.131025,31.1644647 C150.736401,31.2686105 150.292073,31.3468793 149.797859,31.3989066 C150.24861,31.7889749 150.474032,32.4046925 150.474032,33.2457859 L150.474032,35.9900683 C150.474032,36.1459681 150.528246,36.2761276 150.636765,36.3801367 C150.745148,36.4839636 150.91631,36.514533 151.150478,36.4710251 C153.16246,35.8034624 154.803554,34.6003189 156.07385,32.8616401 C157.344009,31.1230979 157.979317,29.1656948 157.979317,26.9889294 C157.978861,25.1770387 157.532027,23.5058314 156.639271,21.9753075" id="icon_github"></path>
        </g>
    </g>
</svg>