<?xml version="1.0" encoding="UTF-8"?>
<svg width="184px" height="56px" viewBox="0 0 184 56" version="1.1" xmlns="http://www.w3.org/2000/svg" xmlns:xlink="http://www.w3.org/1999/xlink">
    <!-- Generator: Sketch 41.2 (35397) - http://www.bohemiancoding.com/sketch -->
    <title>button_frontend_hovered</title>
    <desc>Created with Sketch.</desc>
    <defs></defs>
    <g id="Page-1" stroke="none" stroke-width="1" fill="none" fill-rule="evenodd">
        <g id="button_frontend_hovered" transform="translate(1.000000, 1.000000)" fill="#FFFFFF">
            <rect id="Rectangle-5-Copy" stroke="#FFFFFF" stroke-width="2" fill-opacity="0.600000024" x="0" y="0" width="182" height="54" rx="27"></rect>
            <text id="Front-End" font-family="AvenirNext-DemiBold, Avenir Next" font-size="24" font-weight="500" letter-spacing="-0.556799948">
                <tspan x="22" y="35">Front-End</tspan>
            </text>
            <path d="M158.639271,21.9753075 C157.745968,20.444738 156.53426,19.2329841 155.003827,18.3397722 C153.473166,17.4465148 151.802141,17 149.989567,17 C148.177221,17 146.505649,17.4466515 144.975308,18.3397722 C143.444738,19.2329385 142.233075,20.444738 141.339772,21.9753075 C140.446606,23.5058314 140,25.1771754 140,26.9892938 C140,29.1660592 140.63508,31.1234624 141.905558,32.8620046 C143.1759,34.6006834 144.816993,35.8037813 146.828702,36.4714351 C147.06287,36.5148975 147.236219,36.484328 147.348929,36.3805011 C147.461686,36.2765376 147.517995,36.1463326 147.517995,35.9904328 C147.517995,35.9644191 147.515763,35.7303872 147.511435,35.2880638 C147.50697,34.8457403 147.504875,34.4598633 147.504875,34.130615 L147.205695,34.182369 C147.014943,34.2173121 146.774305,34.2321185 146.483781,34.2279271 C146.193394,34.2238724 145.891936,34.1934396 145.579818,34.1368565 C145.267563,34.0807745 144.97713,33.9507062 144.708292,33.7469248 C144.43959,33.5431435 144.248838,33.2764009 144.136082,32.9471071 L144.006014,32.6477904 C143.919317,32.4485194 143.782825,32.2271526 143.596355,31.9845103 C143.409886,31.7416401 143.221321,31.5769932 143.030569,31.4902961 L142.939499,31.4251025 C142.878815,31.3817768 142.822506,31.3295216 142.770433,31.2688838 C142.718405,31.208246 142.679453,31.1475626 142.65344,31.0867882 C142.62738,31.0259681 142.648975,30.976082 142.718451,30.9369476 C142.787927,30.8978132 142.913485,30.8788155 143.095672,30.8788155 L143.355718,30.9176765 C143.529157,30.9524374 143.74369,31.0562642 143.99959,31.229795 C144.255353,31.4031891 144.465604,31.6286105 144.630387,31.9059681 C144.829932,32.2615945 145.070342,32.532574 145.352301,32.7190433 C145.634032,32.9055125 145.918087,32.9985877 146.204191,32.9985877 C146.490296,32.9985877 146.737403,32.9769021 146.945604,32.9337585 C147.153576,32.8903872 147.348702,32.8251936 147.530888,32.7385421 C147.608929,32.1573121 147.821412,31.7107973 148.168155,31.3986788 C147.673941,31.3467426 147.229613,31.2685194 146.834943,31.1645103 C146.440501,31.0603645 146.032893,30.891344 145.612392,30.6569932 C145.191663,30.4229613 144.842642,30.1323462 144.565239,29.7856492 C144.28779,29.4387699 144.060091,28.9833713 143.88246,28.4198633 C143.704738,27.8561276 143.615854,27.2058314 143.615854,26.4687927 C143.615854,25.4193622 143.958451,24.5263326 144.643508,23.7892027 C144.322597,23.0002278 144.352893,22.1157631 144.734487,21.1358998 C144.985968,21.0577677 145.358907,21.1164009 145.853121,21.3114351 C146.347426,21.5065604 146.709339,21.673713 146.939226,21.8123007 C147.169112,21.9508428 147.353303,22.068246 147.492073,22.1634624 C148.298679,21.9380866 149.131071,21.8253759 149.989476,21.8253759 C150.847882,21.8253759 151.680456,21.9380866 152.487107,22.1634624 L152.981367,21.8514351 C153.319362,21.6432346 153.718497,21.4524374 154.177813,21.2789977 C154.637403,21.1056492 154.988838,21.0579043 155.231754,21.1360364 C155.621822,22.1159453 155.656583,23.0003645 155.335581,23.7893394 C156.020592,24.5264692 156.363326,25.4197267 156.363326,26.4689294 C156.363326,27.2059681 156.274123,27.8583144 156.096674,28.4263781 C155.918998,28.994533 155.689339,29.4494761 155.407608,29.792164 C155.125558,30.1348064 154.774305,30.4231435 154.353804,30.6571298 C153.933212,30.8912984 153.525467,31.0603189 153.131025,31.1644647 C152.736401,31.2686105 152.292073,31.3468793 151.797859,31.3989066 C152.24861,31.7889749 152.474032,32.4046925 152.474032,33.2457859 L152.474032,35.9900683 C152.474032,36.1459681 152.528246,36.2761276 152.636765,36.3801367 C152.745148,36.4839636 152.91631,36.514533 153.150478,36.4710251 C155.16246,35.8034624 156.803554,34.6003189 158.07385,32.8616401 C159.344009,31.1230979 159.979317,29.1656948 159.979317,26.9889294 C159.978861,25.1770387 159.532027,23.5058314 158.639271,21.9753075" id="icon_github"></path>
        </g>
    </g>
</svg>