<?xml version="1.0" encoding="UTF-8"?>
<svg width="184px" height="56px" viewBox="0 0 184 56" version="1.1" xmlns="http://www.w3.org/2000/svg" xmlns:xlink="http://www.w3.org/1999/xlink">
    <!-- Generator: Sketch 41.2 (35397) - http://www.bohemiancoding.com/sketch -->
    <title>button_backend_hovered</title>
    <desc>Created with Sketch.</desc>
    <defs></defs>
    <g id="Page-1" stroke="none" stroke-width="1" fill="none" fill-rule="evenodd">
        <g id="button_backend_hovered" transform="translate(1.000000, 1.000000)" fill="#FFFFFF">
            <rect id="Rectangle-5-Copy" stroke="#FFFFFF" stroke-width="2" fill-opacity="0.600000024" x="0" y="0" width="182" height="54" rx="27"></rect>
            <path d="M26.872,18.008 L33.496,18.008 C34.1360032,18.008 34.7679969,18.0839992 35.392,18.236 C36.0160031,18.3880008 36.5719976,18.6359983 37.06,18.98 C37.5480024,19.3240017 37.9439985,19.7679973 38.248,20.312 C38.5520015,20.8560027 38.704,21.5119962 38.704,22.28 C38.704,23.2400048 38.4320027,24.0319969 37.888,24.656 C37.3439973,25.2800031 36.6320044,25.7279986 35.752,26 L35.752,26.048 C36.8240054,26.1920007 37.7039966,26.6079966 38.392,27.296 C39.0800034,27.9840034 39.424,28.9039942 39.424,30.056 C39.424,30.9840046 39.2400018,31.7639968 38.872,32.396 C38.5039982,33.0280032 38.020003,33.5359981 37.42,33.92 C36.819997,34.3040019 36.1320039,34.5799992 35.356,34.748 C34.5799961,34.9160008 33.792004,35 32.992,35 L26.872,35 L26.872,18.008 Z M29.896,24.92 L32.584,24.92 C33.592005,24.92 34.3599974,24.720002 34.888,24.32 C35.4160026,23.919998 35.68,23.3520037 35.68,22.616 C35.68,21.8479962 35.4080027,21.3040016 34.864,20.984 C34.3199973,20.6639984 33.4720058,20.504 32.32,20.504 L29.896,20.504 L29.896,24.92 Z M29.896,32.456 L32.608,32.456 C32.9920019,32.456 33.4079978,32.4280003 33.856,32.372 C34.3040022,32.3159997 34.7159981,32.2000009 35.092,32.024 C35.4680019,31.8479991 35.7799988,31.5920017 36.028,31.256 C36.2760012,30.9199983 36.4,30.4720028 36.4,29.912 C36.4,29.0159955 36.096003,28.3920018 35.488,28.04 C34.879997,27.6879982 33.9600062,27.512 32.728,27.512 L29.896,27.512 L29.896,32.456 Z M48.8512001,33.536 L48.7792001,33.536 C48.4911986,34.0480026 48.0272033,34.4679984 47.3872001,34.796 C46.7471969,35.1240016 46.0192041,35.288 45.2032001,35.288 C44.7391977,35.288 44.2552026,35.2280006 43.7512001,35.108 C43.2471975,34.9879994 42.7832022,34.7880014 42.3592001,34.508 C41.9351979,34.2279986 41.5832015,33.8600023 41.3032001,33.404 C41.0231987,32.9479977 40.8832001,32.3840034 40.8832001,31.712 C40.8832001,30.8479957 41.1271976,30.1600026 41.6152001,29.648 C42.1032025,29.1359974 42.7311962,28.7440014 43.4992001,28.472 C44.2672039,28.1999986 45.1191954,28.0200004 46.0552001,27.932 C46.9912047,27.8439996 47.9071956,27.8 48.8032001,27.8 L48.8032001,27.512 C48.8032001,26.7919964 48.5432027,26.2600017 48.0232001,25.916 C47.5031975,25.5719983 46.8832037,25.4 46.1632001,25.4 C45.555197,25.4 44.9712029,25.5279987 44.4112001,25.784 C43.8511973,26.0400013 43.3872019,26.3519982 43.0192001,26.72 L41.5312001,24.968 C42.1872033,24.359997 42.9431958,23.9040015 43.7992001,23.6 C44.6552043,23.2959985 45.5231957,23.144 46.4032001,23.144 C47.4272052,23.144 48.2711967,23.2879986 48.9352001,23.576 C49.5992034,23.8640014 50.1231981,24.2399977 50.5072001,24.704 C50.891202,25.1680023 51.1591993,25.6879971 51.3112001,26.264 C51.4632008,26.8400029 51.5392001,27.4159971 51.5392001,27.992 L51.5392001,35 L48.8512001,35 L48.8512001,33.536 Z M48.8032001,29.744 L48.1552001,29.744 C47.6911977,29.744 47.2032026,29.7639998 46.6912001,29.804 C46.1791975,29.8440002 45.7072022,29.9319993 45.2752001,30.068 C44.8431979,30.2040007 44.4832015,30.3959988 44.1952001,30.644 C43.9071986,30.8920012 43.7632001,31.2319978 43.7632001,31.664 C43.7632001,31.9360014 43.8231995,32.1639991 43.9432001,32.348 C44.0632007,32.5320009 44.2191991,32.6799994 44.4112001,32.792 C44.603201,32.9040006 44.8191989,32.9839998 45.0592001,33.032 C45.2992013,33.0800002 45.5391989,33.104 45.7792001,33.104 C46.771205,33.104 47.5231975,32.8400026 48.0352001,32.312 C48.5472026,31.7839974 48.8032001,31.0640046 48.8032001,30.152 L48.8032001,29.744 Z M62.2144001,26.672 C61.990399,26.3519984 61.6544023,26.0840011 61.2064001,25.868 C60.7583979,25.6519989 60.3024024,25.544 59.8384001,25.544 C59.3103975,25.544 58.8464021,25.6519989 58.4464001,25.868 C58.0463981,26.0840011 57.7144014,26.3679982 57.4504001,26.72 C57.1863988,27.0720018 56.9904007,27.4679978 56.8624001,27.908 C56.7343995,28.3480022 56.6704001,28.7919978 56.6704001,29.24 C56.6704001,29.6880022 56.7383994,30.1319978 56.8744001,30.572 C57.0104008,31.0120022 57.2143987,31.4079982 57.4864001,31.76 C57.7584015,32.1120018 58.0983981,32.3959989 58.5064001,32.612 C58.9144021,32.8280011 59.3903974,32.936 59.9344001,32.936 C60.3824023,32.936 60.8303979,32.8480009 61.2784001,32.672 C61.7264023,32.4959991 62.0863987,32.2400017 62.3584001,31.904 L64.1584001,33.728 C63.6783977,34.2400026 63.0664038,34.6359986 62.3224001,34.916 C61.5783964,35.1960014 60.7744044,35.336 59.9104001,35.336 C59.0623959,35.336 58.2584039,35.2000014 57.4984001,34.928 C56.7383963,34.6559986 56.0744029,34.2560026 55.5064001,33.728 C54.9383973,33.1999974 54.4904017,32.5600038 54.1624001,31.808 C53.8343985,31.0559962 53.6704001,30.2000048 53.6704001,29.24 C53.6704001,28.3119954 53.8343985,27.4720038 54.1624001,26.72 C54.4904017,25.9679962 54.9343973,25.3280026 55.4944001,24.8 C56.0544029,24.2719974 56.7063964,23.8640014 57.4504001,23.576 C58.1944038,23.2879986 58.9903959,23.144 59.8384001,23.144 C60.6864043,23.144 61.5063961,23.3039984 62.2984001,23.624 C63.0904041,23.9440016 63.7183978,24.3839972 64.1824001,24.944 L62.2144001,26.672 Z M65.5456002,16.856 L68.4256002,16.856 L68.4256002,28.328 L68.4976002,28.328 L72.8656002,23.48 L76.5616002,23.48 L71.5696002,28.688 L76.8736002,35 L73.0576002,35 L68.4976002,29.096 L68.4256002,29.096 L68.4256002,35 L65.5456002,35 L65.5456002,16.856 Z M82.3888002,30.32 L76.6288002,30.32 L76.6288002,27.872 L82.3888002,27.872 L82.3888002,30.32 Z M84.6640003,18.008 L95.9200003,18.008 L95.9200003,20.648 L87.6880003,20.648 L87.6880003,24.968 L95.4880003,24.968 L95.4880003,27.512 L87.6880003,27.512 L87.6880003,32.312 L96.3520003,32.312 L96.3520003,35 L84.6640003,35 L84.6640003,18.008 Z M98.6032003,23.48 L101.3392,23.48 L101.3392,25.328 L101.3872,25.328 C101.643202,24.7519971 102.087197,24.2440022 102.7192,23.804 C103.351203,23.3639978 104.099196,23.144 104.9632,23.144 C105.715204,23.144 106.359198,23.2759987 106.8952,23.54 C107.431203,23.8040013 107.871199,24.1519978 108.2152,24.584 C108.559202,25.0160022 108.8112,25.5119972 108.9712,26.072 C109.131201,26.6320028 109.2112,27.207997 109.2112,27.8 L109.2112,35 L106.3312,35 L106.3312,28.616 C106.3312,28.2799983 106.307201,27.9280018 106.2592,27.56 C106.2112,27.1919982 106.107201,26.8600015 105.9472,26.564 C105.7872,26.2679985 105.567202,26.024001 105.2872,25.832 C105.007199,25.639999 104.635203,25.544 104.1712,25.544 C103.707198,25.544 103.307202,25.6359991 102.9712,25.82 C102.635199,26.0040009 102.359201,26.2399986 102.1432,26.528 C101.927199,26.8160014 101.763201,27.1479981 101.6512,27.524 C101.5392,27.9000019 101.4832,28.2799981 101.4832,28.664 L101.4832,35 L98.6032003,35 L98.6032003,23.48 Z M123.7264,35 L120.9904,35 L120.9904,33.272 L120.9424,33.272 C120.542398,33.9440034 119.986404,34.4559982 119.2744,34.808 C118.562397,35.1600018 117.798404,35.336 116.9824,35.336 C116.102396,35.336 115.314404,35.1720016 114.6184,34.844 C113.922397,34.5159984 113.330403,34.0760028 112.8424,33.524 C112.354398,32.9719972 111.978402,32.3240037 111.7144,31.58 C111.450399,30.8359963 111.3184,30.0400042 111.3184,29.192 C111.3184,28.3439958 111.454399,27.5520037 111.7264,26.816 C111.998402,26.0799963 112.382398,25.4400027 112.8784,24.896 C113.374403,24.3519973 113.966397,23.9240016 114.6544,23.612 C115.342404,23.2999984 116.094396,23.144 116.9104,23.144 C117.438403,23.144 117.910398,23.2039994 118.3264,23.324 C118.742402,23.4440006 119.106399,23.5919991 119.4184,23.768 C119.730402,23.9440009 119.998399,24.135999 120.2224,24.344 C120.446401,24.552001 120.6304,24.751999 120.7744,24.944 L120.8464,24.944 L120.8464,16.856 L123.7264,16.856 L123.7264,35 Z M114.2464,29.192 C114.2464,29.6400022 114.3144,30.0879978 114.4504,30.536 C114.586401,30.9840022 114.790399,31.3839982 115.0624,31.736 C115.334402,32.0880018 115.678398,32.3759989 116.0944,32.6 C116.510402,32.8240011 116.998398,32.936 117.5584,32.936 C118.086403,32.936 118.558398,32.8280011 118.9744,32.612 C119.390402,32.3959989 119.746399,32.1120018 120.0424,31.76 C120.338402,31.4079982 120.5624,31.0120022 120.7144,30.572 C120.866401,30.1319978 120.9424,29.6880022 120.9424,29.24 C120.9424,28.7919978 120.866401,28.3440022 120.7144,27.896 C120.5624,27.4479978 120.338402,27.0480018 120.0424,26.696 C119.746399,26.3439982 119.390402,26.0560011 118.9744,25.832 C118.558398,25.6079989 118.086403,25.496 117.5584,25.496 C116.998398,25.496 116.510402,25.6039989 116.0944,25.82 C115.678398,26.0360011 115.334402,26.3199982 115.0624,26.672 C114.790399,27.0240018 114.586401,27.4199978 114.4504,27.86 C114.3144,28.3000022 114.2464,28.7439978 114.2464,29.192 Z" id="Back-End"></path>
            <path d="M156.639271,21.9753075 C155.745968,20.444738 154.53426,19.2329841 153.003827,18.3397722 C151.473166,17.4465148 149.802141,17 147.989567,17 C146.177221,17 144.505649,17.4466515 142.975308,18.3397722 C141.444738,19.2329385 140.233075,20.444738 139.339772,21.9753075 C138.446606,23.5058314 138,25.1771754 138,26.9892938 C138,29.1660592 138.63508,31.1234624 139.905558,32.8620046 C141.1759,34.6006834 142.816993,35.8037813 144.828702,36.4714351 C145.06287,36.5148975 145.236219,36.484328 145.348929,36.3805011 C145.461686,36.2765376 145.517995,36.1463326 145.517995,35.9904328 C145.517995,35.9644191 145.515763,35.7303872 145.511435,35.2880638 C145.50697,34.8457403 145.504875,34.4598633 145.504875,34.130615 L145.205695,34.182369 C145.014943,34.2173121 144.774305,34.2321185 144.483781,34.2279271 C144.193394,34.2238724 143.891936,34.1934396 143.579818,34.1368565 C143.267563,34.0807745 142.97713,33.9507062 142.708292,33.7469248 C142.43959,33.5431435 142.248838,33.2764009 142.136082,32.9471071 L142.006014,32.6477904 C141.919317,32.4485194 141.782825,32.2271526 141.596355,31.9845103 C141.409886,31.7416401 141.221321,31.5769932 141.030569,31.4902961 L140.939499,31.4251025 C140.878815,31.3817768 140.822506,31.3295216 140.770433,31.2688838 C140.718405,31.208246 140.679453,31.1475626 140.65344,31.0867882 C140.62738,31.0259681 140.648975,30.976082 140.718451,30.9369476 C140.787927,30.8978132 140.913485,30.8788155 141.095672,30.8788155 L141.355718,30.9176765 C141.529157,30.9524374 141.74369,31.0562642 141.99959,31.229795 C142.255353,31.4031891 142.465604,31.6286105 142.630387,31.9059681 C142.829932,32.2615945 143.070342,32.532574 143.352301,32.7190433 C143.634032,32.9055125 143.918087,32.9985877 144.204191,32.9985877 C144.490296,32.9985877 144.737403,32.9769021 144.945604,32.9337585 C145.153576,32.8903872 145.348702,32.8251936 145.530888,32.7385421 C145.608929,32.1573121 145.821412,31.7107973 146.168155,31.3986788 C145.673941,31.3467426 145.229613,31.2685194 144.834943,31.1645103 C144.440501,31.0603645 144.032893,30.891344 143.612392,30.6569932 C143.191663,30.4229613 142.842642,30.1323462 142.565239,29.7856492 C142.28779,29.4387699 142.060091,28.9833713 141.88246,28.4198633 C141.704738,27.8561276 141.615854,27.2058314 141.615854,26.4687927 C141.615854,25.4193622 141.958451,24.5263326 142.643508,23.7892027 C142.322597,23.0002278 142.352893,22.1157631 142.734487,21.1358998 C142.985968,21.0577677 143.358907,21.1164009 143.853121,21.3114351 C144.347426,21.5065604 144.709339,21.673713 144.939226,21.8123007 C145.169112,21.9508428 145.353303,22.068246 145.492073,22.1634624 C146.298679,21.9380866 147.131071,21.8253759 147.989476,21.8253759 C148.847882,21.8253759 149.680456,21.9380866 150.487107,22.1634624 L150.981367,21.8514351 C151.319362,21.6432346 151.718497,21.4524374 152.177813,21.2789977 C152.637403,21.1056492 152.988838,21.0579043 153.231754,21.1360364 C153.621822,22.1159453 153.656583,23.0003645 153.335581,23.7893394 C154.020592,24.5264692 154.363326,25.4197267 154.363326,26.4689294 C154.363326,27.2059681 154.274123,27.8583144 154.096674,28.4263781 C153.918998,28.994533 153.689339,29.4494761 153.407608,29.792164 C153.125558,30.1348064 152.774305,30.4231435 152.353804,30.6571298 C151.933212,30.8912984 151.525467,31.0603189 151.131025,31.1644647 C150.736401,31.2686105 150.292073,31.3468793 149.797859,31.3989066 C150.24861,31.7889749 150.474032,32.4046925 150.474032,33.2457859 L150.474032,35.9900683 C150.474032,36.1459681 150.528246,36.2761276 150.636765,36.3801367 C150.745148,36.4839636 150.91631,36.514533 151.150478,36.4710251 C153.16246,35.8034624 154.803554,34.6003189 156.07385,32.8616401 C157.344009,31.1230979 157.979317,29.1656948 157.979317,26.9889294 C157.978861,25.1770387 157.532027,23.5058314 156.639271,21.9753075" id="icon_github"></path>
        </g>
    </g>
</svg>