<?xml version="1.0" encoding="UTF-8"?>
<svg width="184px" height="56px" viewBox="0 0 184 56" version="1.1" xmlns="http://www.w3.org/2000/svg" xmlns:xlink="http://www.w3.org/1999/xlink">
    <!-- Generator: Sketch 41.2 (35397) - http://www.bohemiancoding.com/sketch -->
    <title>button_frontend_hovered</title>
    <desc>Created with Sketch.</desc>
    <defs></defs>
    <g id="Page-1" stroke="none" stroke-width="1" fill="none" fill-rule="evenodd">
        <g id="button_frontend_hovered" transform="translate(1.000000, 1.000000)" fill="#FFFFFF">
            <rect id="Rectangle-5-Copy" stroke="#FFFFFF" stroke-width="2" fill-opacity="0.600000024" x="0" y="0" width="182" height="54" rx="27"></rect>
            <path d="M23.872,18.008 L34.84,18.008 L34.84,20.648 L26.896,20.648 L26.896,25.304 L34.384,25.304 L34.384,27.848 L26.896,27.848 L26.896,35 L23.872,35 L23.872,18.008 Z M35.9152001,23.48 L38.6752001,23.48 L38.6752001,25.4 L38.7232001,25.4 C39.0432017,24.7279966 39.4911972,24.1840021 40.0672001,23.768 C40.6432029,23.3519979 41.3151962,23.144 42.0832001,23.144 C42.1952006,23.144 42.3151994,23.148 42.4432001,23.156 C42.5712007,23.164 42.6831996,23.1839998 42.7792001,23.216 L42.7792001,25.856 C42.5871991,25.8079998 42.4232007,25.7760001 42.2872001,25.76 C42.1511994,25.7439999 42.0192007,25.736 41.8912001,25.736 C41.2351968,25.736 40.7072021,25.8559988 40.3072001,26.096 C39.9071981,26.3360012 39.5952012,26.6239983 39.3712001,26.96 C39.1471989,27.2960017 38.9952005,27.6399982 38.9152001,27.992 C38.8351997,28.3440018 38.7952001,28.623999 38.7952001,28.832 L38.7952001,35 L35.9152001,35 L35.9152001,23.48 Z M42.9904001,29.192 C42.9904001,28.2799954 43.1543985,27.4520037 43.4824001,26.708 C43.8104017,25.9639963 44.2543973,25.3280026 44.8144001,24.8 C45.3744029,24.2719974 46.0383963,23.8640014 46.8064001,23.576 C47.5744039,23.2879986 48.3903958,23.144 49.2544001,23.144 C50.1184044,23.144 50.9343963,23.2879986 51.7024001,23.576 C52.4704039,23.8640014 53.1343973,24.2719974 53.6944001,24.8 C54.2544029,25.3280026 54.6983985,25.9639963 55.0264001,26.708 C55.3544017,27.4520037 55.5184001,28.2799954 55.5184001,29.192 C55.5184001,30.1040046 55.3544017,30.9359962 55.0264001,31.688 C54.6983985,32.4400038 54.2544029,33.0839973 53.6944001,33.62 C53.1343973,34.1560027 52.4704039,34.5759985 51.7024001,34.88 C50.9343963,35.1840015 50.1184044,35.336 49.2544001,35.336 C48.3903958,35.336 47.5744039,35.1840015 46.8064001,34.88 C46.0383963,34.5759985 45.3744029,34.1560027 44.8144001,33.62 C44.2543973,33.0839973 43.8104017,32.4400038 43.4824001,31.688 C43.1543985,30.9359962 42.9904001,30.1040046 42.9904001,29.192 Z M45.9184001,29.192 C45.9184001,29.6400022 45.9863994,30.0879978 46.1224001,30.536 C46.2584008,30.9840022 46.4623987,31.3839982 46.7344001,31.736 C47.0064015,32.0880018 47.350398,32.3759989 47.7664001,32.6 C48.1824022,32.8240011 48.6783972,32.936 49.2544001,32.936 C49.830403,32.936 50.326398,32.8240011 50.7424001,32.6 C51.1584022,32.3759989 51.5023987,32.0880018 51.7744001,31.736 C52.0464015,31.3839982 52.2503994,30.9840022 52.3864001,30.536 C52.5224008,30.0879978 52.5904001,29.6400022 52.5904001,29.192 C52.5904001,28.7439978 52.5224008,28.3000022 52.3864001,27.86 C52.2503994,27.4199978 52.0464015,27.0240018 51.7744001,26.672 C51.5023987,26.3199982 51.1584022,26.0360011 50.7424001,25.82 C50.326398,25.6039989 49.830403,25.496 49.2544001,25.496 C48.6783972,25.496 48.1824022,25.6039989 47.7664001,25.82 C47.350398,26.0360011 47.0064015,26.3199982 46.7344001,26.672 C46.4623987,27.0240018 46.2584008,27.4199978 46.1224001,27.86 C45.9863994,28.3000022 45.9184001,28.7439978 45.9184001,29.192 Z M57.7456002,23.48 L60.4816002,23.48 L60.4816002,25.328 L60.5296002,25.328 C60.7856014,24.7519971 61.229597,24.2440022 61.8616002,23.804 C62.4936033,23.3639978 63.2415958,23.144 64.1056002,23.144 C64.8576039,23.144 65.5015975,23.2759987 66.0376002,23.54 C66.5736028,23.8040013 67.0135984,24.1519978 67.3576002,24.584 C67.7016019,25.0160022 67.9535994,25.5119972 68.1136002,26.072 C68.273601,26.6320028 68.3536002,27.207997 68.3536002,27.8 L68.3536002,35 L65.4736002,35 L65.4736002,28.616 C65.4736002,28.2799983 65.4496004,27.9280018 65.4016002,27.56 C65.3535999,27.1919982 65.249601,26.8600015 65.0896002,26.564 C64.9295994,26.2679985 64.7096016,26.024001 64.4296002,25.832 C64.1495988,25.639999 63.7776025,25.544 63.3136002,25.544 C62.8495978,25.544 62.4496018,25.6359991 62.1136002,25.82 C61.7775985,26.0040009 61.5016012,26.2399986 61.2856002,26.528 C61.0695991,26.8160014 60.9056007,27.1479981 60.7936002,27.524 C60.6815996,27.9000019 60.6256002,28.2799981 60.6256002,28.664 L60.6256002,35 L57.7456002,35 L57.7456002,23.48 Z M69.5008002,25.784 L69.5008002,23.48 L71.5168002,23.48 L71.5168002,20.144 L74.3488002,20.144 L74.3488002,23.48 L77.2288002,23.48 L77.2288002,25.784 L74.3488002,25.784 L74.3488002,31.136 C74.3488002,31.6480026 74.4407993,32.0719983 74.6248002,32.408 C74.8088011,32.7440017 75.220797,32.912 75.8608002,32.912 C76.0528012,32.912 76.2607991,32.8920002 76.4848002,32.852 C76.7088013,32.8119998 76.9087993,32.7520004 77.0848002,32.672 L77.1808002,34.928 C76.9247989,35.0240005 76.620802,35.0999997 76.2688002,35.156 C75.9167984,35.2120003 75.5808018,35.24 75.2608002,35.24 C74.4927964,35.24 73.8688026,35.1320011 73.3888002,34.916 C72.9087978,34.6999989 72.5288016,34.4040019 72.2488002,34.028 C71.9687988,33.6519981 71.7768007,33.2200024 71.6728002,32.732 C71.5687997,32.2439976 71.5168002,31.7200028 71.5168002,31.16 L71.5168002,25.784 L69.5008002,25.784 Z M83.7520003,30.32 L77.9920003,30.32 L77.9920003,27.872 L83.7520003,27.872 L83.7520003,30.32 Z M86.0272003,18.008 L97.2832003,18.008 L97.2832003,20.648 L89.0512003,20.648 L89.0512003,24.968 L96.8512003,24.968 L96.8512003,27.512 L89.0512003,27.512 L89.0512003,32.312 L97.7152003,32.312 L97.7152003,35 L86.0272003,35 L86.0272003,18.008 Z M99.9664004,23.48 L102.7024,23.48 L102.7024,25.328 L102.7504,25.328 C103.006402,24.7519971 103.450397,24.2440022 104.0824,23.804 C104.714404,23.3639978 105.462396,23.144 106.3264,23.144 C107.078404,23.144 107.722398,23.2759987 108.2584,23.54 C108.794403,23.8040013 109.234399,24.1519978 109.5784,24.584 C109.922402,25.0160022 110.1744,25.5119972 110.3344,26.072 C110.494401,26.6320028 110.5744,27.207997 110.5744,27.8 L110.5744,35 L107.6944,35 L107.6944,28.616 C107.6944,28.2799983 107.670401,27.9280018 107.6224,27.56 C107.5744,27.1919982 107.470401,26.8600015 107.3104,26.564 C107.1504,26.2679985 106.930402,26.024001 106.6504,25.832 C106.370399,25.639999 105.998403,25.544 105.5344,25.544 C105.070398,25.544 104.670402,25.6359991 104.3344,25.82 C103.998399,26.0040009 103.722401,26.2399986 103.5064,26.528 C103.290399,26.8160014 103.126401,27.1479981 103.0144,27.524 C102.9024,27.9000019 102.8464,28.2799981 102.8464,28.664 L102.8464,35 L99.9664004,35 L99.9664004,23.48 Z M125.0896,35 L122.3536,35 L122.3536,33.272 L122.3056,33.272 C121.905598,33.9440034 121.349604,34.4559982 120.6376,34.808 C119.925597,35.1600018 119.161604,35.336 118.3456,35.336 C117.465596,35.336 116.677604,35.1720016 115.9816,34.844 C115.285597,34.5159984 114.693603,34.0760028 114.2056,33.524 C113.717598,32.9719972 113.341602,32.3240037 113.0776,31.58 C112.813599,30.8359963 112.6816,30.0400042 112.6816,29.192 C112.6816,28.3439958 112.817599,27.5520037 113.0896,26.816 C113.361602,26.0799963 113.745598,25.4400027 114.2416,24.896 C114.737603,24.3519973 115.329597,23.9240016 116.0176,23.612 C116.705604,23.2999984 117.457596,23.144 118.2736,23.144 C118.801603,23.144 119.273598,23.2039994 119.6896,23.324 C120.105602,23.4440006 120.469599,23.5919991 120.7816,23.768 C121.093602,23.9440009 121.361599,24.135999 121.5856,24.344 C121.809602,24.552001 121.9936,24.751999 122.1376,24.944 L122.2096,24.944 L122.2096,16.856 L125.0896,16.856 L125.0896,35 Z M115.6096,29.192 C115.6096,29.6400022 115.6776,30.0879978 115.8136,30.536 C115.949601,30.9840022 116.153599,31.3839982 116.4256,31.736 C116.697602,32.0880018 117.041598,32.3759989 117.4576,32.6 C117.873602,32.8240011 118.361598,32.936 118.9216,32.936 C119.449603,32.936 119.921598,32.8280011 120.3376,32.612 C120.753602,32.3959989 121.109599,32.1120018 121.4056,31.76 C121.701602,31.4079982 121.9256,31.0120022 122.0776,30.572 C122.229601,30.1319978 122.3056,29.6880022 122.3056,29.24 C122.3056,28.7919978 122.229601,28.3440022 122.0776,27.896 C121.9256,27.4479978 121.701602,27.0480018 121.4056,26.696 C121.109599,26.3439982 120.753602,26.0560011 120.3376,25.832 C119.921598,25.6079989 119.449603,25.496 118.9216,25.496 C118.361598,25.496 117.873602,25.6039989 117.4576,25.82 C117.041598,26.0360011 116.697602,26.3199982 116.4256,26.672 C116.153599,27.0240018 115.949601,27.4199978 115.8136,27.86 C115.6776,28.3000022 115.6096,28.7439978 115.6096,29.192 Z" id="Front-End"></path>
            <path d="M158.639271,21.9753075 C157.745968,20.444738 156.53426,19.2329841 155.003827,18.3397722 C153.473166,17.4465148 151.802141,17 149.989567,17 C148.177221,17 146.505649,17.4466515 144.975308,18.3397722 C143.444738,19.2329385 142.233075,20.444738 141.339772,21.9753075 C140.446606,23.5058314 140,25.1771754 140,26.9892938 C140,29.1660592 140.63508,31.1234624 141.905558,32.8620046 C143.1759,34.6006834 144.816993,35.8037813 146.828702,36.4714351 C147.06287,36.5148975 147.236219,36.484328 147.348929,36.3805011 C147.461686,36.2765376 147.517995,36.1463326 147.517995,35.9904328 C147.517995,35.9644191 147.515763,35.7303872 147.511435,35.2880638 C147.50697,34.8457403 147.504875,34.4598633 147.504875,34.130615 L147.205695,34.182369 C147.014943,34.2173121 146.774305,34.2321185 146.483781,34.2279271 C146.193394,34.2238724 145.891936,34.1934396 145.579818,34.1368565 C145.267563,34.0807745 144.97713,33.9507062 144.708292,33.7469248 C144.43959,33.5431435 144.248838,33.2764009 144.136082,32.9471071 L144.006014,32.6477904 C143.919317,32.4485194 143.782825,32.2271526 143.596355,31.9845103 C143.409886,31.7416401 143.221321,31.5769932 143.030569,31.4902961 L142.939499,31.4251025 C142.878815,31.3817768 142.822506,31.3295216 142.770433,31.2688838 C142.718405,31.208246 142.679453,31.1475626 142.65344,31.0867882 C142.62738,31.0259681 142.648975,30.976082 142.718451,30.9369476 C142.787927,30.8978132 142.913485,30.8788155 143.095672,30.8788155 L143.355718,30.9176765 C143.529157,30.9524374 143.74369,31.0562642 143.99959,31.229795 C144.255353,31.4031891 144.465604,31.6286105 144.630387,31.9059681 C144.829932,32.2615945 145.070342,32.532574 145.352301,32.7190433 C145.634032,32.9055125 145.918087,32.9985877 146.204191,32.9985877 C146.490296,32.9985877 146.737403,32.9769021 146.945604,32.9337585 C147.153576,32.8903872 147.348702,32.8251936 147.530888,32.7385421 C147.608929,32.1573121 147.821412,31.7107973 148.168155,31.3986788 C147.673941,31.3467426 147.229613,31.2685194 146.834943,31.1645103 C146.440501,31.0603645 146.032893,30.891344 145.612392,30.6569932 C145.191663,30.4229613 144.842642,30.1323462 144.565239,29.7856492 C144.28779,29.4387699 144.060091,28.9833713 143.88246,28.4198633 C143.704738,27.8561276 143.615854,27.2058314 143.615854,26.4687927 C143.615854,25.4193622 143.958451,24.5263326 144.643508,23.7892027 C144.322597,23.0002278 144.352893,22.1157631 144.734487,21.1358998 C144.985968,21.0577677 145.358907,21.1164009 145.853121,21.3114351 C146.347426,21.5065604 146.709339,21.673713 146.939226,21.8123007 C147.169112,21.9508428 147.353303,22.068246 147.492073,22.1634624 C148.298679,21.9380866 149.131071,21.8253759 149.989476,21.8253759 C150.847882,21.8253759 151.680456,21.9380866 152.487107,22.1634624 L152.981367,21.8514351 C153.319362,21.6432346 153.718497,21.4524374 154.177813,21.2789977 C154.637403,21.1056492 154.988838,21.0579043 155.231754,21.1360364 C155.621822,22.1159453 155.656583,23.0003645 155.335581,23.7893394 C156.020592,24.5264692 156.363326,25.4197267 156.363326,26.4689294 C156.363326,27.2059681 156.274123,27.8583144 156.096674,28.4263781 C155.918998,28.994533 155.689339,29.4494761 155.407608,29.792164 C155.125558,30.1348064 154.774305,30.4231435 154.353804,30.6571298 C153.933212,30.8912984 153.525467,31.0603189 153.131025,31.1644647 C152.736401,31.2686105 152.292073,31.3468793 151.797859,31.3989066 C152.24861,31.7889749 152.474032,32.4046925 152.474032,33.2457859 L152.474032,35.9900683 C152.474032,36.1459681 152.528246,36.2761276 152.636765,36.3801367 C152.745148,36.4839636 152.91631,36.514533 153.150478,36.4710251 C155.16246,35.8034624 156.803554,34.6003189 158.07385,32.8616401 C159.344009,31.1230979 159.979317,29.1656948 159.979317,26.9889294 C159.978861,25.1770387 159.532027,23.5058314 158.639271,21.9753075" id="icon_github"></path>
        </g>
    </g>
</svg>