<?xml version="1.0" encoding="UTF-8"?>
<svg width="50px" height="50px" viewBox="0 0 50 50" version="1.1" xmlns="http://www.w3.org/2000/svg" xmlns:xlink="http://www.w3.org/1999/xlink">
    <!-- Generator: Sketch 41.2 (35397) - http://www.bohemiancoding.com/sketch -->
    <title>icon_medium copy 2</title>
    <desc>Created with Sketch.</desc>
    <defs></defs>
    <g id="Page-1" stroke="none" stroke-width="1" fill="none" fill-rule="evenodd">
        <g id="icon_medium-copy-2">
            <rect id="Rectangle-7" fill-opacity="0.01" fill="#FFFFFF" x="0" y="0" width="50" height="50"></rect>
            <circle id="Oval-2" stroke="#FFFFFF" cx="25.5" cy="25.5" r="22.5"></circle>
            <path d="M34.9673469,20.1469388 C34.9673469,20.1693878 34.0122449,21.7306122 32.1040816,24.8285714 C30.1959184,27.9285714 29.077551,29.7408163 28.7510204,30.2693878 L24.3979592,23.1938776 L28.0142857,17.3122449 C28.1408163,17.1040816 28.3346939,17 28.5938776,17 C28.6979592,17 28.7938776,17.022449 28.8836735,17.0673469 L34.922449,20.0816327 C34.9510204,20.0938776 34.9673469,20.1163265 34.9673469,20.1469388 L34.9673469,20.1469388 Z M35,21.4857143 L35,33.2489796 C35,33.4346939 34.9469388,33.5857143 34.8428571,33.7 C34.7387755,33.8163265 34.5979592,33.8734694 34.4183673,33.8734694 C34.2387755,33.8734694 34.0653061,33.8244898 33.8938776,33.7285714 L28.9734694,31.2734694 L35,21.4857143 Z M22.377551,21.2857143 L28.3367347,30.9510204 L22.377551,27.9816327 L22.377551,21.2857143 Z M21.6632653,20.1571429 L21.6632653,33.2489796 C21.6632653,33.4346939 21.6163265,33.5938776 21.5244898,33.722449 C21.4326531,33.8510204 21.2959184,33.9183673 21.1163265,33.9183673 C20.9897959,33.9183673 20.8673469,33.8877551 20.7489796,33.8285714 L15.5571429,31.2285714 C15.4,31.155102 15.2693878,31.0285714 15.1612245,30.855102 C15.0530612,30.6816327 15,30.5081633 15,30.3367347 L15,17.6122449 C15,17.4632653 15.0367347,17.3367347 15.1122449,17.2326531 C15.1857143,17.1285714 15.2938776,17.0755102 15.4367347,17.0755102 C15.5408163,17.0755102 15.7040816,17.1306122 15.9285714,17.2428571 L21.6326531,20.1 C21.6510204,20.1244898 21.6632653,20.1428571 21.6632653,20.1571429 L21.6632653,20.1571429 Z" id="icon_medium-copy" fill="#FFFFFF"></path>
        </g>
    </g>
</svg>