<?xml version="1.0" encoding="UTF-8"?>
<svg width="1441px" height="2297px" viewBox="0 0 1441 2297" version="1.1" xmlns="http://www.w3.org/2000/svg" xmlns:xlink="http://www.w3.org/1999/xlink">
    <!-- Generator: Sketch 52.6 (67491) - http://www.bohemiancoding.com/sketch -->
    <title>bg_wave-50opac</title>
    <desc>Created with Sketch.</desc>
    <defs>
        <filter x="-10.5%" y="-14.6%" width="121.0%" height="129.1%" filterUnits="objectBoundingBox" id="filter-1">
            <feGaussianBlur stdDeviation="40" in="SourceGraphic"></feGaussianBlur>
        </filter>
        <radialGradient cx="32.3623442%" cy="80.6847734%" fx="32.3623442%" fy="80.6847734%" r="71.1073344%" gradientTransform="translate(0.323623,0.806848),scale(0.401311,1.000000),rotate(-78.810743),scale(1.000000,2.179798),translate(-0.323623,-0.806848)" id="radialGradient-2">
            <stop stop-color="#D0D5DB" offset="0%"></stop>
            <stop stop-color="#D0D5DB" stop-opacity="0" offset="100%"></stop>
        </radialGradient>
        <radialGradient cx="33.4726477%" cy="78.8403147%" fx="33.4726477%" fy="78.8403147%" r="73.1207588%" gradientTransform="translate(0.334726,0.788403),scale(0.589085,1.000000),rotate(-90.000000),scale(1.000000,2.138239),translate(-0.334726,-0.788403)" id="radialGradient-3">
            <stop stop-color="#D0D5DB" offset="0%"></stop>
            <stop stop-color="#D0D5DB" stop-opacity="0" offset="100%"></stop>
        </radialGradient>
    </defs>
    <g id="Code-Peter-v2" stroke="none" stroke-width="1" fill="none" fill-rule="evenodd">
        <g id="bg_wave-50opac" transform="translate(0.000000, 30.000000)">
            <g id="Group-8" opacity="0.5">
                <path d="M1250,887.159172 C1216.814,811.425907 1313.704,794.006634 1226.799,774.724677 C1139.894,755.44172 1046.161,744.946009 975.788,694.610784 C911.553,648.666183 877.624,577.090614 840.785,510.658434 C803.947,444.226253 756.549,375.885671 680.682,348.390288 C622.547,327.321891 555.029,333.383991 498.97,308.063926 C441.265,281.999095 406.583,228.065997 363.917,184.082781 C273.734,91.1169162 255.946,58.2654796 120,64.4955272 C201.073955,228.114974 258.765207,327.949799 293.073757,364 C405.431874,482.061904 547.740621,610.061904 720,748 L1250,887.159172 Z" id="bg_wave-copy" fill-opacity="0.5" fill="#D0D5DB" filter="url(#filter-1)"></path>
                <path d="M0.505861979,0.808139444 L0.505861979,64 L254.841398,109.070356 C293.083203,52.5930249 262.171991,20.1714317 162.107764,11.8055768 C62.0435362,3.43972188 8.17623563,-0.226090576 0.505861979,0.808139444 Z" id="Path-2" fill-opacity="0.7" fill="url(#radialGradient-2)"></path>
                <path d="M1440.8741,952.321293 L1440.8741,815 C1407.67483,779.933226 1371.55739,758.833199 1332.52177,751.699919 C1293.48615,744.56664 1214.44551,750.62841 1095.39986,769.885229 L1095.39986,846.514039 L1440.8741,952.321293 Z" id="Path-3" fill-opacity="0.9" fill="url(#radialGradient-3)"></path>
            </g>
            <path d="M1441,907.159172 C1407.814,831.425907 1314.704,794.006634 1227.799,774.724677 C1140.894,755.44172 1047.161,744.946009 976.788,694.610784 C912.553,648.666183 878.624,577.090614 841.785,510.658434 C804.947,444.226253 757.549,375.885671 681.682,348.390288 C623.547,327.321891 556.029,333.383991 499.97,308.063926 C442.265,281.999095 407.583,228.065997 364.917,184.082781 C274.734,91.1169162 136.946,38.2654796 1,44.4955272 L1,2266.08513 L1441,2266.08513 L1441,907.159172 Z" id="bg_wave" fill="#FFFFFF"></path>
        </g>
    </g>
</svg>