<?xml version="1.0" encoding="UTF-8"?>
<svg width="50px" height="50px" viewBox="0 0 50 50" version="1.1" xmlns="http://www.w3.org/2000/svg" xmlns:xlink="http://www.w3.org/1999/xlink">
    <!-- Generator: Sketch 41.2 (35397) - http://www.bohemiancoding.com/sketch -->
    <title>icon_instagram copy 2</title>
    <desc>Created with Sketch.</desc>
    <defs></defs>
    <g id="Page-1" stroke="none" stroke-width="1" fill="none" fill-rule="evenodd">
        <g id="icon_instagram-copy-2">
            <rect id="Rectangle-7" fill-opacity="0.01" fill="#FFFFFF" x="0" y="0" width="50" height="50"></rect>
            <circle id="Oval-2" stroke="#FFFFFF" cx="25.5" cy="24.5" r="22.5"></circle>
            <g id="icon_instagram-copy" transform="translate(15.000000, 15.000000)" fill="#FFFFFF">
                <path d="M18.0741269,14.294468 C18.0191597,15.4087701 17.6599475,16.413312 16.7317199,17.1410954 C16.1594223,17.5898274 15.4933829,17.8189092 14.7819168,17.8882178 C14.0214354,17.9623286 13.2553961,18.0045541 12.4912823,18.0127742 C10.8213479,18.0307287 9.15071335,18.0405496 7.48117287,18.0094862 C6.5732954,17.99257 5.65071335,17.9693806 4.76371116,17.8003923 C3.10957549,17.4852156 2.09101969,16.3392444 1.9441488,14.6818087 C1.843186,13.5425001 1.81627133,12.3941926 1.81198249,11.2496491 C1.80528665,9.46242204 1.83228884,7.6746758 1.87539606,5.88788137 C1.88673085,5.41751747 1.96231072,4.93668373 2.09027571,4.48323597 C2.48988184,3.06751504 3.47736543,2.25212243 4.92108534,2.03009267 C5.7523326,1.90224818 6.60375492,1.87066562 7.44708096,1.85811912 C9.13867834,1.83298286 10.831326,1.82904585 12.5227484,1.85946029 C13.4160963,1.87551116 14.3233173,1.90142617 15.1969278,2.06535266 C16.849488,2.37542423 17.879116,3.51944857 18.0253304,5.17748997 C18.1315011,6.38134813 18.1282626,7.59481085 18.1683939,8.80412025 C18.179116,9.12825255 18.1700131,9.45299054 18.1700131,9.77746895 L18.2034923,9.77833422 C18.163186,11.2838275 18.1483063,12.7905754 18.0741269,14.294468 M19.9531204,7.17895932 C19.9390722,6.26739131 19.8848928,5.34600243 19.7295317,4.4492739 C19.4683501,2.94161742 18.651895,1.75744428 17.3172341,0.956718098 C16.3114573,0.353274786 15.1895755,0.149199499 14.0330766,0.117184296 C12.6849803,0.0798476468 11.3362713,0.0668252466 9.98778118,0.0432897461 C9.98769365,0.0525049329 9.98756236,0.0617633835 9.98743107,0.0710218341 C9.05403939,0.0710218341 8.11955361,0.0427705806 7.18760613,0.078982371 C6.26498031,0.114848051 5.32861269,0.13254294 4.42708096,0.30512219 C2.4416105,0.685194566 1.08204814,1.84509672 0.41478337,3.75623128 C0.0668183807,4.75289916 0.0324201313,5.79300388 0.0212166302,6.82925813 C3.50109408e-05,8.78261815 -0.0120875274,10.7366271 0.0181094092,12.6896843 C0.0322013129,13.6012523 0.0708446389,14.5268378 0.243448578,15.4186775 C0.625374179,17.392285 1.80397374,18.7397356 3.74659956,19.3995084 C4.748,19.739605 5.7929453,19.7741295 6.8339081,19.7852051 C8.81710284,19.8062745 10.8009978,19.8181721 12.7838862,19.7881903 C13.7059869,19.7742593 14.6427484,19.7366631 15.5443239,19.5640406 C17.5299256,19.1838817 18.8892254,18.0235902 19.556709,16.1124123 C19.9023545,15.1227532 19.938547,14.0899168 19.9500131,13.0609741 C19.9718074,11.1004323 19.9833173,9.13919829 19.9531204,7.17895932" id="Fill-1"></path>
                <path d="M9.98579431,13.2232003 C8.16181182,13.2233734 6.65940481,11.7381276 6.65927352,9.93471984 C6.659186,8.13044683 8.15765427,6.64887842 9.98540044,6.64619606 C11.8072385,6.64347044 13.3117024,8.13057662 13.311965,9.9342872 C13.3122276,11.737868 11.8102582,13.2230273 9.98579431,13.2232003 M9.98776368,4.86632383 C7.16846389,4.86628057 4.86194311,7.11526205 4.85879212,9.86740138 C4.85550985,12.7312911 7.1113523,15.0017314 9.96154923,15.0031591 C12.8091204,15.0046301 15.1115274,12.7592395 15.1124464,9.97984397 C15.1134092,7.12214099 12.852709,4.86641036 9.98776368,4.86632383" id="Fill-4"></path>
                <path d="M15.3244858,3.48208164 C14.6514004,3.47996171 14.1114442,4.00384292 14.1077243,4.66266388 C14.1040481,5.31356756 14.6538074,5.85778275 15.3168271,5.85955657 C15.9702188,5.86128712 16.5084245,5.33048371 16.5127133,4.68001266 C16.5171772,4.00423229 16.0013786,3.48420156 15.3244858,3.48208164" id="Fill-6"></path>
            </g>
        </g>
    </g>
</svg>