<?xml version="1.0" encoding="UTF-8"?>
<svg width="50px" height="50px" viewBox="0 0 50 50" version="1.1" xmlns="http://www.w3.org/2000/svg" xmlns:xlink="http://www.w3.org/1999/xlink">
    <!-- Generator: Sketch 41.2 (35397) - http://www.bohemiancoding.com/sketch -->
    <title>icon_linkedin</title>
    <desc>Created with Sketch.</desc>
    <defs></defs>
    <g id="Page-1" stroke="none" stroke-width="1" fill="none" fill-rule="evenodd">
        <g id="icon_linkedin" fill="#FFFFFF">
            <rect id="Rectangle-7" fill-opacity="0.01" x="0" y="0" width="50" height="50"></rect>
            <path d="M19.4322139,21.2050303 C20.3638105,21.2010724 21.1876648,20.4869725 21.1869816,19.4582613 C21.1862983,18.4307735 20.3512597,17.7205954 19.452892,17.7188684 C18.4872034,17.7169974 17.704094,18.4888096 17.6992032,19.4508134 C17.6942764,20.4124214 18.4731782,21.2008565 19.4322139,21.2050303 M17.9351141,27.2693206 C17.9351141,28.813089 17.9366605,30.3568933 17.9323451,31.9006617 C17.9319495,32.0347961 17.9726226,32.0708842 18.103848,32.0700927 C18.9911754,32.0649115 19.8785387,32.0650554 20.7658301,32.0699847 C20.894754,32.0707043 20.940246,32.038466 20.9400662,31.9021729 C20.9366138,28.8146001 20.9366858,25.7270274 20.9397785,22.6394187 C20.9399224,22.505824 20.8969118,22.4683686 20.7660459,22.4690882 C19.8831059,22.4740535 19.0001299,22.4716068 18.117154,22.4717507 C17.9356895,22.4717507 17.9351861,22.4721465 17.9351861,22.6510403 C17.9350422,24.1904911 17.9350782,25.7299058 17.9351141,27.2693206 M25.6469937,23.7889875 C25.6434694,23.7198695 25.6395496,23.6780244 25.6394776,23.6361794 C25.6389742,23.3037579 25.6331483,22.9711565 25.6421388,22.6389509 C25.645771,22.5046727 25.6025446,22.4681527 25.4710314,22.4689803 C24.6272541,22.4742694 23.7834768,22.4715349 22.9396995,22.4718227 C22.7672974,22.4718587 22.7649959,22.4738376 22.7649959,22.6490974 C22.7647801,25.7328562 22.7656072,28.816651 22.7622627,31.9004098 C22.7621189,32.0343283 22.8034393,32.0708842 22.9346648,32.0700927 C23.8133972,32.0649115 24.6921656,32.0674661 25.570898,32.0673582 C25.7646255,32.0673582 25.7649492,32.0670703 25.7649852,31.8722373 C25.7650571,30.3413139 25.7581883,28.8103185 25.7699839,27.279431 C25.7728608,26.9105256 25.8099377,26.5366908 25.8804952,26.1746936 C25.9759025,25.6854342 26.2124249,25.2712297 26.6907919,25.048404 C27.0449461,24.8834346 27.4197065,24.8522757 27.8044643,24.8979346 C28.3160244,24.9585973 28.6661148,25.2278015 28.8599142,25.7037842 C29.002252,26.0534042 29.0533541,26.4227774 29.0551522,26.7941295 C29.0633875,28.4956353 29.0617692,30.197177 29.0590361,31.8986828 C29.0588203,32.0303705 29.0962927,32.0709562 29.2296759,32.0701646 C30.1258859,32.0648396 31.0221678,32.0646237 31.9183778,32.0703445 C32.0547818,32.0712081 32.0875792,32.0250814 32.0870038,31.8967399 C32.0785887,30.0116629 32.0804947,28.1265499 32.0660739,26.2415449 C32.0609673,25.5714128 31.9712061,24.9094123 31.7534199,24.2700794 C31.4752895,23.4536156 30.971785,22.8369143 30.1553388,22.5211876 C29.4022218,22.2299275 28.619472,22.1649112 27.823704,22.3040828 C27.0640419,22.4369579 26.4286646,22.7939538 25.9344023,23.3902185 C25.8359742,23.5089173 25.7532256,23.640569 25.6469937,23.7889875 M34.9970161,24.9994349 C34.9970161,27.8169039 34.9956855,30.634337 34.9988142,33.45177 C34.9991738,33.779622 34.94782,34.0884045 34.7559625,34.3603072 C34.4638429,34.7742959 34.0633337,34.9939913 33.55519,34.9974454 C32.8424943,35.0023027 32.1297267,34.9987407 31.4169591,34.9987407 C26.4364684,34.9987407 21.4559776,34.9994963 16.4754509,34.9977692 C15.8515095,34.9975533 15.3961942,34.70856 15.1275937,34.1470883 C15.0596614,34.0051462 15.0413208,33.8380899 15.0096742,33.6806764 C14.9952174,33.6088598 15.00223,33.5324018 15.00223,33.4580666 C15.0019783,27.8144573 15.0028054,22.170812 15.0000004,16.5271667 C14.9998206,16.1700628 15.065703,15.8402319 15.2926954,15.5568514 C15.5737387,15.2059721 15.9402639,15.0197024 16.3902928,15.0007408 C16.4165091,14.9996254 16.4427614,15.0001291 16.4690137,15.0001291 C22.1534973,15.0001291 27.8380169,14.9995175 33.5225006,15.0009567 C34.1327764,15.0011366 34.5921914,15.2700529 34.8622304,15.8213062 C34.9368516,15.9736466 34.9581411,16.1543034 34.9899675,16.3245979 C35.0073732,16.4178227 34.9968363,16.5165165 34.9968722,16.6127277 C34.997088,19.4083208 34.9970521,22.2038778 34.9970161,24.9994349" id="icon_linkedin-copy"></path>
        </g>
    </g>
</svg>