<?xml version="1.0" encoding="UTF-8"?>
<svg width="236px" height="236px" viewBox="0 0 236 236" version="1.1" xmlns="http://www.w3.org/2000/svg" xmlns:xlink="http://www.w3.org/1999/xlink">
    <title>haiku-project_illustration_re</title>
    <g id="Page-1" stroke="none" stroke-width="1" fill="none" fill-rule="evenodd">
        <g id="haiku-project_illustration_re">
            <rect id="Rectangle" fill="#BD362C" x="0" y="0" width="236" height="236"></rect>
            <g id="haiku-project_illustration_home-mobile_01" transform="translate(46.000000, 72.000000)">
                <g id="Rectangle_99" transform="translate(73.232000, 12.807000) rotate(-90.000000) translate(-73.232000, -12.807000) translate(60.732000, -42.193000)">
                    <rect id="Rectangle" fill="#FFFFFF" fill-rule="nonzero" x="0" y="0" width="24.547" height="109.285" rx="6"></rect>
                    <rect id="Rectangle" stroke="#000000" stroke-width="2.5" x="0.75" y="0.75" width="23.047" height="107.785" rx="5.25"></rect>
                </g>
                <g id="Rectangle_100" transform="translate(72.985000, 46.559000) rotate(-90.000000) translate(-72.985000, -46.559000) translate(60.485000, -25.441000)">
                    <rect id="Rectangle" fill="#FFFFFF" fill-rule="nonzero" x="0" y="0" width="24.547" height="143.999" rx="6"></rect>
                    <rect id="Rectangle" stroke="#000000" stroke-width="2.5" x="0.75" y="0.75" width="23.047" height="142.499" rx="5.25"></rect>
                </g>
                <g id="Rectangle_101" transform="translate(73.342000, 80.310000) rotate(-90.000000) translate(-73.342000, -80.310000) translate(60.842000, 25.310000)">
                    <rect id="Rectangle" fill="#FFFFFF" fill-rule="nonzero" x="0" y="0" width="24.547" height="109.285" rx="6"></rect>
                    <rect id="Rectangle" stroke="#000000" stroke-width="2.5" x="0.75" y="0.75" width="23.047" height="107.785" rx="5.25"></rect>
                </g>
                <g id="Group_583" transform="translate(30.506000, 75.628000)">
                    <g id="Ellipse_10">
                        <circle id="Oval" cx="4.909" cy="4.909" r="4.909"></circle>
                        <circle id="Oval" stroke="#D64835" stroke-width="2.5" cx="4.909" cy="4.909" r="4.159"></circle>
                    </g>
                    <g id="Ellipse_11" transform="translate(19.024000, 0.000000)">
                        <circle id="Oval" cx="4.909" cy="4.909" r="4.909"></circle>
                        <circle id="Oval" stroke="#D64835" stroke-width="2.5" cx="4.909" cy="4.909" r="4.159"></circle>
                    </g>
                    <g id="Ellipse_12" transform="translate(37.434000, 0.000000)">
                        <circle id="Oval" cx="4.909" cy="4.909" r="4.909"></circle>
                        <circle id="Oval" stroke="#D64835" stroke-width="2.5" cx="4.909" cy="4.909" r="4.159"></circle>
                    </g>
                    <g id="Ellipse_13" transform="translate(56.458000, 0.000000)">
                        <circle id="Oval" cx="4.909" cy="4.909" r="4.909"></circle>
                        <circle id="Oval" stroke="#D64835" stroke-width="2.5" cx="4.909" cy="4.909" r="4.159"></circle>
                    </g>
                    <g id="Ellipse_14" transform="translate(74.868000, 0.000000)">
                        <circle id="Oval" cx="4.909" cy="4.909" r="4.909"></circle>
                        <circle id="Oval" stroke="#D64835" stroke-width="2.5" cx="4.909" cy="4.909" r="4.159"></circle>
                    </g>
                </g>
                <g id="Group_581" transform="translate(30.506000, 8.124000)">
                    <g id="Ellipse_10-2">
                        <circle id="Oval" cx="4.909" cy="4.909" r="4.909"></circle>
                        <circle id="Oval" stroke="#D64835" stroke-width="2.5" cx="4.909" cy="4.909" r="4.159"></circle>
                    </g>
                    <g id="Ellipse_11-2" transform="translate(19.024000, 0.000000)">
                        <circle id="Oval" cx="4.909" cy="4.909" r="4.909"></circle>
                        <circle id="Oval" stroke="#D64835" stroke-width="2.5" cx="4.909" cy="4.909" r="4.159"></circle>
                    </g>
                    <g id="Ellipse_12-2" transform="translate(37.434000, 0.000000)">
                        <circle id="Oval" cx="4.909" cy="4.909" r="4.909"></circle>
                        <circle id="Oval" stroke="#D64835" stroke-width="2.5" cx="4.909" cy="4.909" r="4.159"></circle>
                    </g>
                    <g id="Ellipse_13-2" transform="translate(56.458000, 0.000000)">
                        <circle id="Oval" cx="4.909" cy="4.909" r="4.909"></circle>
                        <circle id="Oval" stroke="#D64835" stroke-width="2.5" cx="4.909" cy="4.909" r="4.159"></circle>
                    </g>
                    <g id="Ellipse_14-2" transform="translate(74.868000, 0.000000)">
                        <circle id="Oval" cx="4.909" cy="4.909" r="4.909"></circle>
                        <circle id="Oval" stroke="#D64835" stroke-width="2.5" cx="4.909" cy="4.909" r="4.159"></circle>
                    </g>
                </g>
                <g id="Group_582" transform="translate(12.095000, 41.876000)">
                    <g id="Ellipse_10-3" transform="translate(18.410000, 0.000000)">
                        <circle id="Oval" cx="4.909" cy="4.909" r="4.909"></circle>
                        <circle id="Oval" stroke="#D64835" stroke-width="2.5" cx="4.909" cy="4.909" r="4.159"></circle>
                    </g>
                    <g id="Ellipse_16">
                        <circle id="Oval" cx="4.909" cy="4.909" r="4.909"></circle>
                        <circle id="Oval" stroke="#D64835" stroke-width="2.5" cx="4.909" cy="4.909" r="4.159"></circle>
                    </g>
                    <g id="Ellipse_11-3" transform="translate(37.434000, 0.000000)">
                        <circle id="Oval" cx="4.909" cy="4.909" r="4.909"></circle>
                        <circle id="Oval" stroke="#D64835" stroke-width="2.5" cx="4.909" cy="4.909" r="4.159"></circle>
                    </g>
                    <g id="Ellipse_12-3" transform="translate(55.844000, 0.000000)">
                        <circle id="Oval" cx="4.909" cy="4.909" r="4.909"></circle>
                        <circle id="Oval" stroke="#D64835" stroke-width="2.5" cx="4.909" cy="4.909" r="4.159"></circle>
                    </g>
                    <g id="Ellipse_13-3" transform="translate(74.868000, 0.000000)">
                        <circle id="Oval" cx="4.909" cy="4.909" r="4.909"></circle>
                        <circle id="Oval" stroke="#D64835" stroke-width="2.5" cx="4.909" cy="4.909" r="4.159"></circle>
                    </g>
                    <g id="Ellipse_14-3" transform="translate(93.278000, 0.000000)">
                        <circle id="Oval" cx="4.909" cy="4.909" r="4.909"></circle>
                        <circle id="Oval" stroke="#D64835" stroke-width="2.5" cx="4.909" cy="4.909" r="4.159"></circle>
                    </g>
                    <g id="Ellipse_15" transform="translate(111.688000, 0.000000)">
                        <circle id="Oval" cx="4.909" cy="4.909" r="4.909"></circle>
                        <circle id="Oval" stroke="#D64835" stroke-width="2.5" cx="4.909" cy="4.909" r="4.159"></circle>
                    </g>
                </g>
            </g>
        </g>
    </g>
</svg>