<?xml version="1.0" encoding="UTF-8"?>
<svg width="184px" height="56px" viewBox="0 0 184 56" version="1.1" xmlns="http://www.w3.org/2000/svg" xmlns:xlink="http://www.w3.org/1999/xlink">
    <!-- Generator: Sketch 41.2 (35397) - http://www.bohemiancoding.com/sketch -->
    <title>button_viewdemo</title>
    <desc>Created with Sketch.</desc>
    <defs></defs>
    <g id="Page-1" stroke="none" stroke-width="1" fill="none" fill-rule="evenodd">
        <g id="button_viewdemo" transform="translate(1.000000, 1.000000)">
            <rect id="Rectangle-5-Copy" stroke="#FFFFFF" stroke-width="2" x="0" y="0" width="182" height="54" rx="27"></rect>
            <path d="M29.9764706,18.52632 L33.2974353,18.52632 L37.8902588,31.47552 L37.9844706,31.47552 L42.6244,18.52632 L45.8276,18.52632 L39.1385647,35.3484 L36.5712941,35.3484 L29.9764706,18.52632 Z M46.3646071,23.9436 L49.19096,23.9436 L49.19096,35.3484 L46.3646071,35.3484 L46.3646071,23.9436 Z M45.9642071,20.07072 C45.9642071,19.6113577 46.1330015,19.2114017 46.4705953,18.87084 C46.8081891,18.5302783 47.2360633,18.36 47.7542306,18.36 C48.2723979,18.36 48.7081229,18.5223584 49.0614188,18.84708 C49.4147147,19.1718016 49.59136,19.5796775 49.59136,20.07072 C49.59136,20.5617625 49.4147147,20.9696384 49.0614188,21.29436 C48.7081229,21.6190816 48.2723979,21.78144 47.7542306,21.78144 C47.2360633,21.78144 46.8081891,21.6111617 46.4705953,21.2706 C46.1330015,20.9300383 45.9642071,20.5300823 45.9642071,20.07072 Z M60.0441553,28.50552 C60.0441553,28.1411982 59.9931244,27.7927217 59.8910612,27.46008 C59.7889979,27.1274383 59.6280544,26.8344013 59.4082259,26.58096 C59.1883973,26.3275187 58.9096903,26.1255608 58.5720965,25.97508 C58.2345026,25.8245992 57.8380321,25.74936 57.3826729,25.74936 C56.5347628,25.74936 55.8164053,26.0067574 55.2275788,26.52156 C54.6387524,27.0363626 54.3129399,27.697676 54.2501318,28.50552 L60.0441553,28.50552 Z M62.8705082,29.78856 L62.8705082,30.16872 C62.8705082,30.2954406 62.8626573,30.4221594 62.8469553,30.54888 L54.2501318,30.54888 C54.2815358,30.9607221 54.387523,31.3369183 54.5680965,31.67748 C54.7486699,32.0180417 54.9881224,32.3110788 55.2864612,32.5566 C55.5847999,32.8021212 55.9223887,32.9961593 56.2992377,33.13872 C56.6760866,33.2812807 57.0686317,33.35256 57.4768847,33.35256 C58.1834765,33.35256 58.780145,33.2218813 59.2669082,32.96052 C59.7536715,32.6991587 60.1540675,32.3388023 60.4681082,31.87944 L62.3523435,33.40008 C61.2374987,34.9207276 59.620213,35.68104 57.5004377,35.68104 C56.6211235,35.68104 55.8124806,35.5424414 55.0744847,35.26524 C54.3364889,34.9880386 53.6966404,34.5960025 53.15492,34.08912 C52.6131997,33.5822375 52.1892509,32.9605237 51.8830612,32.22396 C51.5768714,31.4873963 51.4237788,30.6518447 51.4237788,29.71728 C51.4237788,28.7985554 51.5768714,27.9630038 51.8830612,27.2106 C52.1892509,26.4581962 52.6092742,25.8166827 53.1431435,25.28604 C53.6770129,24.7553973 54.3090105,24.3435615 55.0391553,24.05052 C55.7693001,23.7574785 56.5583158,23.61096 57.4062259,23.61096 C58.1913279,23.61096 58.9175363,23.7416387 59.5848729,24.003 C60.2522096,24.2643613 60.8292509,24.6524374 61.3160141,25.16724 C61.8027773,25.6820426 62.1835461,26.3235562 62.4583318,27.0918 C62.7331175,27.8600438 62.8705082,28.7589549 62.8705082,29.78856 Z M63.4546212,23.9436 L66.5165035,23.9436 L68.8717977,32.11704 L68.9189035,32.11704 L71.3448565,23.9436 L74.359633,23.9436 L76.8091388,32.11704 L76.8562447,32.11704 L79.2586447,23.9436 L82.2027624,23.9436 L78.2929741,35.3484 L75.4195153,35.3484 L72.8522447,27.36504 L72.8051388,27.36504 L70.2614212,35.3484 L67.3879624,35.3484 L63.4546212,23.9436 Z M88.9294824,18.52632 L94.8412706,18.52632 C95.9247113,18.52632 97.0159867,18.6688786 98.1151294,18.954 C99.2142722,19.2391214 100.203486,19.7103567 101.0828,20.36772 C101.962114,21.0250833 102.676546,21.8883547 103.226118,22.95756 C103.775689,24.0267653 104.050471,25.3533521 104.050471,26.93736 C104.050471,28.4104874 103.775689,29.6776747 103.226118,30.73896 C102.676546,31.8002453 101.962114,32.6714366 101.0828,33.35256 C100.203486,34.0336834 99.2142722,34.5365984 98.1151294,34.86132 C97.0159867,35.1860416 95.9247113,35.3484 94.8412706,35.3484 L88.9294824,35.3484 L88.9294824,18.52632 Z M94.3702118,32.7348 C95.1396117,32.7348 95.9090001,32.6437209 96.6784,32.46156 C97.4477999,32.2793991 98.1426048,31.9705222 98.7628353,31.53492 C99.3830659,31.0993178 99.889449,30.5092837 100.282,29.7648 C100.674551,29.0203163 100.870824,28.0778457 100.870824,26.93736 C100.870824,25.733514 100.674551,24.7514438 100.282,23.99112 C99.889449,23.2307962 99.3830659,22.6368021 98.7628353,22.20912 C98.1426048,21.7814379 97.4477999,21.4884008 96.6784,21.33 C95.9090001,21.1715992 95.1396117,21.0924 94.3702118,21.0924 L91.897153,21.0924 L91.897153,32.7348 L94.3702118,32.7348 Z M114.197078,28.50552 C114.197078,28.1411982 114.146047,27.7927217 114.043984,27.46008 C113.94192,27.1274383 113.780977,26.8344013 113.561148,26.58096 C113.34132,26.3275187 113.062613,26.1255608 112.725019,25.97508 C112.387425,25.8245992 111.990954,25.74936 111.535595,25.74936 C110.687685,25.74936 109.969328,26.0067574 109.380501,26.52156 C108.791675,27.0363626 108.465862,27.697676 108.403054,28.50552 L114.197078,28.50552 Z M117.023431,29.78856 L117.023431,30.16872 C117.023431,30.2954406 117.01558,30.4221594 116.999878,30.54888 L108.403054,30.54888 C108.434458,30.9607221 108.540445,31.3369183 108.721019,31.67748 C108.901592,32.0180417 109.141045,32.3110788 109.439384,32.5566 C109.737722,32.8021212 110.075311,32.9961593 110.45216,33.13872 C110.829009,33.2812807 111.221554,33.35256 111.629807,33.35256 C112.336399,33.35256 112.933067,33.2218813 113.419831,32.96052 C113.906594,32.6991587 114.30699,32.3388023 114.621031,31.87944 L116.505266,33.40008 C115.390421,34.9207276 113.773135,35.68104 111.65336,35.68104 C110.774046,35.68104 109.965403,35.5424414 109.227407,35.26524 C108.489411,34.9880386 107.849563,34.5960025 107.307842,34.08912 C106.766122,33.5822375 106.342173,32.9605237 106.035984,32.22396 C105.729794,31.4873963 105.576701,30.6518447 105.576701,29.71728 C105.576701,28.7985554 105.729794,27.9630038 106.035984,27.2106 C106.342173,26.4581962 106.762197,25.8166827 107.296066,25.28604 C107.829935,24.7553973 108.461933,24.3435615 109.192078,24.05052 C109.922222,23.7574785 110.711238,23.61096 111.559148,23.61096 C112.34425,23.61096 113.070459,23.7416387 113.737795,24.003 C114.405132,24.2643613 114.982173,24.6524374 115.468936,25.16724 C115.9557,25.6820426 116.336468,26.3235562 116.611254,27.0918 C116.88604,27.8600438 117.023431,28.7589549 117.023431,29.78856 Z M132.704979,23.61096 C133.442975,23.61096 134.074972,23.7416387 134.600991,24.003 C135.127009,24.2643613 135.558809,24.6088779 135.896402,25.03656 C136.233996,25.4642421 136.4813,25.9552772 136.63832,26.50968 C136.79534,27.0640828 136.873849,27.6343171 136.873849,28.2204 L136.873849,35.3484 L134.047496,35.3484 L134.047496,29.02824 C134.047496,28.6955983 134.023944,28.3471218 133.976838,27.9828 C133.929732,27.6184782 133.82767,27.2898015 133.670649,26.99676 C133.513629,26.7037185 133.297729,26.462161 133.022944,26.27208 C132.748158,26.081999 132.383091,25.98696 131.927732,25.98696 C131.488075,25.98696 131.111231,26.081999 130.797191,26.27208 C130.48315,26.462161 130.22407,26.7076785 130.019944,27.00864 C129.815817,27.3096015 129.66665,27.6461981 129.572438,28.01844 C129.478225,28.3906819 129.43112,28.7589582 129.43112,29.12328 L129.43112,35.3484 L126.604767,35.3484 L126.604767,28.458 C126.604767,27.7451964 126.435973,27.1551623 126.098379,26.68788 C125.760785,26.2205977 125.230849,25.98696 124.508555,25.98696 C124.0846,25.98696 123.715608,26.0780391 123.401567,26.2602 C123.087526,26.4423609 122.832372,26.6759986 122.636096,26.96112 C122.439821,27.2462414 122.290654,27.5749181 122.188591,27.94716 C122.086527,28.3194019 122.035496,28.6955981 122.035496,29.07576 L122.035496,35.3484 L119.209144,35.3484 L119.209144,23.9436 L121.894179,23.9436 L121.894179,25.77312 L121.941285,25.77312 C122.066901,25.4879986 122.235695,25.2187213 122.447673,24.96528 C122.65965,24.7118387 122.910879,24.482161 123.201367,24.27624 C123.491855,24.070319 123.825518,23.9079606 124.202367,23.78916 C124.579216,23.6703594 124.995314,23.61096 125.450673,23.61096 C126.329987,23.61096 127.060121,23.808958 127.641096,24.20496 C128.222072,24.600962 128.669573,25.1236768 128.983614,25.77312 C129.360463,25.0761565 129.862921,24.5415619 130.491002,24.16932 C131.119084,23.7970781 131.857069,23.61096 132.704979,23.61096 Z M138.965351,29.59848 C138.965351,28.6955955 139.126294,27.8758837 139.448186,27.13932 C139.770078,26.4027563 140.205803,25.7731226 140.755374,25.2504 C141.304946,24.7276774 141.95657,24.3237614 142.710268,24.03864 C143.463966,23.7535186 144.264758,23.61096 145.112668,23.61096 C145.960578,23.61096 146.76137,23.7535186 147.515068,24.03864 C148.268766,24.3237614 148.920391,24.7276774 149.469962,25.2504 C150.019534,25.7731226 150.455259,26.4027563 150.777151,27.13932 C151.099042,27.8758837 151.259986,28.6955955 151.259986,29.59848 C151.259986,30.5013645 151.099042,31.3250363 150.777151,32.06952 C150.455259,32.8140037 150.019534,33.4515573 149.469962,33.9822 C148.920391,34.5128427 148.268766,34.9286385 147.515068,35.2296 C146.76137,35.5305615 145.960578,35.68104 145.112668,35.68104 C144.264758,35.68104 143.463966,35.5305615 142.710268,35.2296 C141.95657,34.9286385 141.304946,34.5128427 140.755374,33.9822 C140.205803,33.4515573 139.770078,32.8140037 139.448186,32.06952 C139.126294,31.3250363 138.965351,30.5013645 138.965351,29.59848 Z M141.838809,29.59848 C141.838809,30.0420022 141.905542,30.4855178 142.039009,30.92904 C142.172477,31.3725622 142.372675,31.7685583 142.639609,32.11704 C142.906544,32.4655217 143.244133,32.7506389 143.652386,32.9724 C144.060639,33.1941611 144.547395,33.30504 145.112668,33.30504 C145.677942,33.30504 146.164698,33.1941611 146.572951,32.9724 C146.981204,32.7506389 147.318792,32.4655217 147.585727,32.11704 C147.852662,31.7685583 148.05286,31.3725622 148.186327,30.92904 C148.319794,30.4855178 148.386527,30.0420022 148.386527,29.59848 C148.386527,29.1549578 148.319794,28.7154022 148.186327,28.2798 C148.05286,27.8441978 147.852662,27.4521617 147.585727,27.10368 C147.318792,26.7551983 146.981204,26.4740411 146.572951,26.2602 C146.164698,26.0463589 145.677942,25.93944 145.112668,25.93944 C144.547395,25.93944 144.060639,26.0463589 143.652386,26.2602 C143.244133,26.4740411 142.906544,26.7551983 142.639609,27.10368 C142.372675,27.4521617 142.172477,27.8441978 142.039009,28.2798 C141.905542,28.7154022 141.838809,29.1549578 141.838809,29.59848 Z" id="View-Demo" fill="#FFFFFF"></path>
        </g>
    </g>
</svg>