<?xml version="1.0" encoding="UTF-8"?>
<svg width="50px" height="50px" viewBox="0 0 50 50" version="1.1" xmlns="http://www.w3.org/2000/svg" xmlns:xlink="http://www.w3.org/1999/xlink">
    <!-- Generator: Sketch 41.2 (35397) - http://www.bohemiancoding.com/sketch -->
    <title>icon_github</title>
    <desc>Created with Sketch.</desc>
    <defs></defs>
    <g id="Page-1" stroke="none" stroke-width="1" fill="none" fill-rule="evenodd">
        <g id="icon_github" fill="#FFFFFF">
            <rect id="Rectangle-7-Copy-2" fill-opacity="0.01" x="0" y="0" width="50" height="50"></rect>
            <path d="M33.6392711,19.9753075 C32.7459681,18.444738 31.5342597,17.2329841 30.0038269,16.3397722 C28.4731663,15.4465148 26.8021412,15 24.9895672,15 C23.177221,15 21.5056492,15.4466515 19.9753075,16.3397722 C18.444738,17.2329385 17.2330752,18.444738 16.3397722,19.9753075 C15.4466059,21.5058314 15,23.1771754 15,24.9892938 C15,27.1660592 15.6350797,29.1234624 16.9055581,30.8620046 C18.1758998,32.6006834 19.8169932,33.8037813 21.8287016,34.4714351 C22.0628702,34.5148975 22.2362187,34.484328 22.3489294,34.3805011 C22.4616856,34.2765376 22.5179954,34.1463326 22.5179954,33.9904328 C22.5179954,33.9644191 22.5157631,33.7303872 22.5114351,33.2880638 C22.5069704,32.8457403 22.5048747,32.4598633 22.5048747,32.130615 L22.2056948,32.182369 C22.0149431,32.2173121 21.7743052,32.2321185 21.4837813,32.2279271 C21.1933941,32.2238724 20.8919362,32.1934396 20.5798178,32.1368565 C20.2675626,32.0807745 19.9771298,31.9507062 19.7082916,31.7469248 C19.43959,31.5431435 19.2488383,31.2764009 19.136082,30.9471071 L19.0060137,30.6477904 C18.9193166,30.4485194 18.7828246,30.2271526 18.5963554,29.9845103 C18.4098861,29.7416401 18.2213212,29.5769932 18.0305695,29.4902961 L17.9394989,29.4251025 C17.8788155,29.3817768 17.8225057,29.3295216 17.7704328,29.2688838 C17.7184055,29.208246 17.6794533,29.1475626 17.6534396,29.0867882 C17.6273804,29.0259681 17.6489749,28.976082 17.718451,28.9369476 C17.7879271,28.8978132 17.9134852,28.8788155 18.095672,28.8788155 L18.3557175,28.9176765 C18.5291572,28.9524374 18.7436902,29.0562642 18.99959,29.229795 C19.2553531,29.4031891 19.4656036,29.6286105 19.6303872,29.9059681 C19.8299317,30.2615945 20.0703417,30.532574 20.3523007,30.7190433 C20.6340319,30.9055125 20.9180866,30.9985877 21.2041913,30.9985877 C21.4902961,30.9985877 21.7374032,30.9769021 21.9456036,30.9337585 C22.1535763,30.8903872 22.3487016,30.8251936 22.5308884,30.7385421 C22.6089294,30.1573121 22.8214123,29.7107973 23.1681549,29.3986788 C22.6739408,29.3467426 22.2296128,29.2685194 21.8349431,29.1645103 C21.4405011,29.0603645 21.0328929,28.891344 20.6123918,28.6569932 C20.1916629,28.4229613 19.8426424,28.1323462 19.5652392,27.7856492 C19.2877904,27.4387699 19.0600911,26.9833713 18.8824601,26.4198633 C18.704738,25.8561276 18.6158542,25.2058314 18.6158542,24.4687927 C18.6158542,23.4193622 18.958451,22.5263326 19.643508,21.7892027 C19.3225968,21.0002278 19.3528929,20.1157631 19.7344875,19.1358998 C19.9859681,19.0577677 20.3589066,19.1164009 20.8531207,19.3114351 C21.347426,19.5065604 21.7093394,19.673713 21.9392255,19.8123007 C22.1691116,19.9508428 22.353303,20.068246 22.4920729,20.1634624 C23.2986788,19.9380866 24.1310706,19.8253759 24.9894761,19.8253759 C25.8478815,19.8253759 26.6804556,19.9380866 27.4871071,20.1634624 L27.9813667,19.8514351 C28.3193622,19.6432346 28.7184966,19.4524374 29.1778132,19.2789977 C29.6374032,19.1056492 29.9888383,19.0579043 30.231754,19.1360364 C30.6218223,20.1159453 30.6565831,21.0003645 30.3355809,21.7893394 C31.0205923,22.5264692 31.3633257,23.4197267 31.3633257,24.4689294 C31.3633257,25.2059681 31.274123,25.8583144 31.0966743,26.4263781 C30.9189977,26.994533 30.6893394,27.4494761 30.4076082,27.792164 C30.1255581,28.1348064 29.7743052,28.4231435 29.3538041,28.6571298 C28.9332118,28.8912984 28.525467,29.0603189 28.1310251,29.1644647 C27.7364009,29.2686105 27.2920729,29.3468793 26.7978588,29.3989066 C27.2486105,29.7889749 27.4740319,30.4046925 27.4740319,31.2457859 L27.4740319,33.9900683 C27.4740319,34.1459681 27.528246,34.2761276 27.6367654,34.3801367 C27.7451481,34.4839636 27.9163098,34.514533 28.1504784,34.4710251 C30.1624601,33.8034624 31.8035535,32.6003189 33.0738497,30.8616401 C34.3440091,29.1230979 34.9793166,27.1656948 34.9793166,24.9889294 C34.978861,23.1770387 34.5320273,21.5058314 33.6392711,19.9753075" id="icon_github-copy"></path>
        </g>
    </g>
</svg>