<?xml version="1.0" encoding="UTF-8"?>
<svg width="231px" height="402px" viewBox="0 0 231 402" version="1.1" xmlns="http://www.w3.org/2000/svg" xmlns:xlink="http://www.w3.org/1999/xlink">
    <!-- Generator: Sketch 41.2 (35397) - http://www.bohemiancoding.com/sketch -->
    <title>Page 1</title>
    <desc>Created with Sketch.</desc>
    <defs></defs>
    <g id="Page-1" stroke="none" stroke-width="1" fill="none" fill-rule="evenodd">
        <g id="peetrdotcom-alt-copy-3" transform="translate(-965.000000, -1867.000000)">
            <g id="Page-1" transform="translate(967.000000, 1869.000000)">
                <path d="M46.9516852,318.963419 C46.9516852,310.379705 40.0111388,303.420371 31.4478383,303.420371 C22.8857727,303.420371 15.9452262,310.379705 15.9452262,318.963419 C15.9452262,327.547133 22.8857727,334.506467 31.4478383,334.506467 C40.0111388,334.506467 46.9516852,327.547133 46.9516852,318.963419 Z" id="Stroke-1" stroke="#FFFFFF" stroke-width="5"></path>
                <polyline id="Stroke-3" stroke="#FFFFFF" stroke-width="5" points="46.1048645 313.897629 109.940602 152.061248 88.5632251 147.956962 27.3159902 303.420867"></polyline>
                <path d="M18.0907443,326.837952 L5.62122514,358.488619 C4.21335628,362.061762 6.0250612,366.096714 9.6274765,367.409095 L16.8421869,370.040048 C20.3062852,371.302905 24.1445803,369.572048 25.4993454,366.135095 L38.6851486,332.707762" id="Stroke-5" stroke="#FFFFFF" stroke-width="5"></path>
                <path d="M12.6435268,368.509267 L0.393832787,398.962695" id="Stroke-7" stroke="#FFFFFF" stroke-width="5"></path>
                <path d="M97.4399617,160.754781 L43.2629454,296.697638" id="Stroke-9" stroke="#FFFFFF" stroke-width="5"></path>
                <path d="M33.4991279,318.963419 C33.4991279,317.99399 32.7149202,317.209038 31.7491716,317.209038 C30.782188,317.209038 29.9992153,317.99399 29.9992153,318.963419 C29.9992153,319.932848 30.782188,320.7178 31.7491716,320.7178 C32.7149202,320.7178 33.4991279,319.932848 33.4991279,318.963419" id="Fill-11" fill="#FFFFFF"></path>
                <path d="M179.392996,318.963419 C179.392996,310.379705 186.333542,303.420371 194.896843,303.420371 C203.458908,303.420371 210.399455,310.379705 210.399455,318.963419 C210.399455,327.547133 203.458908,334.506467 194.896843,334.506467 C186.333542,334.506467 179.392996,327.547133 179.392996,318.963419 Z" id="Stroke-13" stroke="#FFFFFF" stroke-width="5"></path>
                <polyline id="Stroke-15" stroke="#FFFFFF" stroke-width="5" points="180.239816 313.897629 116.404079 152.061248 137.781456 147.956962 199.028691 303.420867"></polyline>
                <path d="M208.253937,326.837952 L220.723456,358.488619 C222.131325,362.061762 220.31962,366.096714 216.717204,367.409095 L209.502494,370.040048 C206.038396,371.302905 202.200101,369.572048 200.845336,366.135095 L187.659532,332.707762" id="Stroke-17" stroke="#FFFFFF" stroke-width="5"></path>
                <path d="M213.701154,368.509267 L225.950848,398.962695" id="Stroke-19" stroke="#FFFFFF" stroke-width="5"></path>
                <path d="M192.845553,318.963419 C192.845553,317.99399 193.629761,317.209038 194.595509,317.209038 C195.562493,317.209038 196.345466,317.99399 196.345466,318.963419 C196.345466,319.932848 195.562493,320.7178 194.595509,320.7178 C193.629761,320.7178 192.845553,319.932848 192.845553,318.963419" id="Fill-23" fill="#FFFFFF"></path>
                <path d="M112.282975,95.4113333 C100.421062,95.4113333 90.805565,105.051143 90.805565,116.943048 L90.805565,139.423143 L112.282975,144.379238 L133.760385,139.423143 L133.760385,116.943048 C133.760385,105.051143 124.144887,95.4113333 112.282975,95.4113333 Z" id="Stroke-25" stroke="#FFFFFF" stroke-width="5"></path>
                <path d="M102.033937,50.6093714 L102.033937,6.30041905 C102.033937,3.16308571 104.57057,0.6188 107.701226,0.6188 L118.270122,0.6188 C121.399543,0.6188 123.937412,3.16308571 123.937412,6.30041905 L123.937412,50.6093714" id="Stroke-27" stroke="#FFFFFF" stroke-width="5"></path>
                <path d="M133.765695,114.590914 C143.392307,107.80739 149.683258,96.5877714 149.683258,83.894819 C149.683258,63.1876762 132.938263,46.401581 112.283345,46.401581 C91.6271923,46.401581 74.8834328,63.1876762 74.8834328,83.894819 C74.8834328,96.6410095 81.2262525,107.900248 90.920788,114.675105" id="Stroke-29" stroke="#FFFFFF" stroke-width="5"></path>
                <path d="M130.623925,105.733705 C136.660471,100.548562 140.485181,92.8500857 140.485181,84.2552286 C140.485181,68.6403714 127.858821,55.9820857 112.283345,55.9820857 C96.7078699,55.9820857 84.0815093,68.6403714 84.0815093,84.2552286 C84.0815093,92.8500857 87.9062197,100.548562 93.9427661,105.734943" id="Stroke-31" stroke="#FFFFFF" stroke-width="5"></path>
                <path d="M121.127355,114.675105 C121.127355,113.705676 121.911563,112.920724 122.877311,112.920724 C123.844295,112.920724 124.627268,113.705676 124.627268,114.675105 C124.627268,115.644533 123.844295,116.429486 122.877311,116.429486 C121.911563,116.429486 121.127355,115.644533 121.127355,114.675105" id="Fill-33" fill="#FFFFFF"></path>
                <path d="M121.127355,131.012762 C121.127355,130.043333 121.911563,129.258381 122.877311,129.258381 C123.844295,129.258381 124.627268,130.043333 124.627268,131.012762 C124.627268,131.98219 123.844295,132.767143 122.877311,132.767143 C121.911563,132.767143 121.127355,131.98219 121.127355,131.012762" id="Fill-35" fill="#FFFFFF"></path>
                <path d="M109.036355,10.0116095 L116.934005,10.0116095" id="Stroke-37" stroke="#FFFFFF" stroke-width="5"></path>
            </g>
        </g>
    </g>
</svg>