<?xml version="1.0" encoding="UTF-8"?>
<svg width="216px" height="46px" viewBox="0 0 216 46" version="1.1" xmlns="http://www.w3.org/2000/svg" xmlns:xlink="http://www.w3.org/1999/xlink">
    <!-- Generator: Sketch 41.2 (35397) - http://www.bohemiancoding.com/sketch -->
    <title>Reelsquad</title>
    <desc>Created with Sketch.</desc>
    <defs></defs>
    <g id="Page-1" stroke="none" stroke-width="1" fill="none" fill-rule="evenodd">
        <path d="M17.34,35 L10.455,22.355 L7.845,22.355 L7.845,35 L0.285,35 L0.285,3.14 L12.435,3.14 C13.9650077,3.14 15.4574927,3.29749842 16.9125,3.6125 C18.3675073,3.92750158 19.6724942,4.45999625 20.8275,5.21 C21.9825058,5.96000375 22.9049965,6.94999385 23.595,8.18 C24.2850035,9.41000615 24.63,10.9399908 24.63,12.77 C24.63,14.9300108 24.0450059,16.7449926 22.875,18.215 C21.7049941,19.6850074 20.0850104,20.7349969 18.015,21.365 L26.34,35 L17.34,35 Z M17.025,12.905 C17.025,12.1549962 16.8675016,11.5475023 16.5525,11.0825 C16.2374984,10.6174977 15.8325025,10.2575013 15.3375,10.0025 C14.8424975,9.74749873 14.2875031,9.57500045 13.6725,9.485 C13.0574969,9.39499955 12.4650029,9.35 11.895,9.35 L7.8,9.35 L7.8,16.775 L11.445,16.775 C12.0750032,16.775 12.7199967,16.7225005 13.38,16.6175 C14.0400033,16.5124995 14.6399973,16.3250014 15.18,16.055 C15.7200027,15.7849987 16.1624983,15.3950025 16.5075,14.885 C16.8525017,14.3749975 17.025,13.7150041 17.025,12.905 Z M43.5660002,21.23 C43.5660002,20.0599942 43.1985039,19.0550042 42.4635002,18.215 C41.7284965,17.3749958 40.6260076,16.955 39.1560002,16.955 C38.4359966,16.955 37.7760032,17.0674989 37.1760002,17.2925 C36.5759972,17.5175011 36.0510025,17.8249981 35.6010002,18.215 C35.150998,18.6050019 34.7910016,19.0624974 34.5210002,19.5875 C34.2509989,20.1125026 34.1010004,20.6599971 34.0710002,21.23 L43.5660002,21.23 Z M50.3610002,24.065 L50.3610002,24.965 C50.3610002,25.2650015 50.3460004,25.5499986 50.3160002,25.82 L34.0710002,25.82 C34.1310005,26.4500031 34.3184986,27.0199974 34.6335002,27.53 C34.9485018,28.0400026 35.3534977,28.4824981 35.8485002,28.8575 C36.3435027,29.2325019 36.8984971,29.524999 37.5135002,29.735 C38.1285033,29.9450011 38.7659969,30.05 39.4260002,30.05 C40.5960061,30.05 41.5859962,29.8325022 42.3960002,29.3975 C43.2060043,28.9624978 43.8659977,28.4000035 44.3760002,27.71 L49.5060002,30.95 C48.455995,32.4800076 47.0685088,33.6574959 45.3435002,34.4825 C43.6184916,35.3075041 41.6160116,35.72 39.3360002,35.72 C37.6559918,35.72 36.0660077,35.4575026 34.5660002,34.9325 C33.0659927,34.4074974 31.7535058,33.642505 30.6285002,32.6375 C29.5034946,31.632495 28.6185034,30.3950074 27.9735002,28.925 C27.328497,27.4549927 27.0060002,25.7750095 27.0060002,23.885 C27.0060002,22.0549908 27.3209971,20.3975074 27.9510002,18.9125 C28.5810034,17.4274926 29.4359948,16.1675052 30.5160002,15.1325 C31.5960056,14.0974948 32.8709929,13.2950028 34.3410002,12.725 C35.8110076,12.1549972 37.4009917,11.87 39.1110002,11.87 C40.7610085,11.87 42.2759933,12.1474972 43.6560002,12.7025 C45.0360071,13.2575028 46.2209953,14.0599947 47.2110002,15.11 C48.2010052,16.1600052 48.9734974,17.4349925 49.5285002,18.935 C50.083503,20.4350075 50.3610002,22.1449904 50.3610002,24.065 Z M69.3420004,21.23 C69.3420004,20.0599942 68.9745041,19.0550042 68.2395004,18.215 C67.5044967,17.3749958 66.4020078,16.955 64.9320004,16.955 C64.2119968,16.955 63.5520034,17.0674989 62.9520004,17.2925 C62.3519974,17.5175011 61.8270027,17.8249981 61.3770004,18.215 C60.9269982,18.6050019 60.5670018,19.0624974 60.2970004,19.5875 C60.0269991,20.1125026 59.8770006,20.6599971 59.8470004,21.23 L69.3420004,21.23 Z M76.1370004,24.065 L76.1370004,24.965 C76.1370004,25.2650015 76.1220006,25.5499986 76.0920004,25.82 L59.8470004,25.82 C59.9070007,26.4500031 60.0944988,27.0199974 60.4095004,27.53 C60.724502,28.0400026 61.1294979,28.4824981 61.6245004,28.8575 C62.1195029,29.2325019 62.6744973,29.524999 63.2895004,29.735 C63.9045035,29.9450011 64.5419971,30.05 65.2020004,30.05 C66.3720063,30.05 67.3619964,29.8325022 68.1720004,29.3975 C68.9820045,28.9624978 69.6419979,28.4000035 70.1520004,27.71 L75.2820004,30.95 C74.2319952,32.4800076 72.844509,33.6574959 71.1195004,34.4825 C69.3944918,35.3075041 67.3920118,35.72 65.1120004,35.72 C63.431992,35.72 61.8420079,35.4575026 60.3420004,34.9325 C58.8419929,34.4074974 57.529506,33.642505 56.4045004,32.6375 C55.2794948,31.632495 54.3945036,30.3950074 53.7495004,28.925 C53.1044972,27.4549927 52.7820004,25.7750095 52.7820004,23.885 C52.7820004,22.0549908 53.0969973,20.3975074 53.7270004,18.9125 C54.3570036,17.4274926 55.211995,16.1675052 56.2920004,15.1325 C57.3720058,14.0974948 58.6469931,13.2950028 60.1170004,12.725 C61.5870078,12.1549972 63.1769919,11.87 64.8870004,11.87 C66.5370087,11.87 68.0519935,12.1474972 69.4320004,12.7025 C70.8120073,13.2575028 71.9969955,14.0599947 72.9870004,15.11 C73.9770054,16.1600052 74.7494976,17.4349925 75.3045004,18.935 C75.8595032,20.4350075 76.1370004,22.1449904 76.1370004,24.065 Z M79.7730006,35 L79.7730006,0.98 L87.2430006,0.98 L87.2430006,35 L79.7730006,35 Z M105.234001,19.205 C104.633998,18.6349972 103.929005,18.1550019 103.119001,17.765 C102.308997,17.374998 101.454005,17.18 100.554001,17.18 C99.8639974,17.18 99.2265038,17.3149986 98.6415008,17.585 C98.0564979,17.8550014 97.7640008,18.3199967 97.7640008,18.98 C97.7640008,19.6100031 98.0864976,20.0599987 98.7315008,20.33 C99.3765041,20.6000013 100.418994,20.8999983 101.859001,21.23 C102.699005,21.4100009 103.546497,21.6649983 104.401501,21.995 C105.256505,22.3250017 106.028997,22.7599973 106.719001,23.3 C107.409004,23.8400027 107.963999,24.4999961 108.384001,25.28 C108.804003,26.0600039 109.014001,26.9899946 109.014001,28.07 C109.014001,29.4800071 108.729004,30.6724951 108.159001,31.6475 C107.588998,32.6225049 106.846505,33.409997 105.931501,34.01 C105.016496,34.610003 103.989007,35.0449987 102.849001,35.315 C101.708995,35.5850014 100.569007,35.72 99.4290008,35.72 C97.5989917,35.72 95.8065096,35.4275029 94.0515008,34.8425 C92.2964921,34.2574971 90.8340067,33.3950057 89.6640008,32.255 L93.8040008,27.89 C94.4640041,28.6100036 95.273996,29.2099976 96.2340008,29.69 C97.1940056,30.1700024 98.2139954,30.41 99.2940008,30.41 C99.8940038,30.41 100.486498,30.2675014 101.071501,29.9825 C101.656504,29.6974986 101.949001,29.1950036 101.949001,28.475 C101.949001,27.7849966 101.589004,27.2750016 100.869001,26.945 C100.148997,26.6149983 99.0240085,26.2700018 97.4940008,25.91 C96.7139969,25.7299991 95.9340047,25.4900015 95.1540008,25.19 C94.3739969,24.8899985 93.6765039,24.4850025 93.0615008,23.975 C92.4464978,23.4649975 91.9440028,22.8350038 91.5540008,22.085 C91.1639989,21.3349962 90.9690008,20.4350052 90.9690008,19.385 C90.9690008,18.0349932 91.253998,16.8875047 91.8240008,15.9425 C92.3940037,14.9974953 93.1289963,14.225003 94.0290008,13.625 C94.9290053,13.024997 95.9264954,12.5825014 97.0215008,12.2975 C98.1165063,12.0124986 99.2039954,11.87 100.284001,11.87 C101.964009,11.87 103.606493,12.1324974 105.211501,12.6575 C106.816509,13.1825026 108.173995,13.9699947 109.284001,15.02 L105.234001,19.205 Z M128.670001,45.8 L128.670001,32.525 L128.580001,32.525 C127.859997,33.4850048 126.892507,34.2424972 125.677501,34.7975 C124.462495,35.3525028 123.165008,35.63 121.785001,35.63 C120.074992,35.63 118.560008,35.3000033 117.240001,34.64 C115.919994,33.9799967 114.810006,33.1025055 113.910001,32.0075 C113.009997,30.9124945 112.320003,29.6450072 111.840001,28.205 C111.359999,26.7649928 111.120001,25.2650078 111.120001,23.705 C111.120001,22.1449922 111.367499,20.6525071 111.862501,19.2275 C112.357504,17.8024929 113.062496,16.5500054 113.977501,15.47 C114.892506,14.3899946 116.002495,13.5350032 117.307501,12.905 C118.612508,12.2749968 120.074993,11.96 121.695001,11.96 C123.375009,11.96 124.822495,12.2974966 126.037501,12.9725 C127.252507,13.6475034 128.204998,14.4349955 128.895001,15.335 L129.030001,15.335 L129.030001,12.59 L136.005001,12.59 L136.005001,45.8 L128.670001,45.8 Z M128.940001,23.75 C128.940001,23.0299964 128.812502,22.3250034 128.557501,21.635 C128.3025,20.9449966 127.942503,20.3300027 127.477501,19.79 C127.012499,19.2499973 126.450004,18.8150017 125.790001,18.485 C125.129998,18.1549984 124.380005,17.99 123.540001,17.99 C122.669997,17.99 121.905004,18.1549984 121.245001,18.485 C120.584998,18.8150017 120.030003,19.2424974 119.580001,19.7675 C119.129999,20.2925026 118.792502,20.8999966 118.567501,21.59 C118.3425,22.2800034 118.230001,22.9849964 118.230001,23.705 C118.230001,24.4250036 118.3425,25.1374965 118.567501,25.8425 C118.792502,26.5475035 119.129999,27.1699973 119.580001,27.71 C120.030003,28.2500027 120.584998,28.6849983 121.245001,29.015 C121.905004,29.3450016 122.669997,29.51 123.540001,29.51 C124.380005,29.51 125.129998,29.3450016 125.790001,29.015 C126.450004,28.6849983 127.012499,28.2500027 127.477501,27.71 C127.942503,27.1699973 128.3025,26.5550034 128.557501,25.865 C128.812502,25.1749966 128.940001,24.4700036 128.940001,23.75 Z M155.526001,35 L155.526001,31.895 L155.436001,31.895 C155.166,32.4050026 154.813503,32.8849977 154.378501,33.335 C153.943499,33.7850023 153.433504,34.1749983 152.848501,34.505 C152.263498,34.8350017 151.618505,35.104999 150.913501,35.315 C150.208498,35.5250011 149.466005,35.63 148.686001,35.63 C147.185994,35.63 145.918506,35.3600027 144.883501,34.82 C143.848496,34.2799973 143.008504,33.5825043 142.363501,32.7275 C141.718498,31.8724957 141.253503,30.8975055 140.968501,29.8025 C140.6835,28.7074945 140.541001,27.5900057 140.541001,26.45 L140.541001,12.59 L147.966001,12.59 L147.966001,24.74 C147.966001,25.3700031 148.011001,25.9699971 148.101001,26.54 C148.191002,27.1100029 148.3635,27.6199978 148.618501,28.07 C148.873503,28.5200022 149.210999,28.8724987 149.631001,29.1275 C150.051003,29.3825013 150.605998,29.51 151.296001,29.51 C152.586008,29.51 153.568498,29.0300048 154.243501,28.07 C154.918505,27.1099952 155.256001,25.9850065 155.256001,24.695 L155.256001,12.59 L162.636001,12.59 L162.636001,35 L155.526001,35 Z M180.582001,25.235 L179.637001,25.235 C178.826997,25.235 178.009506,25.2724996 177.184501,25.3475 C176.359497,25.4225004 175.624505,25.5649989 174.979501,25.775 C174.334498,25.985001 173.802004,26.292498 173.382001,26.6975 C172.961999,27.102502 172.752001,27.6349967 172.752001,28.295 C172.752001,28.7150021 172.8495,29.0749985 173.044501,29.375 C173.239502,29.6750015 173.487,29.9149991 173.787001,30.095 C174.087003,30.2750009 174.432,30.4024996 174.822001,30.4775 C175.212003,30.5525004 175.587,30.59 175.947001,30.59 C177.447009,30.59 178.594497,30.1775041 179.389501,29.3525 C180.184505,28.5274959 180.582001,27.4100071 180.582001,26 L180.582001,25.235 Z M167.037001,15.65 C168.357008,14.3899937 169.894493,13.4450032 171.649501,12.815 C173.40451,12.1849968 175.196992,11.87 177.027001,11.87 C178.917011,11.87 180.514495,12.1024977 181.819501,12.5675 C183.124508,13.0325023 184.181997,13.7524951 184.992001,14.7275 C185.802006,15.7025049 186.3945,16.9324926 186.769501,18.4175 C187.144503,19.9025074 187.332001,21.6649898 187.332001,23.705 L187.332001,35 L180.582001,35 L180.582001,32.615 L180.447001,32.615 C179.876999,33.5450046 179.014507,34.2649975 177.859501,34.775 C176.704496,35.2850025 175.452008,35.54 174.102001,35.54 C173.201997,35.54 172.272006,35.4200012 171.312001,35.18 C170.351997,34.9399988 169.474505,34.5500027 168.679501,34.01 C167.884497,33.4699973 167.232004,32.7500045 166.722001,31.85 C166.211999,30.9499955 165.957001,29.8400066 165.957001,28.52 C165.957001,26.8999919 166.399497,25.595005 167.284501,24.605 C168.169506,23.6149951 169.309494,22.8500027 170.704501,22.31 C172.099508,21.7699973 173.651993,21.4100009 175.362001,21.23 C177.07201,21.0499991 178.736993,20.96 180.357001,20.96 L180.357001,20.6 C180.357001,19.4899944 179.967005,18.6725026 179.187001,18.1475 C178.406998,17.6224974 177.447007,17.36 176.307001,17.36 C175.256996,17.36 174.244506,17.5849978 173.269501,18.035 C172.294497,18.4850022 171.462005,19.0249968 170.772001,19.655 L167.037001,15.65 Z M208.743002,35 L208.743002,32.075 L208.653002,32.075 C207.932998,33.2150057 206.905508,34.0924969 205.570502,34.7075 C204.235495,35.3225031 202.818009,35.63 201.318002,35.63 C199.637993,35.63 198.138008,35.3000033 196.818002,34.64 C195.497995,33.9799967 194.380506,33.1025055 193.465502,32.0075 C192.550497,30.9124945 191.853004,29.6450072 191.373002,28.205 C190.892999,26.7649928 190.653002,25.2650078 190.653002,23.705 C190.653002,22.1449922 190.900499,20.6525071 191.395502,19.2275 C191.890504,17.8024929 192.595497,16.5500054 193.510502,15.47 C194.425506,14.3899946 195.535495,13.5350032 196.840502,12.905 C198.145508,12.2749968 199.607994,11.96 201.228002,11.96 C202.87801,11.96 204.272996,12.2749968 205.413002,12.905 C206.553007,13.5350032 207.437999,14.2249962 208.068002,14.975 L208.158002,14.975 L208.158002,0.98 L215.538002,0.98 L215.538002,35 L208.743002,35 Z M208.473002,23.75 C208.473002,23.0299964 208.345503,22.3250034 208.090502,21.635 C207.8355,20.9449966 207.475504,20.3300027 207.010502,19.79 C206.545499,19.2499973 205.983005,18.8150017 205.323002,18.485 C204.662998,18.1549984 203.913006,17.99 203.073002,17.99 C202.202997,17.99 201.438005,18.1549984 200.778002,18.485 C200.117998,18.8150017 199.563004,19.2424974 199.113002,19.7675 C198.662999,20.2925026 198.325503,20.8999966 198.100502,21.59 C197.875501,22.2800034 197.763002,22.9849964 197.763002,23.705 C197.763002,24.4250036 197.875501,25.1374965 198.100502,25.8425 C198.325503,26.5475035 198.662999,27.1699973 199.113002,27.71 C199.563004,28.2500027 200.117998,28.6849983 200.778002,29.015 C201.438005,29.3450016 202.202997,29.51 203.073002,29.51 C203.913006,29.51 204.662998,29.3450016 205.323002,29.015 C205.983005,28.6849983 206.545499,28.2500027 207.010502,27.71 C207.475504,27.1699973 207.8355,26.5550034 208.090502,25.865 C208.345503,25.1749966 208.473002,24.4700036 208.473002,23.75 Z" id="Reelsquad" fill="#FFFFFF"></path>
    </g>
</svg>