<?xml version="1.0" encoding="UTF-8"?>
<svg width="240px" height="472px" viewBox="0 0 240 472" version="1.1" xmlns="http://www.w3.org/2000/svg" xmlns:xlink="http://www.w3.org/1999/xlink">
    <!-- Generator: Sketch 41.2 (35397) - http://www.bohemiancoding.com/sketch -->
    <title>Page 1</title>
    <desc>Created with Sketch.</desc>
    <defs></defs>
    <g id="Page-1" stroke="none" stroke-width="1" fill="none" fill-rule="evenodd">
        <g id="peetrdotcom-alt-copy-3" transform="translate(-958.000000, -160.000000)" stroke="#FFFFFF" stroke-width="5">
            <g id="Page-1" transform="translate(960.000000, 163.000000)">
                <path d="M154.290101,164.23177 C154.290101,144.19877 138.051778,127.960407 118.02223,127.960407 C97.9911587,127.960407 81.7543587,144.19877 81.7543587,164.23177 C81.7543587,184.26477 97.9911587,200.503134 118.02223,200.503134 C138.051778,200.503134 154.290101,184.26477 154.290101,164.23177 Z" id="Stroke-1"></path>
                <path d="M118.021773,139.611707 C104.425128,139.611707 93.404689,150.63473 93.404689,164.231161" id="Stroke-3"></path>
                <path d="M118.021773,367.981511 L180.383631,367.981511 C180.383631,367.981511 213.314005,284.52083 205.760483,191.345148 C195.822599,68.7686477 118.021773,0.497170455 118.021773,0.497170455 C118.021773,0.497170455 40.2209471,68.7686477 30.2830632,191.345148 C22.7295406,284.52083 55.6599148,367.981511 55.6599148,367.981511 L118.021773,367.981511 Z" id="Stroke-5"></path>
                <path d="M66.6109239,69.0747159 L169.432317,69.0747159" id="Stroke-7"></path>
                <path d="M118.021773,297.632577 L118.021773,443.595123" id="Stroke-9"></path>
                <path d="M81.5529213,395.179552 L81.5529213,468.698348" id="Stroke-11"></path>
                <path d="M152.913079,395.179552 L152.913079,468.698348" id="Stroke-13"></path>
                <path d="M48.8169806,347.655386 L106.295923,347.655386" id="Stroke-15"></path>
                <path d="M128.170077,347.655386 L187.226413,347.655386" id="Stroke-17"></path>
                <polyline id="Stroke-19" points="33.8975174 281.223059 0.921465806 326.99015 14.4039174 431.939559 55.6597626 367.981968"></polyline>
                <polyline id="Stroke-21" points="201.74087 283.871386 234.716921 328.054841 219.816947 431.938341 180.383631 367.982273"></polyline>
            </g>
        </g>
    </g>
</svg>
