<?xml version="1.0" encoding="UTF-8"?>
<svg width="297px" height="297px" viewBox="0 0 297 297" version="1.1" xmlns="http://www.w3.org/2000/svg" xmlns:xlink="http://www.w3.org/1999/xlink">
    <title>baronfig_logo-tile_black_01</title>
    <g id="Page-1" stroke="none" stroke-width="1" fill="none" fill-rule="evenodd">
        <g id="baronfig_logo-tile_black_01">
            <rect id="Rectangle" fill="#000000" x="0" y="0" width="297" height="297"></rect>
            <g id="baronfig_logo-site_black_01" transform="translate(53.000000, 135.000000)" fill="#FFFFFF" fill-rule="nonzero">
                <path d="M166.239906,14 C166.226568,17.5835119 167.646915,21.0235499 170.184612,23.5537337 C172.722309,26.0839175 176.166544,27.4940578 179.75,27.47 C183.017743,27.4699054 186.230583,26.6296771 189.08,25.03 C189.271697,24.8862601 189.383179,24.6595805 189.380081,24.42 L189.380081,14.83 C189.385759,14.4454363 189.084265,14.1262079 188.7,14.11 L181.48,14.11 C181.286532,14.1013885 181.098351,14.1744762 180.961414,14.3114138 C180.824476,14.4483514 180.751388,14.6365325 180.76,14.83 L180.76,17.83 C180.759675,18.0174965 180.836782,18.1968068 180.973095,18.3255465 C181.109408,18.4542862 181.292828,18.5210295 181.48,18.51 L184.48,18.51 L184.48,21.71 C183.062497,22.3132552 181.540432,22.632617 180,22.65 C175.323525,22.4912015 171.614576,18.6541707 171.614576,13.975 C171.614576,9.29582926 175.323525,5.45879853 180,5.3 C182.096928,5.30380731 184.118982,6.07987751 185.68,7.48 C185.803491,7.62866604 185.986734,7.71466881 186.18,7.71466881 C186.373266,7.71466881 186.556509,7.62866604 186.68,7.48 L189,5 C189.142948,4.86071221 189.22357,4.66958747 189.22357,4.47 C189.22357,4.27041253 189.142948,4.07928779 189,3.94 C186.451638,1.72201881 183.198145,0.481580096 179.82,0.439866408 C176.216946,0.423994082 172.75655,1.84684951 170.206904,4.3927405 C167.657258,6.93863149 166.229304,10.3969261 166.239906,14 M156.24,26.42 C156.255339,26.8055897 156.56441,27.1146606 156.95,27.13 L160.45,27.13 C160.839489,27.1197846 161.154338,26.8093079 161.17,26.42 L161.17,1.55 C161.159785,1.16051111 160.849308,0.845661579 160.46,0.83 L157,0.83 C156.610692,0.845661579 156.300215,1.16051111 156.29,1.55 L156.24,26.42 Z M133.62,26.42 C133.62,26.6100492 133.696156,26.7921726 133.831477,26.9256147 C133.966799,27.0590567 134.14997,27.1326768 134.34,27.1300705 L137.8,27.1300705 C138.187697,27.119516 138.499516,26.8076965 138.51,26.42 L138.51,16.94 L147.81,16.94 C148.199308,16.9243384 148.509785,16.6094889 148.52,16.22 L148.52,13.14 C148.509785,12.7505111 148.199308,12.4356616 147.81,12.42 L138.51,12.42 L138.51,5.35 L149.65,5.35 C150.047645,5.35 150.37,5.02764502 150.37,4.63 L150.37,1.55 C150.37,1.15235498 150.047645,0.83 149.65,0.83 L134.36,0.83 C133.962355,0.83 133.64,1.15235498 133.64,1.55 L133.62,26.42 Z M104.62,26.42 C104.635662,26.8093079 104.950511,27.1197846 105.34,27.13 L108.76,27.13 C109.153772,27.130038 109.474531,26.8137343 109.48,26.42 L109.48,10.28 L109.55,10.28 L124.98,27.28 C125.146177,27.4544356 125.379253,27.5491226 125.62,27.54 L126.14,27.54 C126.524564,27.5457587 126.843792,27.2442651 126.86,26.86 L126.86,1.55 C126.849509,1.15678261 126.533217,0.840491345 126.14,0.83 L122.69,0.83 C122.292355,0.83 121.97,1.15235498 121.97,1.55 L121.97,17.09 L121.89,17.09 L106.52,0.72 C106.356396,0.540766448 106.122546,0.442111048 105.88,0.45 L105.32,0.45 C104.937466,0.449560577 104.621251,0.748056552 104.6,1.13 L104.62,26.42 Z M78.0499767,14 C78.0419117,10.5018194 80.1440098,7.34396645 83.3743661,6.00153169 C86.6047225,4.65909692 90.3257856,5.39702665 92.7993795,7.87062051 C95.2729734,10.3442144 96.0109031,14.0652775 94.6684683,17.2956339 C93.3260335,20.5259902 90.1681806,22.6280883 86.67,22.6200233 C81.9296385,22.571266 78.098734,18.7403615 78.0499767,14 M73.1598663,14 C73.1710538,21.4724006 79.2375895,27.5210188 86.7099901,27.5099856 C94.1823908,27.4989221 100.231013,21.4323908 100.219986,13.9599902 C100.208927,6.48758953 94.1424007,0.438962487 86.67,0.449984918 C83.0783448,0.444639535 79.6328357,1.87178731 77.0969061,4.41522523 C74.5609765,6.95866315 73.1440212,10.4083764 73.1598663,14 M54.66,12.79 L54.66,5.35 L60.79,5.35 C62.8131262,5.36023375 64.4613404,6.97743313 64.5100003,9 C64.5108552,11.0730271 62.8621721,12.7704615 60.79,12.83 L54.66,12.79 Z M49.7299295,26.46 C49.7299295,26.8521222 50.0478778,27.17 50.44,27.17 L53.9,27.17 C54.2894889,27.1597846 54.6043384,26.8493079 54.62,26.46 L54.62,16.86 L58.79,16.86 L63.79,26.86 C63.9066142,27.0806123 64.1408194,27.2133285 64.39,27.2 L68.34,27.2 C68.619682,27.2332811 68.8925935,27.0980924 69.0355877,26.8554356 C69.1785819,26.6127788 69.1646192,26.3085392 69,26.08 L63.85,16.52 C67.1022919,15.3858242 69.3178034,12.3628641 69.42,8.92 C69.4041539,6.75672062 68.5288778,4.68849767 66.9870236,3.17102798 C65.4451693,1.6535583 63.3632571,0.811361152 61.2,0.83 L50.44,0.83 C50.2499508,0.829981149 50.0678274,0.906155659 49.9343853,1.04147718 C49.8009433,1.1767987 49.7273232,1.35996966 49.7299295,1.55 L49.7299295,26.46 Z M29.59,18.18 L33.28,9.9 L33.39,9.9 L37.15,18.18 L29.59,18.18 Z M21.54,27.18 L24.81,27.18 C25.2960839,27.1879872 25.7337513,26.88684 25.9,26.43 L27.75,22.36 L39,22.36 L40.84,26.43 C40.9927001,26.8971455 41.4391328,27.204324 41.93,27.18 L45.21,27.18 C45.45838,27.2017149 45.698274,27.0837132 45.8326749,26.8737119 C45.9670757,26.6637106 45.9737505,26.3964485 45.85,26.18 L34.26,0.87 C34.1604716,0.605903231 33.9018916,0.436210097 33.62,0.45 L33.24,0.45 C32.9598162,0.442349035 32.7044807,0.609912939 32.6,0.87 L20.9,26.19 C20.7680988,26.4055319 20.7708359,26.6774555 20.9070491,26.8902886 C21.0432622,27.1031216 21.2890385,27.2195003 21.54,27.19 M5.47,22.73 L5.47,16 L10.1,16 C10.9817017,15.9724433 11.8361012,16.3078175 12.4636317,16.9277874 C13.0911622,17.5477573 13.4368678,18.398029 13.42,19.28 C13.4527437,20.1792979 13.1168091,21.0529621 12.489998,21.698653 C11.8631869,22.3443439 10.9998735,22.7060498 10.1,22.7 L5.47,22.73 Z M5.47,11.8900077 L5.47,5.31 L9.57,5.31 C10.4306392,5.25912561 11.2715669,5.58097547 11.8783152,6.19346589 C12.4850635,6.8059563 12.7989784,7.64987817 12.74,8.51 C12.798194,9.38649102 12.4900844,10.2478337 11.8891702,10.8885561 C11.288256,11.5292785 10.4484186,11.8919298 9.57,11.8900077 L5.47,11.8900077 Z M14.13,13.66 C16.3938506,12.5732916 17.8494593,10.3008387 17.89,7.79 C17.89,3.84 14.43,0.789999997 9.95,0.789999997 L1.33,0.789999997 C1.13995081,0.789999997 0.957827367,0.866155659 0.82438531,1.00147718 C0.690943254,1.1367987 0.61732325,1.31996966 0.619929479,1.51 L0.619929479,26.46 C0.619929479,26.8521222 0.937877828,27.17 1.33,27.17 L10.44,27.17 C15.03,27.17 18.65,24.12 18.65,19.91 C18.6986559,17.0965392 16.8405871,14.6054116 14.13,13.85 L14.13,13.66 Z" id="Shape"></path>
            </g>
        </g>
    </g>
</svg>